<svg width="171" height="189" viewBox="0 0 171 189" fill="none" xmlns="http://www.w3.org/2000/svg">
<path d="M15.5793 133.644C15.9136 134.006 16.2203 134.395 16.4966 134.808L59.4662 133.699L64.479 124.035L79.292 130.11L71.9929 148.129C71.4032 149.585 70.382 150.799 69.0825 151.59C67.783 152.382 66.2753 152.707 64.7857 152.517L16.2371 146.329C15.0919 147.859 13.5325 148.984 11.7662 149.556C9.99999 150.128 8.11062 150.118 6.34944 149.53C4.58825 148.941 3.03873 147.8 1.90695 146.26C0.775178 144.719 0.114799 142.851 0.0136496 140.905C-0.0875001 138.959 0.37537 137.026 1.3407 135.364C2.30604 133.702 3.72807 132.389 5.41767 131.601C7.10728 130.812 8.98437 130.585 10.7993 130.95C12.6142 131.314 14.2809 132.253 15.5777 133.642L15.5793 133.644Z" fill="#9F616A"/>
<path d="M73.4143 78.4584L93.5235 71.5051L99.4296 62.9592L128.171 64.7538L132.391 74.7263L147.717 82.3668L145.361 128.516L141.332 171.706C120.613 160.386 81.9454 169.016 81.6068 169.156L73.4143 78.4584Z" fill="#6C63FF"/>
<path d="M77.7132 140.924L57.259 132.29L57.3461 131.905C57.4338 131.517 66.1394 93.1359 67.2953 86.968C68.4994 80.5422 72.8988 78.7654 73.0856 78.6933L73.2221 78.6402L81.3168 81.2398L84.8719 110.711L77.7132 140.924Z" fill="#6C63FF"/>
<path d="M121.878 169.807C122.357 169.795 122.837 169.823 123.312 169.89L151.756 135.892L148.448 125.445L162.742 118.116L170.303 136.013C170.914 137.459 171.064 139.075 170.73 140.619C170.397 142.162 169.597 143.549 168.453 144.573L131.144 177.924C131.428 179.85 131.15 181.822 130.346 183.577C129.543 185.332 128.252 186.787 126.645 187.75C125.038 188.712 123.192 189.135 121.352 188.963C119.511 188.791 117.764 188.031 116.343 186.786C114.922 185.541 113.893 183.869 113.395 181.992C112.896 180.115 112.951 178.123 113.551 176.28C114.152 174.436 115.271 172.83 116.758 171.674C118.245 170.517 120.031 169.866 121.878 169.807Z" fill="#9F616A"/>
<path d="M149.486 139.201L137.621 109.754L142.249 89.2428L147.235 82.5963C147.6 82.4316 147.994 82.3485 148.391 82.3524C148.788 82.3563 149.18 82.4471 149.543 82.619C151.383 83.3997 152.947 85.7932 154.197 89.7324L165.317 123.151L149.486 139.201Z" fill="#6C63FF"/>
<path d="M87.925 52.0475V29.8472C87.9127 25.9406 88.6299 22.0696 90.0355 18.4554C91.4412 14.8412 93.5078 11.5545 96.1173 8.78298C98.7269 6.01142 101.828 3.8093 105.245 2.30235C108.661 0.795388 112.325 0.0131055 116.028 0.000163263C119.73 -0.012779 123.399 0.743875 126.825 2.22692C130.25 3.70996 133.366 5.89035 135.993 8.6436C138.62 11.3968 140.707 14.669 142.135 18.2733C143.563 21.8776 144.305 25.7435 144.317 29.6501C144.317 29.7158 144.317 29.7815 144.317 29.8472V52.0475C144.316 53.107 143.917 54.1227 143.206 54.8719C142.496 55.621 141.534 56.0424 140.529 56.0436H91.7125C90.7084 56.0424 89.7456 55.621 89.0356 54.8719C88.3255 54.1227 87.9261 53.107 87.925 52.0475Z" fill="#2F2E41"/>
<path d="M110.327 55.5265C121.744 55.5265 130.999 45.7616 130.999 33.7161C130.999 21.6705 121.744 11.9057 110.327 11.9057C98.9099 11.9057 89.6546 21.6705 89.6546 33.7161C89.6546 45.7616 98.9099 55.5265 110.327 55.5265Z" fill="#9F616A"/>
<path d="M81.2544 31.6234C81.2611 25.3843 83.6131 19.4028 87.7946 14.9911C91.976 10.5795 97.6454 8.0979 103.559 8.09088H107.767C113.681 8.0979 119.35 10.5795 123.532 14.9912C127.713 19.4028 130.065 25.3843 130.072 31.6234V32.0673H121.178L118.144 23.1043L117.538 32.0673H112.942L111.411 27.5457L111.105 32.0673H81.2544V31.6234Z" fill="#2F2E41"/>
<path d="M108.293 58.5403C107.875 57.9438 107.626 57.235 107.573 56.4955C107.521 55.756 107.667 55.0159 107.996 54.3604C112.456 45.411 118.7 28.8742 110.412 18.6758L109.818 17.9439H133.879V56.0575L112.021 60.1265C111.8 60.1678 111.576 60.1887 111.351 60.1889C110.754 60.1889 110.166 60.0396 109.635 59.7532C109.103 59.4668 108.644 59.0514 108.294 58.5413L108.293 58.5403Z" fill="#2F2E41"/>
</svg>
