<svg width="21" height="22" viewBox="0 0 21 22" fill="none" xmlns="http://www.w3.org/2000/svg">
<path d="M10.4265 1.43552e-08C8.36448 -0.000111108 6.34868 0.644921 4.63408 1.85353C2.91947 3.06214 1.58306 4.78003 0.79384 6.78999C0.00462266 8.79994 -0.201952 11.0117 0.200233 13.1455C0.602419 15.2793 1.5953 17.2394 3.05333 18.7778C4.51136 20.3163 6.36904 21.3641 8.39147 21.7886C10.4139 22.2132 12.5102 21.9954 14.4154 21.163C16.3205 20.3305 17.9489 18.9207 19.0946 17.1118C20.2403 15.3029 20.8519 13.1762 20.852 11.0006V11C20.852 9.55549 20.5823 8.12509 20.0584 6.79051C19.5344 5.45592 18.7665 4.24329 17.7983 3.22184C16.8302 2.20039 15.6808 1.39013 14.4159 0.837325C13.1509 0.284522 11.7952 -1.30323e-06 10.426 1.43552e-08H10.4265ZM10.4265 3.29972C11.0451 3.29971 11.6498 3.49324 12.1641 3.85581C12.6784 4.21839 13.0793 4.73373 13.316 5.33667C13.5527 5.93962 13.6147 6.60308 13.494 7.24317C13.3733 7.88325 13.0755 8.4712 12.6381 8.93268C12.2007 9.39415 11.6434 9.70842 11.0367 9.83575C10.43 9.96307 9.8012 9.89773 9.22971 9.64799C8.65823 9.39824 8.16978 8.9753 7.82612 8.43267C7.48246 7.89004 7.29903 7.25207 7.29903 6.59945C7.29903 5.72431 7.62853 4.88501 8.21506 4.26619C8.80158 3.64737 9.59707 3.29972 10.4265 3.29972ZM10.4265 19.186C9.19094 19.1801 7.97536 18.8562 6.88526 18.2424C5.79516 17.6286 4.86345 16.7435 4.17094 15.6638C4.22117 13.4638 8.34134 12.2528 10.4265 12.2528C12.5117 12.2528 16.6319 13.4638 16.6822 15.6638C15.9889 16.7427 15.057 17.6272 13.9671 18.2409C12.8771 18.8546 11.662 19.179 10.4265 19.186Z" fill="#6C63FF"/>
</svg>
