<svg width="31" height="30" viewBox="0 0 31 30" fill="none" xmlns="http://www.w3.org/2000/svg">
<g clip-path="url(#clip0_203_270)">
<path d="M17.8462 11.0081H15.0659V20.0051H17.94C22.0342 20.0051 22.9727 17.002 22.9727 15.5063C22.9727 13.0706 21.3658 11.0081 17.8462 11.0081ZM15.5 0.467954C7.20507 0.467954 0.484367 6.96083 0.484367 14.9746C0.484367 22.9883 7.20507 29.4812 15.5 29.4812C23.7949 29.4812 30.5156 22.9883 30.5156 14.9746C30.5156 6.96083 23.7949 0.467954 15.5 0.467954ZM10.6084 21.5704H8.80169V9.43281H10.6084V21.5704ZM9.70505 8.05C9.4707 8.05 9.24161 7.98286 9.04675 7.85708C8.8519 7.73129 8.70002 7.55251 8.61034 7.34334C8.52066 7.13416 8.49719 6.904 8.54291 6.68194C8.58863 6.45988 8.70148 6.25591 8.8672 6.09581C9.03291 5.93572 9.24404 5.82669 9.47388 5.78252C9.70373 5.73836 9.94198 5.76102 10.1585 5.84767C10.375 5.93431 10.5601 6.08103 10.6903 6.26928C10.8205 6.45753 10.8899 6.67886 10.8899 6.90527C10.8888 7.20854 10.7636 7.49908 10.5417 7.71352C10.3197 7.92797 10.019 8.04892 9.70505 8.05ZM18.164 21.5844H13.2598V9.43281H18.1398C22.7856 9.43281 24.8266 12.6401 24.8266 15.5075C24.8242 18.624 22.3042 21.5844 18.164 21.5844Z" fill="black"/>
</g>
<defs>
<clipPath id="clip0_203_270">
<rect width="30.102" height="29.0816" fill="white" transform="scale(1.02983)"/>
</clipPath>
</defs>
</svg>
