<svg width="108" height="96" viewBox="0 0 108 96" fill="none" xmlns="http://www.w3.org/2000/svg">
<path d="M1.71185 12.2094C5.86393 4.18155 15.8106 -0.902322 23.9471 3.68011C27.6095 5.74243 30.5209 9.39052 31.4451 13.7024C32.5176 18.7112 30.2577 23.4873 27.9248 27.6954C26.6587 29.9795 25.2712 32.217 24.2232 34.6262C23.1381 37.1211 22.3626 40.0046 23.1795 42.7187C23.9149 45.1638 25.759 46.9423 27.7784 48.2494C30.0071 49.6373 32.3777 50.7544 34.8449 51.5793C39.9234 53.3613 45.2801 54.0925 50.6213 53.7328C53.2758 53.5426 55.908 53.0936 58.4842 52.3918C61.2246 51.6547 63.9138 50.7203 66.6588 49.9994C71.2417 48.7983 76.4672 48.2012 80.8129 50.6136C85.0349 52.9582 86.9243 57.8617 87.5087 62.6319C88.5879 71.4405 85.2776 80.5815 79.3007 86.75C76.4332 89.7095 72.8247 92.1546 68.8945 93.1548C65.4652 94.0277 61.0619 93.9718 58.3328 91.2671C55.2876 88.2485 56.004 83.408 58.4226 80.2232C61.5099 76.1597 66.74 75.1837 71.4071 75.0847C76.7163 74.9722 82.0206 75.8063 87.3266 75.2878C89.9166 75.0751 92.4579 74.4284 94.8549 73.3719C96.9623 72.3939 98.8844 71.0216 100.528 69.3213C103.804 65.9635 106.013 61.4904 107.112 56.8394C108.435 51.2463 108.147 45.3681 107.12 39.7502C106.572 36.8533 105.868 33.992 105.009 31.1805C104.654 29.994 102.879 30.5016 103.236 31.6962C106.398 42.2758 108.162 54.5091 102.052 64.3318C99.5233 68.4974 95.5843 71.4889 91.0378 72.6965C85.7498 74.0831 80.201 73.3978 74.825 73.1915C69.7132 72.9952 64.1001 73.207 59.7182 76.3482C56.1235 78.9245 53.6093 83.8251 54.6958 88.4515C55.7435 92.913 59.8074 95.1761 63.8718 95.5246C68.1363 95.8912 72.3329 94.3811 75.9144 92.0197C83.3646 87.1079 88.3182 78.4693 89.3549 69.3106C89.8951 64.5384 89.3454 59.398 87.2942 55.0664C86.2133 52.7216 84.531 50.7435 82.4382 49.3567C80.3514 48.0069 77.9411 47.3425 75.5203 47.1075C70.0206 46.5731 64.7365 48.5652 59.5193 50.0893C56.8542 50.905 54.1223 51.4552 51.3598 51.7326C48.6785 51.967 45.9819 51.9206 43.3093 51.5942C40.6574 51.2641 38.0439 50.6521 35.5086 49.7676C33.0242 48.9572 30.6455 47.8226 28.4277 46.3901C26.4712 45.07 24.7791 43.1794 24.6828 40.603C24.5784 37.8094 25.9135 35.1962 27.1833 32.841C29.692 28.1884 32.7909 23.6376 33.4451 18.191C34.0181 13.4266 32.201 8.73068 29.0632 5.33249C27.4906 3.60766 25.5974 2.24399 23.5022 1.32691C21.4069 0.40983 19.1547 -0.0409095 16.8867 0.00291501C12.2312 0.14355 7.77358 2.27958 4.34926 5.56009C2.6509 7.18809 1.22174 9.1035 0.120567 11.2275C-0.446629 12.3238 1.14036 13.3037 1.70817 12.2065L1.71185 12.2094Z" fill="#3F3D56"/>
</svg>
