<svg width="14" height="41" viewBox="0 0 14 41" fill="none" xmlns="http://www.w3.org/2000/svg">
<path d="M1.38757 40.1414C0.496642 33.9627 -0.419993 27.7041 0.206443 21.4592C0.761589 15.9129 2.53921 10.4968 6.15817 6.05402C8.07911 3.70074 10.4165 1.68446 13.0654 0.0957977C13.7559 -0.319015 14.3916 0.722614 13.704 1.13585C9.12072 3.89302 5.57563 7.96447 3.57989 12.7632C1.37578 18.0994 1.02185 23.9167 1.4015 29.5854C1.63098 33.0134 2.11866 36.419 2.60841 39.8206C2.64708 39.9744 2.62292 40.1365 2.54085 40.274C2.45879 40.4115 2.32491 40.5142 2.16631 40.5614C2.00451 40.6029 1.83205 40.582 1.68634 40.5032C1.54064 40.4244 1.43347 40.2941 1.38804 40.1406L1.38757 40.1414Z" fill="#F2F2F2"/>
</svg>
