<svg width="440" height="157" viewBox="0 0 440 157" fill="none" xmlns="http://www.w3.org/2000/svg">
<path d="M12.6259 138.585C14.1716 139.102 15.8311 139.232 17.4447 138.961C19.0582 138.691 20.5713 138.029 21.8383 137.04C25.065 134.462 26.0768 130.216 26.8997 126.284L29.3344 114.651L24.2372 117.992C20.5713 120.395 16.8231 122.875 14.2851 126.355C11.7471 129.835 10.6399 134.586 12.6785 138.351" fill="#E6E6E6"/>
<path d="M13.413 153.478C12.7715 149.029 12.1114 144.522 12.5625 140.025C12.9622 136.031 14.2423 132.131 16.8484 128.931C18.2316 127.237 19.9148 125.785 21.8223 124.641C22.3195 124.342 22.7773 125.092 22.2822 125.39C18.9817 127.375 16.4289 130.307 14.9917 133.763C13.4045 137.605 13.1497 141.794 13.4231 145.877C13.5883 148.345 13.9395 150.797 14.2921 153.247C14.32 153.358 14.3026 153.474 14.2435 153.573C14.1844 153.672 14.088 153.746 13.9738 153.78C13.8573 153.81 13.7331 153.795 13.6282 153.738C13.5232 153.682 13.4461 153.588 13.4133 153.477L13.413 153.478Z" fill="#F2F2F2"/>
<path d="M18.0308 146.339C18.6936 147.298 19.6048 148.078 20.6765 148.605C21.7483 149.132 22.9445 149.387 24.1499 149.346C27.2483 149.206 29.8304 147.148 32.1545 145.194L39.0303 139.415L34.4799 139.208C31.2074 139.059 27.8504 138.919 24.7335 139.881C21.6165 140.842 18.7419 143.153 18.172 146.224" fill="#E6E6E6"/>
<path d="M11.5995 156.036C14.6882 150.833 18.2706 145.052 24.6722 143.204C26.452 142.691 28.3182 142.508 30.1704 142.663C30.7542 142.711 30.6084 143.568 30.0258 143.52C26.921 143.275 23.8223 144.055 21.2511 145.73C18.8341 147.399 16.785 149.504 15.2201 151.925C14.2213 153.373 13.3267 154.882 12.4321 156.389C12.1463 156.871 11.3103 156.523 11.5995 156.036Z" fill="#F2F2F2"/>
<path d="M295.156 131.785C297.285 132.497 299.57 132.676 301.792 132.303C304.014 131.93 306.098 131.019 307.842 129.658C312.286 126.107 313.679 120.26 314.812 114.845L318.165 98.8266L311.146 103.427C306.098 106.736 300.936 110.151 297.441 114.943C293.946 119.735 292.421 126.278 295.229 131.463" fill="#E6E6E6"/>
<path d="M296.24 152.293C295.357 146.166 294.448 139.96 295.069 133.767C295.619 128.268 297.382 122.897 300.971 118.491C302.876 116.158 305.194 114.158 307.82 112.583C308.505 112.172 309.135 113.204 308.454 113.614C303.909 116.348 300.393 120.386 298.414 125.144C296.229 130.436 295.878 136.204 296.254 141.826C296.482 145.225 296.965 148.602 297.451 151.975C297.489 152.128 297.465 152.288 297.384 152.425C297.302 152.561 297.17 152.663 297.012 152.71C296.852 152.751 296.681 152.73 296.536 152.652C296.392 152.574 296.286 152.445 296.241 152.293L296.24 152.293Z" fill="#F2F2F2"/>
<path d="M302.599 142.462C303.512 143.783 304.767 144.858 306.243 145.583C307.719 146.309 309.366 146.66 311.026 146.603C315.293 146.41 318.848 143.577 322.049 140.886L331.517 132.928L325.251 132.643C320.744 132.437 316.122 132.244 311.829 133.569C307.537 134.893 303.579 138.076 302.794 142.305" fill="#E6E6E6"/>
<path d="M293.743 155.815C297.996 148.651 302.929 140.69 311.745 138.145C314.196 137.44 316.766 137.187 319.316 137.401C320.12 137.467 319.919 138.646 319.117 138.58C314.842 138.243 310.574 139.317 307.034 141.623C303.627 143.831 300.974 146.9 298.729 150.155C297.353 152.148 296.121 154.227 294.89 156.302C294.496 156.965 293.345 156.486 293.743 155.815Z" fill="#F2F2F2"/>
<path d="M255.292 23.9923C254.843 23.8063 254.482 23.4698 254.277 23.0469C254.073 22.624 254.038 22.1441 254.181 21.6987C254.204 21.6304 254.219 21.5598 254.224 21.4882C254.237 21.2842 254.181 21.0815 254.064 20.9103C253.946 20.7391 253.774 20.6084 253.572 20.5376C253.371 20.4669 253.151 20.4598 252.945 20.5174C252.739 20.575 252.558 20.6943 252.428 20.8576C252.384 20.9155 252.347 20.9782 252.318 21.0444C252.122 21.4714 251.769 21.8151 251.325 22.01C250.88 22.205 250.376 22.2377 249.908 22.1018C249.836 22.0798 249.762 22.066 249.687 22.0606C249.473 22.0481 249.26 22.1018 249.08 22.2135C248.9 22.3253 248.763 22.4892 248.688 22.6811C248.614 22.8729 248.607 23.0824 248.667 23.2786C248.728 23.4748 248.853 23.6471 249.025 23.7702C249.085 23.8126 249.151 23.8479 249.221 23.8755C249.669 24.0615 250.03 24.398 250.235 24.8209C250.44 25.2438 250.474 25.7236 250.332 26.1691C250.309 26.2374 250.294 26.308 250.288 26.3795C250.275 26.5836 250.332 26.7863 250.449 26.9575C250.566 27.1287 250.739 27.2594 250.94 27.3302C251.142 27.4009 251.362 27.408 251.568 27.3504C251.774 27.2928 251.955 27.1735 252.084 27.0102C252.129 26.9523 252.166 26.8896 252.195 26.8234C252.39 26.3964 252.744 26.0527 253.188 25.8577C253.632 25.6628 254.136 25.6301 254.604 25.766C254.676 25.7879 254.75 25.8018 254.826 25.8072C255.04 25.8196 255.253 25.766 255.433 25.6543C255.613 25.5425 255.75 25.3786 255.824 25.1867C255.899 24.9949 255.906 24.7854 255.845 24.5892C255.785 24.393 255.66 24.2206 255.488 24.0975C255.427 24.0552 255.361 24.0199 255.292 23.9923Z" fill="#CBCBCB"/>
<path d="M293.27 108.173C292.821 107.987 292.46 107.651 292.255 107.228C292.05 106.805 292.016 106.325 292.159 105.88C292.182 105.811 292.196 105.741 292.202 105.669C292.215 105.465 292.159 105.262 292.041 105.091C291.924 104.92 291.752 104.789 291.55 104.719C291.349 104.648 291.129 104.641 290.923 104.698C290.716 104.756 290.535 104.875 290.406 105.038C290.362 105.096 290.324 105.159 290.295 105.225C290.1 105.652 289.747 105.996 289.302 106.191C288.858 106.386 288.354 106.419 287.886 106.283C287.814 106.261 287.74 106.247 287.665 106.241C287.45 106.229 287.238 106.283 287.058 106.394C286.878 106.506 286.741 106.67 286.666 106.862C286.592 107.054 286.584 107.263 286.645 107.459C286.706 107.656 286.831 107.828 287.002 107.951C287.063 107.993 287.129 108.029 287.199 108.056C287.647 108.242 288.008 108.579 288.213 109.002C288.418 109.425 288.452 109.905 288.309 110.35C288.286 110.418 288.272 110.489 288.266 110.56C288.253 110.765 288.309 110.967 288.427 111.138C288.544 111.31 288.716 111.44 288.918 111.511C289.12 111.582 289.34 111.589 289.546 111.531C289.752 111.474 289.933 111.354 290.062 111.191C290.107 111.133 290.144 111.07 290.173 111.004C290.368 110.577 290.722 110.234 291.166 110.039C291.61 109.844 292.114 109.811 292.582 109.947C292.654 109.969 292.728 109.983 292.803 109.988C293.018 110.001 293.231 109.947 293.411 109.835C293.59 109.723 293.728 109.559 293.802 109.368C293.876 109.176 293.884 108.966 293.823 108.77C293.763 108.574 293.637 108.402 293.466 108.278C293.405 108.236 293.339 108.201 293.27 108.173Z" fill="#F1F1F1"/>
<path d="M94.1573 59.1107C93.7088 58.9247 93.3477 58.5883 93.1429 58.1653C92.938 57.7424 92.9037 57.2626 93.0465 56.8171C93.0695 56.7488 93.0841 56.6782 93.0898 56.6066C93.1029 56.4026 93.0465 56.1999 92.9291 56.0287C92.8117 55.8575 92.6395 55.7268 92.438 55.656C92.2364 55.5853 92.0163 55.5782 91.8102 55.6358C91.6042 55.6934 91.4231 55.8127 91.2937 55.976C91.2493 56.0339 91.2121 56.0966 91.1831 56.1628C90.9878 56.5898 90.6343 56.9335 90.19 57.1285C89.7457 57.3234 89.2417 57.3561 88.7737 57.2202C88.702 57.1982 88.6277 57.1844 88.5526 57.179C88.3382 57.1665 88.1253 57.2202 87.9454 57.332C87.7656 57.4437 87.6283 57.6076 87.554 57.7995C87.4796 57.9913 87.4722 58.2008 87.5327 58.397C87.5932 58.5932 87.7185 58.7656 87.89 58.8886C87.9509 58.931 88.0168 58.9663 88.0863 58.9939C88.5349 59.1799 88.8959 59.5164 89.1008 59.9393C89.3056 60.3622 89.3399 60.842 89.1972 61.2875C89.1741 61.3558 89.1595 61.4264 89.1538 61.498C89.1408 61.702 89.1971 61.9047 89.3145 62.0759C89.4319 62.2471 89.6041 62.3778 89.8057 62.4486C90.0072 62.5193 90.2273 62.5264 90.4334 62.4688C90.6395 62.4112 90.8206 62.2919 90.9499 62.1286C90.9943 62.0707 91.0315 62.008 91.0605 61.9418C91.2559 61.5148 91.6093 61.1711 92.0536 60.9761C92.4979 60.7812 93.002 60.7485 93.4699 60.8844C93.5417 60.9063 93.6159 60.9202 93.691 60.9256C93.9054 60.938 94.1183 60.8844 94.2982 60.7727C94.4781 60.6609 94.6153 60.497 94.6897 60.3051C94.764 60.1133 94.7715 59.9038 94.7109 59.7076C94.6504 59.5114 94.5251 59.339 94.3536 59.2159C94.2927 59.1736 94.2268 59.1383 94.1573 59.1107Z" fill="#F1F1F1"/>
<path d="M177.223 28.9211C179.021 28.9211 180.478 27.5337 180.478 25.8224C180.478 24.111 179.021 22.7237 177.223 22.7237C175.425 22.7237 173.968 24.111 173.968 25.8224C173.968 27.5337 175.425 28.9211 177.223 28.9211Z" fill="#F1F1F1"/>
<path d="M350.836 20.6579C352.633 20.6579 354.091 19.2706 354.091 17.5592C354.091 15.8479 352.633 14.4605 350.836 14.4605C349.038 14.4605 347.58 15.8479 347.58 17.5592C347.58 19.2706 349.038 20.6579 350.836 20.6579Z" fill="#6C63FF"/>
<path d="M98.0118 6.19737C99.8097 6.19737 101.267 4.81004 101.267 3.09868C101.267 1.38733 99.8097 0 98.0118 0C96.214 0 94.7566 1.38733 94.7566 3.09868C94.7566 4.81004 96.214 6.19737 98.0118 6.19737Z" fill="#CBCBCB"/>
<path d="M85.4934 147.028C98.398 147.028 108.859 137.07 108.859 124.786C108.859 112.502 98.398 102.544 85.4934 102.544C72.5889 102.544 62.1277 112.502 62.1277 124.786C62.1277 137.07 72.5889 147.028 85.4934 147.028Z" fill="#2F2E41"/>
<path d="M81.9442 142.242H74.8457V154.348H81.9442V142.242Z" fill="#2F2E41"/>
<path d="M96.1412 142.242H89.0427V154.348H96.1412V142.242Z" fill="#2F2E41"/>
<path d="M80.7611 156.6C84.0281 156.6 86.6765 155.655 86.6765 154.489C86.6765 153.323 84.0281 152.377 80.7611 152.377C77.4941 152.377 74.8457 153.323 74.8457 154.489C74.8457 155.655 77.4941 156.6 80.7611 156.6Z" fill="#2F2E41"/>
<path d="M94.9581 156.319C98.2251 156.319 100.874 155.373 100.874 154.207C100.874 153.041 98.2251 152.096 94.9581 152.096C91.6911 152.096 89.0427 153.041 89.0427 154.207C89.0427 155.373 91.6911 156.319 94.9581 156.319Z" fill="#2F2E41"/>
<path d="M110.672 115.066C115.733 110.246 118.546 105.112 116.956 103.6C115.367 102.088 109.976 104.77 104.915 109.59C99.8551 114.411 97.0417 119.545 98.6315 121.057C100.221 122.569 105.612 119.887 110.672 115.066Z" fill="#2F2E41"/>
<path d="M66.66 122.606C68.2497 121.094 65.4364 115.96 60.3761 111.14C55.3158 106.319 49.9249 103.637 48.3351 105.149C46.7453 106.662 49.5587 111.795 54.619 116.616C59.6792 121.436 65.0702 124.118 66.66 122.606Z" fill="#2F2E41"/>
<path d="M84.5104 129.235C88.9208 129.235 92.4962 125.832 92.4962 121.634C92.4962 117.435 88.9208 114.032 84.5104 114.032C80.1 114.032 76.5247 117.435 76.5247 121.634C76.5247 125.832 80.1 129.235 84.5104 129.235Z" fill="white"/>
<path d="M84.5103 124.168C85.9805 124.168 87.1723 123.033 87.1723 121.634C87.1723 120.234 85.9805 119.1 84.5103 119.1C83.0402 119.1 81.8484 120.234 81.8484 121.634C81.8484 123.033 83.0402 124.168 84.5103 124.168Z" fill="#3F3D56"/>
<path d="M90.8498 135.693C91.0964 136.983 90.7947 138.313 90.0109 139.391C89.2272 140.469 88.0256 141.207 86.6704 141.442C85.3153 141.677 83.9177 141.39 82.7851 140.643C81.6524 139.897 80.8775 138.754 80.6308 137.464L80.629 137.454C80.1181 134.767 82.3002 133.817 85.1226 133.33C87.945 132.844 90.3388 133.006 90.8498 135.693Z" fill="white"/>
<path d="M108.405 148.129C107.879 148.13 107.375 148.329 107.003 148.683C106.631 149.037 106.422 149.517 106.421 150.018V153.962C106.422 154.462 106.631 154.942 107.003 155.296C107.375 155.65 107.879 155.85 108.405 155.85H140.323C140.849 155.85 141.353 155.65 141.725 155.296C142.097 154.942 142.306 154.462 142.306 153.962V150.018C142.306 149.517 142.097 149.037 141.725 148.683C141.353 148.329 140.849 148.13 140.323 148.129H108.405Z" fill="#E5E5E5"/>
<path d="M126.76 145.502C126.563 145.394 126.328 145.364 126.107 145.421C125.887 145.477 125.699 145.614 125.585 145.802L124.399 147.758L123.237 145.571C123.134 145.377 122.954 145.23 122.737 145.163C122.52 145.095 122.284 145.112 122.081 145.21C121.877 145.308 121.723 145.479 121.652 145.686C121.581 145.892 121.599 146.117 121.702 146.31L122.606 148.012H122.275V155.967H126.699V148.012H126.231L127.075 146.621C127.189 146.433 127.22 146.209 127.161 146C127.102 145.79 126.958 145.611 126.76 145.502Z" fill="#6C63FF"/>
<path d="M84.8918 110.197C80.7401 110.193 76.6129 109.593 72.6494 108.417C72.374 108.332 72.1338 108.167 71.963 107.944C71.7923 107.722 71.6998 107.454 71.6987 107.178V98.125C71.6992 97.7827 71.8422 97.4545 72.0965 97.2125C72.3507 96.9705 72.6955 96.8343 73.0551 96.8339H96.9268C97.2864 96.8343 97.6312 96.9705 97.8855 97.2125C98.1397 97.4545 98.2828 97.7827 98.2832 98.125V107.173C98.2833 107.451 98.1896 107.721 98.0158 107.945C97.842 108.168 97.5974 108.332 97.3181 108.412C93.2903 109.584 89.1034 110.185 84.8918 110.197Z" fill="#6C63FF"/>
<path opacity="0.2" d="M98.0119 98.125V99.6382L85.094 103.951C84.8525 104.03 84.5896 104.026 84.3506 103.94L71.97 99.5142V98.125C71.9708 97.8513 72.0854 97.589 72.2887 97.3955C72.492 97.202 72.7675 97.0929 73.0551 97.0921H96.9268C97.2143 97.0929 97.4898 97.202 97.6932 97.3955C97.8965 97.589 98.0111 97.8513 98.0119 98.125Z" fill="black"/>
<path d="M84.7324 102.201C84.5697 102.201 84.4082 102.173 84.2557 102.119L65.7545 95.5057C65.4929 95.4122 65.2681 95.244 65.1107 95.0242C64.9533 94.8045 64.871 94.5438 64.8751 94.2778C64.8793 94.0119 64.9696 93.7536 65.1338 93.5384C65.2979 93.3231 65.5279 93.1614 65.7923 93.0753L83.1999 87.4064C83.4812 87.3158 83.7857 87.3145 84.0678 87.4029L103.496 93.5678C103.765 93.6529 103.998 93.8158 104.165 94.0337C104.331 94.2515 104.421 94.5134 104.424 94.7827C104.426 95.052 104.339 95.3152 104.177 95.5354C104.014 95.7557 103.783 95.922 103.516 96.0111L85.1809 102.128C85.0368 102.176 84.8851 102.201 84.7324 102.201Z" fill="#6C63FF"/>
<path d="M67.9009 101.74H67.3584V94.2516H83.9059V94.7681H67.9009V101.74Z" fill="#3F3D56"/>
<path d="M67.6298 103.289C68.229 103.289 68.7148 102.827 68.7148 102.257C68.7148 101.686 68.229 101.224 67.6298 101.224C67.0305 101.224 66.5447 101.686 66.5447 102.257C66.5447 102.827 67.0305 103.289 67.6298 103.289Z" fill="#3F3D56"/>
<path d="M220.586 147.028C233.491 147.028 243.952 137.07 243.952 124.786C243.952 112.502 233.491 102.544 220.586 102.544C207.681 102.544 197.22 112.502 197.22 124.786C197.22 137.07 207.681 147.028 220.586 147.028Z" fill="#2F2E41"/>
<path d="M217.037 142.242H209.938V154.348H217.037V142.242Z" fill="#2F2E41"/>
<path d="M231.233 142.242H224.135V154.348H231.233V142.242Z" fill="#2F2E41"/>
<path d="M215.854 156.6C219.121 156.6 221.769 155.655 221.769 154.489C221.769 153.323 219.121 152.377 215.854 152.377C212.587 152.377 209.938 153.323 209.938 154.489C209.938 155.655 212.587 156.6 215.854 156.6Z" fill="#2F2E41"/>
<path d="M230.05 156.319C233.317 156.319 235.966 155.373 235.966 154.207C235.966 153.041 233.317 152.096 230.05 152.096C226.783 152.096 224.135 153.041 224.135 154.207C224.135 155.373 226.783 156.319 230.05 156.319Z" fill="#2F2E41"/>
<path d="M245.765 115.066C250.825 110.246 253.638 105.112 252.049 103.6C250.459 102.088 245.068 104.77 240.008 109.59C234.947 114.411 232.134 119.545 233.724 121.057C235.314 122.569 240.704 119.887 245.765 115.066Z" fill="#2F2E41"/>
<path d="M199.73 135.712C203.813 130.115 205.627 124.588 203.781 123.367C201.935 122.147 197.128 125.696 193.045 131.293C188.962 136.891 187.148 142.418 188.994 143.638C190.84 144.858 195.647 141.31 199.73 135.712Z" fill="#2F2E41"/>
<path d="M219.603 129.235C224.013 129.235 227.588 125.832 227.588 121.634C227.588 117.435 224.013 114.032 219.603 114.032C215.192 114.032 211.617 117.435 211.617 121.634C211.617 125.832 215.192 129.235 219.603 129.235Z" fill="white"/>
<path d="M222.316 121.585C223.786 121.585 224.977 120.451 224.977 119.052C224.977 117.652 223.786 116.518 222.316 116.518C220.845 116.518 219.654 117.652 219.654 119.052C219.654 120.451 220.845 121.585 222.316 121.585Z" fill="#3F3D56"/>
<path d="M229.177 135.693C229.96 138.379 227.107 140.953 222.804 141.442C218.5 141.931 214.376 140.15 213.593 137.464L213.59 137.454C212.811 134.767 216.139 133.817 220.443 133.33C224.747 132.844 228.398 133.006 229.177 135.693Z" fill="white"/>
<path d="M212.41 111.695C208.557 113.166 204.492 114.075 200.354 114.391C200.066 114.41 199.778 114.342 199.532 114.197C199.287 114.051 199.096 113.835 198.987 113.58L195.439 105.18C195.305 104.862 195.309 104.507 195.45 104.192C195.591 103.877 195.858 103.629 196.191 103.501L218.34 95.0231C218.673 94.8958 219.047 94.8997 219.377 95.034C219.708 95.1683 219.969 95.422 220.104 95.7394L223.65 104.134C223.759 104.392 223.778 104.676 223.704 104.945C223.63 105.214 223.468 105.453 223.24 105.627C219.962 108.144 216.313 110.189 212.41 111.695Z" fill="#6C63FF"/>
<path opacity="0.2" d="M219.852 95.8357L220.445 97.2396L210.15 105.828C209.957 105.987 209.712 106.077 209.456 106.083L196.235 106.373L195.69 105.084C195.584 104.83 195.587 104.546 195.7 104.294C195.813 104.042 196.026 103.843 196.292 103.74L218.441 95.2627C218.708 95.1614 219.006 95.1647 219.271 95.2721C219.535 95.3794 219.744 95.5821 219.852 95.8357Z" fill="black"/>
<path d="M209.129 104.333C208.978 104.391 208.817 104.422 208.654 104.426L188.897 104.861C188.618 104.867 188.343 104.791 188.111 104.643C187.879 104.495 187.701 104.282 187.6 104.034C187.5 103.786 187.482 103.514 187.55 103.256C187.618 102.998 187.768 102.766 187.98 102.592L201.909 91.151C202.134 90.967 202.416 90.8577 202.713 90.8396L223.155 89.6599C223.437 89.6436 223.718 89.7117 223.957 89.8548C224.197 89.9979 224.384 90.2087 224.491 90.4578C224.599 90.7068 224.622 90.9817 224.557 91.2438C224.492 91.506 224.343 91.7423 224.13 91.9198L209.517 104.106C209.402 104.202 209.271 104.279 209.129 104.333Z" fill="#6C63FF"/>
<path d="M193.332 109.883L192.829 110.076L189.894 103.128L205.247 97.2512L205.449 97.7304L190.599 103.414L193.332 109.883Z" fill="#3F3D56"/>
<path d="M193.283 111.491C193.882 111.491 194.368 111.029 194.368 110.458C194.368 109.888 193.882 109.426 193.283 109.426C192.683 109.426 192.198 109.888 192.198 110.458C192.198 111.029 192.683 111.491 193.283 111.491Z" fill="#3F3D56"/>
<path d="M309.539 72.235C306.017 70.1428 302.847 67.5567 300.135 64.5642C299.948 64.3538 299.836 64.0927 299.815 63.818C299.793 63.5433 299.864 63.2692 300.016 63.0348L305.043 55.3493C305.233 55.0589 305.537 54.8523 305.887 54.7748C306.237 54.6972 306.605 54.7551 306.911 54.9357L327.176 66.9461C327.481 67.1274 327.698 67.4164 327.779 67.7498C327.861 68.0832 327.8 68.4338 327.61 68.7246L322.586 76.4056C322.432 76.6415 322.202 76.8239 321.931 76.9259C321.66 77.0279 321.361 77.0441 321.079 76.972C317.009 75.94 313.121 74.3439 309.539 72.235Z" fill="#6C63FF"/>
<path opacity="0.2" d="M327.38 68.5881L326.54 69.8726L313.179 67.0341C312.93 66.9799 312.709 66.8445 312.554 66.6513L304.501 56.6651L305.273 55.4857C305.426 55.2538 305.668 55.0888 305.948 55.0268C306.229 54.9648 306.523 55.0109 306.767 55.1548L327.032 67.1653C327.276 67.3106 327.449 67.5419 327.514 67.8084C327.58 68.075 327.531 68.3553 327.38 68.5881Z" fill="black"/>
<path d="M313.844 65.3667C313.706 65.2849 313.584 65.1801 313.485 65.0573L301.451 50.1351C301.281 49.9241 301.183 49.6682 301.172 49.4025C301.16 49.1367 301.235 48.874 301.386 48.6503C301.538 48.4266 301.758 48.2528 302.016 48.1527C302.275 48.0526 302.56 48.031 302.833 48.0909L320.758 52.0368C321.047 52.1013 321.306 52.2535 321.496 52.4704L334.566 67.4787C334.747 67.686 334.855 67.9419 334.875 68.2105C334.895 68.4791 334.826 68.7469 334.679 68.9766C334.531 69.2063 334.312 69.3863 334.051 69.4914C333.791 69.5965 333.502 69.6214 333.226 69.5628L314.265 65.5309C314.116 65.4991 313.974 65.4436 313.844 65.3667Z" fill="#6C63FF"/>
<path d="M299.811 56.5076L299.351 56.2344L303.509 49.8774L317.556 58.2031L317.269 58.641L303.682 50.5886L299.811 56.5076Z" fill="#3F3D56"/>
<path d="M299.295 57.8422C299.894 57.8422 300.38 57.3798 300.38 56.8094C300.38 56.2389 299.894 55.7765 299.295 55.7765C298.695 55.7765 298.209 56.2389 298.209 56.8094C298.209 57.3798 298.695 57.8422 299.295 57.8422Z" fill="#3F3D56"/>
<path d="M366.067 121.722C378.971 121.722 389.433 111.764 389.433 99.4799C389.433 87.1959 378.971 77.2379 366.067 77.2379C353.162 77.2379 342.701 87.1959 342.701 99.4799C342.701 111.764 353.162 121.722 366.067 121.722Z" fill="#2F2E41"/>
<path d="M382.265 111.013L376.208 114.536L382.841 124.866L388.898 121.343L382.265 111.013Z" fill="#2F2E41"/>
<path d="M370.151 118.06L364.094 121.583L370.727 131.913L376.783 128.39L370.151 118.06Z" fill="#2F2E41"/>
<path d="M385.084 126.201C387.871 124.579 389.613 122.458 388.974 121.463C388.336 120.468 385.558 120.976 382.77 122.597C379.983 124.219 378.241 126.34 378.88 127.335C379.519 128.33 382.296 127.823 385.084 126.201Z" fill="#2F2E41"/>
<path d="M372.816 133.008C375.603 131.386 377.345 129.265 376.706 128.27C376.068 127.275 373.29 127.783 370.502 129.404C367.715 131.026 365.973 133.147 366.612 134.142C367.25 135.138 370.028 134.63 372.816 133.008Z" fill="#2F2E41"/>
<path d="M352.929 95.7511C354.519 94.2389 351.705 89.1052 346.645 84.2846C341.585 79.4639 336.194 76.7819 334.604 78.2941C333.014 79.8063 335.827 84.94 340.888 89.7606C345.948 94.5812 351.339 97.2632 352.929 95.7511Z" fill="#2F2E41"/>
<path d="M397.658 118.332C399.504 117.112 397.691 111.585 393.608 105.988C389.525 100.39 384.718 96.8413 382.872 98.0614C381.026 99.2816 382.839 104.809 386.923 110.406C391.006 116.004 395.812 119.552 397.658 118.332Z" fill="#2F2E41"/>
<path d="M358.912 100.831C363.322 100.831 366.898 97.4275 366.898 93.2292C366.898 89.0309 363.322 85.6275 358.912 85.6275C354.501 85.6275 350.926 89.0309 350.926 93.2292C350.926 97.4275 354.501 100.831 358.912 100.831Z" fill="white"/>
<path d="M356.199 93.1809C357.669 93.1809 358.861 92.0464 358.861 90.647C358.861 89.2475 357.669 88.113 356.199 88.113C354.729 88.113 353.537 89.2475 353.537 90.647C353.537 92.0464 354.729 93.1809 356.199 93.1809Z" fill="#3F3D56"/>
<path d="M348.628 105.91C347.114 108.271 349.132 111.466 353.135 113.046C357.138 114.625 361.611 113.991 363.125 111.63L363.131 111.621C364.641 109.258 361.707 107.49 357.703 105.913C353.698 104.335 350.139 103.546 348.628 105.91Z" fill="white"/>
<path d="M358.227 71.5523C360.313 63.5541 369.523 58.8473 378.797 61.0394C388.071 63.2315 393.898 71.4925 391.812 79.4907C389.725 87.4889 382.803 87.5147 373.529 85.3226C364.255 83.1305 356.14 79.5505 358.227 71.5523Z" fill="#E6E6E6"/>
<path d="M439.457 157H0.54254C0.398649 157 0.260652 156.946 0.158906 156.849C0.0571599 156.752 0 156.621 0 156.484C0 156.347 0.0571599 156.215 0.158906 156.118C0.260652 156.022 0.398649 155.967 0.54254 155.967H439.457C439.601 155.967 439.739 156.022 439.841 156.118C439.943 156.215 440 156.347 440 156.484C440 156.621 439.943 156.752 439.841 156.849C439.739 156.946 439.601 157 439.457 157Z" fill="#CBCBCB"/>
</svg>
