<svg width="230" height="230" viewBox="0 0 230 230" fill="none" xmlns="http://www.w3.org/2000/svg">
<g clip-path="url(#clip0_69_5599)">
<path d="M230 115C230.014 127.575 227.963 140.067 223.927 151.977C223.695 152.657 223.458 153.336 223.216 154.012C218.942 165.83 212.762 176.87 204.921 186.691C202.58 189.628 200.1 192.442 197.48 195.136C194.86 197.834 192.11 200.401 189.229 202.835C173.161 216.462 153.643 225.386 132.825 228.625H132.822C130.168 229.037 127.488 229.358 124.782 229.588C121.56 229.861 118.299 229.998 115 230C99.6578 230.02 84.4676 226.96 70.3296 221.002C56.1916 215.044 43.3934 206.308 32.6934 195.313C31.9415 194.544 31.2009 193.764 30.4716 192.972C28.6548 191.002 26.9071 188.971 25.2286 186.878C24.2861 185.701 23.3664 184.506 22.4693 183.292C16.9435 175.827 12.346 167.718 8.77814 159.142C7.2566 155.49 5.92785 151.76 4.79738 147.969C4.71572 147.7 4.63746 147.431 4.55921 147.163C4.38909 146.584 4.22465 146.002 4.06587 145.417C1.35933 135.505 -0.00809588 125.275 3.60564e-05 115C3.60564e-05 51.488 51.4881 0 115 0C178.512 0 230 51.488 230 115Z" fill="#F2F2F2"/>
<path d="M48.7722 68.7387C48.5942 69.8197 48.6553 70.9266 48.9514 71.9814C49.2474 73.0362 49.7711 74.0133 50.4856 74.8438C51.2001 75.6743 52.0879 76.3381 53.0867 76.7883C54.0855 77.2386 55.1708 77.4643 56.2663 77.4498L74.6235 130.864L86.3368 122.814L63.7251 69.3166C63.5786 67.4779 62.7628 65.7568 61.4321 64.4795C60.1015 63.2022 58.3485 62.4573 56.5054 62.3861C54.6622 62.3148 52.857 62.9222 51.4317 64.093C50.0065 65.2638 49.0602 66.9168 48.7722 68.7387Z" fill="#A0616A"/>
<path d="M144.585 86.8114C136.433 96.0862 116.332 112.431 99.7727 123.686C96.1934 126.119 92.7775 128.31 89.6847 130.144C87.5957 131.382 85.6529 132.454 83.9041 133.329C82.7303 133.913 81.4485 134.249 80.1389 134.316C78.8292 134.382 77.52 134.177 76.2931 133.714C75.0663 133.251 73.9483 132.539 73.0092 131.624C72.0701 130.709 71.3302 129.61 70.8356 128.395L59.3696 100.656L63.3368 98.0256L73.1186 91.5372L75.3403 90.0674L84.5131 111.914L94.186 104.15L100.191 99.3287L127.567 77.3596L129.928 76.6587L135.436 82.0344L139.332 85.8383L142.996 86.4745C143.544 86.5698 144.075 86.6821 144.585 86.8114Z" fill="#6C63FF"/>
<path d="M217.724 163.029C218.292 163.75 218.881 164.468 219.47 165.189C217.442 169.352 215.163 173.388 212.644 177.274C212.457 177.142 212.27 177.009 212.083 176.876C212.053 176.86 212.025 176.842 211.998 176.822C211.3 176.325 210.6 175.835 209.902 175.338V175.335C209.327 173.377 209.005 171.353 208.946 169.313C209.306 169.23 209.631 169.039 209.879 168.765C210.126 168.491 210.284 168.148 210.329 167.782C210.375 167.416 210.307 167.044 210.134 166.718C209.962 166.392 209.693 166.126 209.365 165.958C209.273 165.798 209.208 165.682 209.116 165.519C209.12 165.478 209.126 165.434 209.13 165.393C209.664 161.144 215.081 159.66 217.724 163.029Z" fill="white"/>
<path d="M223.831 148.466C224.24 149.589 224.612 150.724 224.947 151.872C224.716 152.553 224.479 153.231 224.236 153.907C224.145 153.55 224.049 153.192 223.951 152.835C223.397 150.849 222.733 148.895 221.96 146.983C221.327 145.415 220.626 143.879 219.858 142.376C215.676 134.213 209.617 127.158 202.179 121.792C199.105 121.081 196.322 119.445 194.207 117.103C193.444 116.262 192.806 115.316 192.312 114.293C192.625 114.249 192.938 114.188 193.244 114.123C193.339 114.103 193.438 114.079 193.533 114.058L193.571 114.052C193.906 113.974 194.211 113.801 194.45 113.554C194.689 113.307 194.851 112.996 194.918 112.659C194.984 112.322 194.952 111.973 194.825 111.654C194.697 111.335 194.48 111.059 194.2 110.86C194.027 110.734 193.85 110.612 193.676 110.489C193.411 110.295 193.142 110.112 192.873 109.921C192.845 109.903 192.818 109.884 192.792 109.863C192.485 109.645 192.179 109.435 191.876 109.213C192.111 108.455 192.518 107.761 193.064 107.186C194.966 105.222 198.361 105.267 200.58 106.866C202.801 108.465 203.917 111.265 204.06 113.994C204.186 116.331 203.683 118.645 203.019 120.9C203.186 121.023 203.359 121.139 203.526 121.265C206.589 123.535 209.422 126.1 211.984 128.923C210.504 125.412 209.967 120.832 210.351 117.678C210.79 114.086 212.536 110.673 213.965 107.274C215.676 103.191 221.514 103.137 223.161 107.247C223.178 107.288 223.195 107.325 223.209 107.366C222.933 107.641 222.668 107.927 222.413 108.223C222.092 108.596 221.892 109.057 221.838 109.546C221.784 110.035 221.879 110.528 222.11 110.962C222.342 111.396 222.698 111.75 223.134 111.978C223.57 112.205 224.065 112.296 224.553 112.238L224.604 112.231C224.816 113.444 224.937 114.671 224.964 115.902C225.007 119.347 224.337 122.762 222.997 125.936C221.658 129.109 219.677 131.971 217.18 134.343C217.017 134.496 216.857 134.646 216.69 134.792C218.266 137.034 219.682 139.384 220.926 141.825C222.03 143.977 223.001 146.195 223.831 148.466Z" fill="white"/>
<path d="M158.273 116.548L157.246 187.117L74.2415 184.735L87.4971 155.475C87.4018 154.535 93.3151 147.945 93.2811 146.969C93.179 144.107 95.3157 141.457 95.6627 138.463C96.3704 132.287 92.3182 108.968 94.1861 104.15C94.9818 101.998 96.0013 99.9367 97.2278 97.9984C98.2894 96.3925 99.3781 95.3105 100.419 94.9192L103.488 87.7675L106.21 83.6846L127.567 77.3596L129.928 76.6587L135.436 82.0345L139.332 85.8383L142.996 86.4746C143.544 86.5698 144.075 86.6821 144.585 86.8114C147.043 87.3782 149.334 88.5132 151.274 90.1253C157.671 95.5589 158.416 105.78 158.273 116.548Z" fill="#6C63FF"/>
<path d="M205.942 186.587C203.601 189.523 201.121 192.338 198.501 195.031L189.525 195.038L141.256 195.092L132.566 195.103L126.789 195.109L118.195 195.116L111.584 195.123L99.3729 195.137L92.1701 195.147L77.0024 195.161L69.7621 195.171L49.6984 195.191L37.096 195.205L33.7141 195.208C32.9621 194.439 32.2216 193.659 31.4923 192.867C29.6755 190.897 27.9278 188.866 26.2493 186.774L33.2513 186.767L38.0215 186.763L49.0655 186.75L70.378 186.729L77.5808 186.723L80.4932 186.719H80.5034L82.7898 186.716L83.8139 186.712L86.4371 186.709H87.5463L95.3241 186.702L112.101 186.682L119.484 186.675L126.554 186.668L133.182 186.661L142.692 186.651L193.482 186.6L205.942 186.587Z" fill="#CCCCCC"/>
<path d="M91.1037 80.6265L91.0852 80.6283C90.1037 80.7197 89.1261 80.4173 88.3674 79.7879C87.6088 79.1584 87.1313 78.2533 87.0399 77.2718L85.1051 56.6196C84.7548 52.9199 85.1521 49.1875 86.2732 45.6444C88.4707 38.7293 93.252 32.9289 99.6206 29.452C102.909 27.6615 106.526 26.5554 110.253 26.2003C125.503 24.7475 131.075 27.9234 140.495 51.1809C149.915 74.4384 142.433 71.8646 142.433 71.8646C142.48 72.3623 142.427 72.8644 142.276 73.341C141.979 74.2708 141.335 75.0502 140.477 75.5162C140.037 75.7548 139.554 75.9025 139.056 75.9505C121.028 80.533 102.837 85.3566 91.1006 80.6268L91.1037 80.6265Z" fill="#2F2E41"/>
<path d="M124.658 45.7689C126.921 49.1172 128.141 53.0611 128.164 57.1024C128.187 61.1436 127.012 65.1011 124.787 68.4748C122.562 71.8486 119.388 74.4874 115.664 76.0579C111.94 77.6284 107.835 78.0602 103.866 77.2988C101.238 76.8033 98.7355 75.7914 96.5021 74.3216C94.2686 72.8519 92.3491 70.9536 90.8545 68.7367C88.5963 65.3895 87.3796 61.4486 87.358 57.4109C87.3363 53.3732 88.5106 49.4195 90.7328 46.0482C92.955 42.677 96.1256 40.0392 99.8449 38.4674C103.564 36.8955 107.666 36.4601 111.632 37.216C114.261 37.7086 116.767 38.7183 119.003 40.1866C121.239 41.655 123.161 43.5527 124.659 45.7697L124.658 45.7689Z" fill="#9E616A"/>
<path d="M78.7125 58.914C78.4357 55.988 78.7499 53.0361 79.6365 50.2339C79.8421 43.3791 81.8309 37.1703 90.1916 37.4309C92.776 36.025 95.6168 35.1533 98.5449 34.8676L102.676 34.4597C102.723 34.455 102.769 34.4506 102.816 34.4462C105.678 34.1798 108.565 34.4799 111.311 35.3291C114.058 36.1784 116.61 37.5603 118.823 39.396C121.035 41.2316 122.864 43.4851 124.206 46.0277C125.547 48.5703 126.375 51.3522 126.641 54.2146L126.68 54.6283L117.939 55.4828L114.177 47.4322L114.363 55.8341L109.848 56.2772L107.951 52.2155L108.043 56.4517C101.34 62.3553 91.1758 62.6648 78.7551 59.3281L78.7125 58.914Z" fill="#2F2E41"/>
<path d="M106.673 78.5114C106.598 79.1919 106.716 79.8795 107.014 80.4962C107.163 80.8121 107.356 81.1054 107.588 81.3676C107.785 81.5909 108.009 81.7901 108.253 81.961C108.977 82.4652 109.857 82.6948 110.736 82.6087C110.79 82.603 110.845 82.5964 110.899 82.5887C110.954 82.581 111.008 82.572 111.063 82.5618C111.117 82.552 111.172 82.5407 111.226 82.5279C111.28 82.5151 111.334 82.5013 111.388 82.4864L114.439 81.6315L117.858 72.0983L118.642 80.4636L132.514 76.6013L129.189 41.1027L105.544 43.4325L106.192 44.0569C108.347 46.1541 109.881 48.805 110.626 51.7179C111.366 54.6697 111.594 57.7264 111.301 60.7553C111.027 63.818 110.46 66.8473 109.608 69.8016C108.865 72.4176 107.973 74.9887 106.935 77.5021C106.801 77.8246 106.713 78.1643 106.673 78.5114Z" fill="#2F2E41"/>
<path d="M109.826 190.434C109.419 190.433 109.018 190.342 108.651 190.168L43.1484 191.839C42.6457 191.601 42.2271 191.216 41.9479 190.735C41.6686 190.254 41.5418 189.7 41.5842 189.145C41.6266 188.591 41.8362 188.062 42.1853 187.629C42.5344 187.196 43.0067 186.879 43.5397 186.72L86.3931 173.943C86.8369 173.81 87.3069 173.792 87.7595 173.89L154.046 181.97C154.633 182.097 155.162 182.412 155.553 182.867C155.943 183.323 156.174 183.894 156.21 184.493C156.245 185.092 156.084 185.686 155.75 186.185C155.417 186.684 154.929 187.06 154.362 187.255L110.723 190.282C110.435 190.382 110.131 190.433 109.826 190.434Z" fill="#3F3D56"/>
<path d="M112.235 185.874C111.939 185.874 111.648 185.798 111.39 185.654L58.1924 188.139C57.8903 187.97 57.6463 187.713 57.492 187.403C57.3377 187.093 57.2804 186.744 57.3276 186.401C57.3747 186.057 57.524 185.736 57.7562 185.479C57.9883 185.222 58.2925 185.041 58.629 184.959L77.8877 180.285C78.1883 180.212 78.5028 180.222 78.7986 180.312L128.253 180.252C128.605 180.36 128.914 180.578 129.133 180.873C129.353 181.169 129.472 181.527 129.473 181.895C129.474 182.264 129.358 182.622 129.14 182.92C128.923 183.217 128.616 183.437 128.265 183.547L112.749 185.795C112.583 185.847 112.409 185.874 112.235 185.874Z" fill="#2F2E41"/>
<path d="M106.635 183.038C107.556 183.632 108.596 184.017 109.681 184.165C110.767 184.313 111.872 184.222 112.918 183.897C113.964 183.572 114.926 183.022 115.737 182.285C116.548 181.548 117.187 180.642 117.61 179.631L173.917 184.054L171.195 170.105L113.118 169.551C111.373 168.954 109.469 169.017 107.768 169.729C106.066 170.442 104.685 171.753 103.886 173.416C103.087 175.078 102.926 176.976 103.432 178.749C103.939 180.523 105.079 182.049 106.635 183.038Z" fill="#A0616A"/>
<path d="M139.894 92.1905C139.894 92.1905 148.399 85.3858 158.607 97.6343C165.49 105.895 178.769 155.83 179.87 176.522C179.939 177.832 179.738 179.141 179.278 180.369C178.817 181.597 178.109 182.717 177.195 183.658C176.282 184.599 175.185 185.341 173.971 185.838C172.758 186.335 171.455 186.576 170.144 186.546L140.132 186.024L136.776 167.158L160.471 167.438L139.894 92.1905Z" fill="#6C63FF"/>
<path d="M106.182 190.441C105.153 190.44 104.134 190.234 103.185 189.834L42.4723 191.22C40.87 190.551 39.5399 189.362 38.6971 187.844C37.8543 186.327 37.548 184.569 37.8277 182.856L35.5718 129.537C35.871 127.632 36.8734 125.909 38.3811 124.708C39.8888 123.506 41.7921 122.914 43.7154 123.047L100.08 125.385C101.162 125.456 102.217 125.753 103.176 126.258C104.136 126.763 104.979 127.464 105.65 128.316C106.321 129.167 106.806 130.15 107.073 131.201C107.339 132.252 107.382 133.348 107.199 134.416L113.802 184.012C113.492 185.809 112.558 187.439 111.164 188.615C109.77 189.791 108.006 190.438 106.182 190.441Z" fill="#3F3D56"/>
<path d="M60.0808 31.6998L34.7434 31.6284C34.0642 31.6276 33.4125 31.8961 32.9309 32.3751C32.4494 32.854 32.1774 33.5044 32.1746 34.1836L32.0828 67.7343C32.0813 68.4128 32.3493 69.0641 32.8278 69.5451C33.3062 70.0261 33.9561 70.2975 34.6345 70.2997L48.6897 70.3405L59.9754 70.3711C60.6544 70.3724 61.3061 70.1039 61.7871 69.6247C62.2682 69.1456 62.5393 68.495 62.5408 67.816L62.5476 65.8324L62.636 34.2686C62.6374 33.5893 62.3691 32.9372 61.89 32.4555C61.4109 31.9739 60.7602 31.7021 60.0808 31.6998Z" fill="#E6E6E6"/>
<path d="M58.2946 33.7038L36.5195 33.6426C35.8836 33.6418 35.2734 33.8931 34.8225 34.3414C34.3716 34.7898 34.1168 35.3986 34.114 36.0344L34.0527 57.6054C34.0485 60.4383 35.168 63.1572 37.1657 65.1657C39.1634 67.1742 41.8761 68.3084 44.709 68.3195L48.8462 68.3297L58.1993 68.3569C58.8354 68.3583 59.446 68.1072 59.897 67.6587C60.348 67.2103 60.6026 66.6011 60.6048 65.9651L60.6116 63.7944L60.6865 36.1093C60.6879 35.4733 60.4367 34.8627 59.9883 34.4117C59.5398 33.9606 58.9306 33.706 58.2946 33.7038Z" fill="white"/>
<path d="M55.8484 48.4429H38.8706C38.7368 48.4429 38.6042 48.4692 38.4806 48.5204C38.357 48.5716 38.2446 48.6467 38.15 48.7413C38.0554 48.836 37.9803 48.9483 37.9291 49.0719C37.8779 49.1955 37.8516 49.3281 37.8516 49.4619C37.8516 49.5957 37.8779 49.7282 37.9291 49.8518C37.9803 49.9755 38.0554 50.0878 38.15 50.1824C38.2446 50.2771 38.357 50.3521 38.4806 50.4033C38.6042 50.4545 38.7368 50.4809 38.8706 50.4809H55.8484C56.1186 50.4809 56.3778 50.3735 56.5689 50.1824C56.76 49.9913 56.8674 49.7321 56.8674 49.4619C56.8674 49.1916 56.76 48.9324 56.5689 48.7413C56.3778 48.5502 56.1186 48.4429 55.8484 48.4429Z" fill="#6C63FF"/>
<path d="M42.603 42.8562H38.8706C38.6003 42.8562 38.3411 42.9636 38.15 43.1547C37.9589 43.3458 37.8516 43.605 37.8516 43.8752C37.8516 44.1455 37.9589 44.4047 38.15 44.5958C38.3411 44.7869 38.6003 44.8942 38.8706 44.8942H42.603C42.8732 44.8942 43.1324 44.7869 43.3235 44.5958C43.5146 44.4047 43.622 44.1455 43.622 43.8752C43.622 43.605 43.5146 43.3458 43.3235 43.1547C43.1324 42.9636 42.8732 42.8562 42.603 42.8562Z" fill="#6C63FF"/>
<path d="M55.8484 57.4013H38.8706C38.6003 57.4013 38.3411 57.5087 38.15 57.6998C37.9589 57.8909 37.8516 58.1501 37.8516 58.4203C37.8516 58.6906 37.9589 58.9498 38.15 59.1409C38.3411 59.332 38.6003 59.4394 38.8706 59.4394H55.8484C56.1186 59.4394 56.3778 59.332 56.5689 59.1409C56.76 58.9498 56.8674 58.6906 56.8674 58.4203C56.8674 58.1501 56.76 57.8909 56.5689 57.6998C56.3778 57.5087 56.1186 57.4013 55.8484 57.4013Z" fill="#6C63FF"/>
<path d="M55.8481 52.9238H38.8703C38.6005 52.9238 38.3418 53.031 38.151 53.2218C37.9602 53.4125 37.853 53.6713 37.853 53.9411C37.853 54.2109 37.9602 54.4697 38.151 54.6605C38.3418 54.8512 38.6005 54.9584 38.8703 54.9584H55.8481C56.1179 54.9584 56.3767 54.8512 56.5675 54.6605C56.7583 54.4697 56.8654 54.2109 56.8654 53.9411C56.8654 53.6713 56.7583 53.4125 56.5675 53.2218C56.3767 53.031 56.1179 52.9238 55.8481 52.9238Z" fill="#6C63FF"/>
<path d="M52.5493 46.4594C51.3571 46.4594 50.1917 46.1059 49.2004 45.4436C48.2091 44.7812 47.4366 43.8398 46.9803 42.7384C46.5241 41.637 46.4047 40.425 46.6373 39.2557C46.8699 38.0864 47.444 37.0124 48.287 36.1694C49.13 35.3264 50.204 34.7523 51.3733 34.5197C52.5426 34.2871 53.7546 34.4065 54.856 34.8627C55.9574 35.319 56.8988 36.0916 57.5612 37.0828C58.2235 38.0741 58.577 39.2395 58.577 40.4317C58.5752 42.0298 57.9396 43.5619 56.8095 44.6919C55.6795 45.822 54.1474 46.4576 52.5493 46.4594ZM52.5493 34.8228C51.4399 34.8228 50.3555 35.1517 49.4331 35.7681C48.5108 36.3844 47.7918 37.2603 47.3673 38.2852C46.9428 39.3101 46.8317 40.4379 47.0481 41.5259C47.2645 42.6139 47.7987 43.6133 48.5832 44.3977C49.3676 45.1822 50.367 45.7164 51.455 45.9328C52.543 46.1492 53.6708 46.0381 54.6957 45.6136C55.7205 45.1891 56.5965 44.4702 57.2129 43.5478C57.8292 42.6254 58.1581 41.541 58.1581 40.4317C58.1564 38.9446 57.565 37.519 56.5135 36.4675C55.462 35.416 54.0363 34.8245 52.5493 34.8228Z" fill="#6C63FF"/>
<path d="M55.0808 42.7664C54.6644 40.6169 53.7973 38.5799 52.5364 36.7898C52.508 36.7434 52.4681 36.7051 52.4206 36.6785C52.3731 36.6519 52.3196 36.6379 52.2652 36.6379C52.2107 36.6379 52.1572 36.6519 52.1097 36.6785C52.0622 36.7051 52.0223 36.7434 51.9939 36.7898C50.8958 38.7104 50.1939 40.8317 49.9297 43.0283C49.8809 43.4287 50.5096 43.4252 50.558 43.0283C50.6463 42.3164 50.784 41.6116 50.9699 40.9188C50.994 40.9141 51.0175 40.9069 51.0401 40.8973C51.8756 40.4779 52.8195 40.3241 53.7449 40.4569C53.753 40.4581 53.7608 40.4563 53.7688 40.4571C54.0744 41.2609 54.3106 42.0894 54.4749 42.9335C54.5515 43.3301 55.1572 43.1622 55.0808 42.7664ZM51.1961 40.1483C51.4845 39.2535 51.8517 38.3862 52.2933 37.5563C52.7607 38.2704 53.1666 39.023 53.5065 39.8059C52.7205 39.7468 51.9312 39.8637 51.1961 40.1483Z" fill="#6C63FF"/>
</g>
<defs>
<clipPath id="clip0_69_5599">
<rect width="230" height="230" fill="white"/>
</clipPath>
</defs>
</svg>
