<svg width="232" height="205" viewBox="0 0 232 205" fill="none" xmlns="http://www.w3.org/2000/svg">
<g clip-path="url(#clip0_117_1261)">
<path d="M1.30007 45.9999C0.845776 46.1261 0.460713 46.4251 0.229352 46.8313C-0.00200915 47.2375 -0.0607792 47.7178 0.0659365 48.1668L29.8232 153.127C29.951 153.575 30.2537 153.956 30.6651 154.184C31.0764 154.413 31.5627 154.471 32.0172 154.346L141.718 124.008C142.172 123.882 142.557 123.583 142.788 123.177C143.02 122.77 143.078 122.29 142.952 121.841L113.195 16.8812C113.067 16.4325 112.764 16.0522 112.353 15.8237C111.941 15.5952 111.455 15.5371 111 15.6623L1.30007 45.9999Z" fill="#E6E6E6"/>
<path d="M33.3959 149.389L137.933 120.48L109.622 20.6186L5.08423 49.5284L33.3959 149.389Z" fill="white"/>
<path d="M18.9053 62.8627C18.2078 63.0556 17.9202 64.1998 18.2643 65.4132C18.6083 66.6267 19.4557 67.4571 20.1531 67.2642L67.8312 54.0789C68.5286 53.886 68.8162 52.7418 68.4722 51.5283C68.1281 50.3148 67.2808 49.4845 66.5833 49.6774L18.9053 62.8627Z" fill="#E6E6E6"/>
<path d="M22.7451 76.4058C22.0476 76.5987 21.7601 77.743 22.1041 78.9564C22.4482 80.1699 23.2955 81.0002 23.993 80.8074L71.671 67.622C72.3685 67.4292 72.656 66.2849 72.312 65.0715C71.968 63.858 71.1206 63.0276 70.4231 63.2205L22.7451 76.4058Z" fill="#E6E6E6"/>
<path d="M26.5403 89.7929C25.8428 89.9857 25.5553 91.13 25.8993 92.3434C26.2433 93.5569 27.0907 94.3873 27.7882 94.1944L75.4662 81.0091C76.1637 80.8162 76.4512 79.672 76.1072 78.4585C75.7631 77.245 74.9158 76.4147 74.2183 76.6075L26.5403 89.7929Z" fill="#E6E6E6"/>
<path d="M30.3799 103.336C29.6824 103.529 29.3949 104.673 29.7389 105.887C30.0829 107.1 30.9303 107.93 31.6278 107.738L79.3058 94.5522C80.0033 94.3593 80.2908 93.2151 79.9468 92.0016C79.6027 90.7882 78.7554 89.9578 78.0579 90.1507L30.3799 103.336Z" fill="#E6E6E6"/>
<path d="M90.7795 43.1421C90.4866 43.2228 90.2126 43.3597 89.9733 43.545C89.734 43.7302 89.534 43.9603 89.3847 44.222C89.2355 44.4837 89.1399 44.7719 89.1035 45.0701C89.0672 45.3682 89.0906 45.6706 89.1726 45.9598C89.2546 46.249 89.3935 46.5195 89.5814 46.7556C89.7693 46.9918 90.0025 47.1891 90.2676 47.3361C90.5328 47.4832 90.8246 47.5773 91.1266 47.6129C91.4286 47.6485 91.7347 47.625 92.0274 47.5436L100.941 45.0787C101.532 44.9153 102.033 44.5267 102.333 43.9984C102.634 43.4701 102.71 42.8454 102.545 42.2617C102.379 41.678 101.986 41.1832 101.451 40.886C100.916 40.5889 100.284 40.5137 99.6927 40.6772L90.7795 43.1421Z" fill="#E6E6E6"/>
<path d="M94.5447 56.4227C94.2517 56.5034 93.9778 56.6403 93.7384 56.8256C93.4991 57.0109 93.2991 57.2409 93.1499 57.5026C93.0006 57.7643 92.9051 58.0525 92.8687 58.3507C92.8323 58.6489 92.8558 58.9512 92.9378 59.2405C93.0198 59.5297 93.1587 59.8001 93.3466 60.0363C93.5344 60.2724 93.7676 60.4697 94.0328 60.6168C94.2979 60.7639 94.5898 60.8579 94.8917 60.8935C95.1937 60.9291 95.4998 60.9056 95.7926 60.8243L104.706 58.3594C105.297 58.1959 105.798 57.8073 106.099 57.279C106.399 56.7507 106.476 56.126 106.31 55.5423C106.145 54.9587 105.751 54.4638 105.216 54.1667C104.681 53.8695 104.049 53.7944 103.458 53.9578L94.5447 56.4227Z" fill="#E6E6E6"/>
<path d="M98.3099 69.7034C98.0173 69.7843 97.7437 69.9214 97.5047 70.1067C97.2657 70.2921 97.066 70.5221 96.917 70.7837C96.768 71.0453 96.6727 71.3333 96.6364 71.6313C96.6001 71.9293 96.6236 72.2314 96.7056 72.5204C96.7875 72.8094 96.9263 73.0796 97.114 73.3157C97.3017 73.5517 97.5345 73.7489 97.7994 73.8961C98.0643 74.0432 98.3559 74.1374 98.6576 74.1732C98.9593 74.2091 99.2652 74.1858 99.5578 74.1049L108.471 71.64C109.062 71.4766 109.563 71.0879 109.864 70.5597C110.165 70.0314 110.241 69.4067 110.075 68.823C109.91 68.2393 109.516 67.7445 108.981 67.4473C108.447 67.1502 107.814 67.075 107.223 67.2385L98.3099 69.7034Z" fill="#E6E6E6"/>
<path d="M102.075 82.9841C101.485 83.148 100.985 83.5368 100.684 84.0648C100.384 84.5929 100.308 85.2171 100.473 85.8003C100.639 86.3836 101.032 86.8782 101.566 87.1754C102.1 87.4726 102.732 87.5482 103.323 87.3856L112.236 84.9207C112.827 84.7567 113.327 84.368 113.627 83.8399C113.928 83.3118 114.003 82.6876 113.838 82.1044C113.673 81.5211 113.28 81.0266 112.745 80.7293C112.211 80.4321 111.579 80.3565 110.988 80.5191L102.075 82.9841Z" fill="#E6E6E6"/>
<path d="M105.672 106.004C105.299 106.107 104.95 106.281 104.645 106.517C104.34 106.753 104.085 107.047 103.895 107.38C103.705 107.713 103.583 108.081 103.537 108.461C103.49 108.841 103.52 109.226 103.625 109.594C103.729 109.963 103.906 110.307 104.146 110.608C104.385 110.909 104.682 111.161 105.02 111.348C105.358 111.535 105.73 111.655 106.115 111.701C106.499 111.746 106.889 111.716 107.262 111.612L118.62 108.472C119.373 108.263 120.011 107.768 120.395 107.095C120.778 106.422 120.875 105.626 120.664 104.882C120.453 104.138 119.952 103.508 119.27 103.129C118.589 102.751 117.783 102.655 117.03 102.863L105.672 106.004Z" fill="#6C63FF"/>
<path d="M117.361 94.6771L33.3186 117.919L33.5278 118.657L117.57 95.415L117.361 94.6771Z" fill="#E6E6E6"/>
<path d="M201.78 193.874L195.04 195.483L185.547 170.572L195.495 168.197L201.78 193.874Z" fill="#A0616A"/>
<path d="M183.411 205L183.365 204.814C182.831 202.621 183.199 200.308 184.39 198.383C185.58 196.458 187.495 195.077 189.714 194.545L202.902 191.396L204.972 199.852L183.411 205Z" fill="#2F2E41"/>
<path d="M171.941 198.409L165.007 198.409L161.708 171.992L171.942 171.992L171.941 198.409Z" fill="#A0616A"/>
<path d="M173.621 204.96L151.439 204.959V204.768C151.439 202.511 152.347 200.348 153.962 198.752C155.578 197.157 157.769 196.26 160.054 196.26H160.054L173.621 196.261L173.621 204.96Z" fill="#2F2E41"/>
<path d="M161.702 188.096L154.969 108.845L182.842 103.771L182.952 103.751L191.11 108.93L188.27 138.097L201.344 183.57L190.055 186.504L176.961 144.33L173.964 131.506L172.429 148.171L173.569 189.268L161.702 188.096Z" fill="#2F2E41"/>
<path d="M154.106 110.642L154.032 110.55L163.664 38.9276L163.676 38.8337L163.744 38.7666C163.886 38.6264 167.261 35.333 170.732 35.333C171.234 35.333 171.711 35.3204 172.168 35.309C174.824 35.2408 176.923 35.1862 179.416 37.6494C181.957 40.1583 190.246 49.3202 190.246 61.8683C190.246 74.0138 191.366 111.758 191.377 112.138L191.393 112.671L190.94 112.38C190.828 112.309 179.68 105.298 170.329 111.815C167.407 113.852 164.782 114.566 162.538 114.566C157.314 114.566 154.151 110.699 154.106 110.642Z" fill="#6C63FF"/>
<path d="M175.921 29.4233C182.654 25.7885 185.128 17.4518 181.448 10.8026C177.767 4.1535 169.326 1.70985 162.594 5.3446C155.862 8.97935 153.387 17.3161 157.068 23.9652C160.748 30.6144 169.189 33.058 175.921 29.4233Z" fill="#A0616A"/>
<path d="M147.991 126.035C148.648 125.532 149.186 124.892 149.566 124.162C149.946 123.431 150.159 122.627 150.191 121.807C150.222 120.986 150.071 120.169 149.748 119.412C149.425 118.655 148.938 117.978 148.321 117.427L156.21 99.0475L145.88 100.925L139.972 118.091C139.104 119.176 138.669 120.537 138.749 121.918C138.83 123.298 139.42 124.601 140.409 125.58C141.397 126.56 142.715 127.147 144.112 127.23C145.51 127.314 146.89 126.889 147.991 126.035H147.991Z" fill="#A0616A"/>
<path d="M140.369 111.738L142.909 106.441C142.752 106.347 142.623 106.215 142.534 106.057C140.16 101.994 154.497 68.2556 155.453 66.0178C155.307 64.8007 153.802 51.9029 154.903 47.5554C156.198 42.4377 158.858 40.0525 163.797 39.5801C169.243 39.0749 170.713 46.3798 170.727 46.454L170.732 65.2333L164.481 86.8506L150.226 115.573L140.369 111.738Z" fill="#6C63FF"/>
<path d="M171.034 22.5532C169.369 22.7672 168.112 21.0843 167.53 19.5287C166.947 17.9731 166.503 16.162 165.055 15.3217C163.077 14.1737 160.546 15.5545 158.284 15.1757C155.729 14.7479 154.068 12.074 153.938 9.51814C153.808 6.96229 154.838 4.50413 155.848 2.14767L156.201 5.07621C156.154 4.08365 156.365 3.09574 156.815 2.20697C157.265 1.31821 157.938 0.558309 158.771 -3.05176e-05L158.316 4.29716C158.601 1.88977 161.227 0.0243616 163.629 0.523248L163.557 3.08366C166.508 2.73715 169.484 2.39014 172.443 2.65414C175.403 2.91813 178.383 3.84288 180.626 5.76775C183.981 8.64705 185.206 13.3882 184.795 17.7591C184.383 22.1301 182.556 26.2363 180.652 30.2029C180.173 31.201 179.511 32.3271 178.4 32.4543C177.402 32.5685 176.488 31.7444 176.178 30.8006C175.868 29.8567 176.019 28.8312 176.205 27.856C176.486 26.3827 176.84 24.8768 176.576 23.4004C176.312 21.9241 175.236 20.4653 173.729 20.2843C172.223 20.1034 170.681 21.8045 171.405 23.1219L171.034 22.5532Z" fill="#2F2E41"/>
<path d="M231.852 204.991H131.878V204.185H232L231.852 204.991Z" fill="#3F3D56"/>
</g>
<defs>
<clipPath id="clip0_117_1261">
<rect width="232" height="205" fill="white"/>
</clipPath>
</defs>
</svg>
