<svg width="332" height="220" viewBox="0 0 332 220" fill="none" xmlns="http://www.w3.org/2000/svg">
<path d="M18.3459 219.886C20.1532 219.347 21.8318 218.447 23.2794 217.239C24.727 216.032 25.9135 214.544 26.7665 212.865C27.6195 211.185 28.1214 209.35 28.2414 207.471C28.3614 205.592 28.0972 203.708 27.4647 201.934C26.1307 198.175 23.1073 195.405 21.3049 191.903C19.5394 188.467 19.1271 184.495 20.1492 180.771C21.1713 177.046 23.5538 173.839 26.8271 171.781C27.2031 171.543 27.5888 171.322 27.9843 171.118C28.3577 170.924 28.0274 170.36 27.6542 170.554C24.2768 172.304 21.6277 175.19 20.1748 178.701C18.722 182.211 18.5589 186.122 19.7143 189.741C20.3516 191.62 21.2735 193.39 22.4479 194.989C23.5758 196.6 24.8096 198.144 25.7841 199.856C26.7851 201.597 27.3866 203.537 27.5451 205.538C27.7036 207.539 27.4151 209.55 26.7005 211.426C26.0392 213.08 25.0535 214.587 23.8013 215.856C22.5491 217.126 21.0555 218.133 19.4082 218.818C19.004 218.986 18.5908 219.13 18.172 219.256C18.0911 219.282 18.0232 219.338 17.9826 219.412C17.942 219.486 17.9319 219.573 17.9545 219.655C17.977 219.737 18.0304 219.806 18.1034 219.849C18.1764 219.892 18.2634 219.906 18.3459 219.886L18.3459 219.886Z" fill="#F0F0F0"/>
<path d="M27.8373 177.211C31.4107 177.211 34.3074 174.319 34.3074 170.752C34.3074 167.185 31.4107 164.294 27.8373 164.294C24.2639 164.294 21.3671 167.185 21.3671 170.752C21.3671 174.319 24.2639 177.211 27.8373 177.211Z" fill="#F0F0F0"/>
<path d="M24.1978 193.358C26.4312 193.358 28.2417 191.551 28.2417 189.321C28.2417 187.092 26.4312 185.284 24.1978 185.284C21.9645 185.284 20.154 187.092 20.154 189.321C20.154 191.551 21.9645 193.358 24.1978 193.358Z" fill="#F0F0F0"/>
<path d="M226.176 118.565C224.369 118.026 222.691 117.125 221.243 115.918C219.795 114.711 218.609 113.223 217.756 111.543C216.903 109.864 216.401 108.029 216.281 106.15C216.161 104.271 216.425 102.387 217.058 100.613C218.392 96.8543 221.415 94.0836 223.217 90.5817C224.983 87.1456 225.395 83.174 224.373 79.4495C223.351 75.7251 220.969 72.5178 217.695 70.4597C217.319 70.222 216.933 70.001 216.538 69.7967C216.165 69.6026 216.495 69.0391 216.868 69.233C220.246 70.9832 222.895 73.8686 224.347 77.3795C225.8 80.8904 225.963 84.801 224.808 88.4203C224.171 90.2988 223.249 92.0687 222.074 93.6684C220.946 95.2789 219.713 96.8228 218.738 98.5351C217.737 100.276 217.136 102.216 216.977 104.217C216.819 106.218 217.107 108.229 217.822 110.104C218.483 111.759 219.469 113.266 220.721 114.535C221.973 115.805 223.467 116.812 225.114 117.497C225.518 117.665 225.932 117.809 226.35 117.935C226.431 117.961 226.499 118.016 226.54 118.091C226.58 118.165 226.59 118.252 226.568 118.334C226.545 118.416 226.492 118.485 226.419 118.528C226.346 118.571 226.259 118.585 226.176 118.565H226.176Z" fill="#F0F0F0"/>
<path d="M216.685 75.89C220.258 75.89 223.155 72.9983 223.155 69.4312C223.155 65.8642 220.258 62.9725 216.685 62.9725C213.112 62.9725 210.215 65.8642 210.215 69.4312C210.215 72.9983 213.112 75.89 216.685 75.89Z" fill="#F0F0F0"/>
<path d="M220.324 92.0367C222.558 92.0367 224.368 90.2294 224.368 88C224.368 85.7705 222.558 83.9633 220.324 83.9633C218.091 83.9633 216.281 85.7705 216.281 88C216.281 90.2294 218.091 92.0367 220.324 92.0367Z" fill="#F0F0F0"/>
<path d="M167.468 52.0583H166.262V19.0844C166.262 16.5782 165.767 14.0966 164.807 11.7811C163.846 9.4657 162.438 7.36185 160.662 5.5897C158.887 3.81755 156.78 2.4118 154.46 1.45272C152.141 0.493638 149.654 2.12046e-06 147.144 0H77.1603C72.0899 -9.63536e-06 67.2271 2.01065 63.6417 5.58966C60.0564 9.16867 58.0421 14.0229 58.0421 19.0844V199.982C58.0421 202.488 58.5366 204.97 59.4974 207.285C60.4582 209.6 61.8664 211.704 63.6417 213.476C65.417 215.249 67.5245 216.654 69.8441 217.613C72.1636 218.573 74.6497 219.066 77.1603 219.066H147.144C152.214 219.066 157.077 217.056 160.662 213.477C164.248 209.897 166.262 205.043 166.262 199.982V75.5297H167.468V52.0583Z" fill="#CACACA"/>
<path d="M147.915 4.9651H138.78C139.2 5.99323 139.361 7.10872 139.247 8.21329C139.133 9.31786 138.75 10.3776 138.129 11.2992C137.509 12.2208 136.671 12.9759 135.689 13.4981C134.707 14.0202 133.612 14.2934 132.5 14.2935H92.4072C91.2949 14.2934 90.1996 14.0202 89.218 13.4981C88.2363 12.9759 87.3983 12.2208 86.7779 11.2992C86.1574 10.3776 85.7735 9.31786 85.66 8.21328C85.5465 7.10871 85.7069 5.99322 86.127 4.96509H77.5947C75.7198 4.96509 73.8632 5.33373 72.131 6.04996C70.3988 6.76619 68.8249 7.81598 67.4992 9.1394C66.1734 10.4628 65.1217 12.034 64.4042 13.7631C63.6867 15.4922 63.3174 17.3455 63.3174 19.2171V199.849C63.3174 201.721 63.6867 203.574 64.4042 205.303C65.1217 207.032 66.1734 208.603 67.4992 209.927C68.8249 211.25 70.3988 212.3 72.131 213.016C73.8632 213.732 75.7198 214.101 77.5947 214.101H147.915C149.79 214.101 151.647 213.732 153.379 213.016C155.111 212.3 156.685 211.25 158.011 209.927C159.337 208.603 160.388 207.032 161.106 205.303C161.823 203.574 162.192 201.721 162.192 199.849V19.2171C162.192 17.3455 161.823 15.4922 161.106 13.7631C160.388 12.034 159.337 10.4628 158.011 9.13941C156.685 7.81599 155.111 6.76619 153.379 6.04996C151.647 5.33373 149.79 4.9651 147.915 4.9651Z" fill="white"/>
<path d="M140.81 157.207C128.607 156.988 128.609 138.885 140.81 138.668C153.013 138.887 153.011 156.99 140.81 157.207Z" fill="white"/>
<path d="M140.81 157.207C128.607 156.988 128.609 138.885 140.81 138.668C153.013 138.887 153.011 156.99 140.81 157.207ZM140.81 139.23C129.346 139.435 129.348 156.441 140.81 156.645C152.273 156.44 152.272 139.434 140.81 139.23Z" fill="#E6E6E6"/>
<path d="M142.793 143.186C140.504 143.252 136.052 142.435 136.05 145.958C136.116 148.243 135.297 152.687 138.827 152.689C141.116 152.623 145.568 153.44 145.57 149.917C145.504 147.632 146.322 143.188 142.793 143.186Z" fill="#CACACA"/>
<path d="M143.388 145.958C143.233 145.953 143.087 145.889 142.979 145.778C142.871 145.667 142.811 145.518 142.812 145.364C142.812 145.209 142.873 145.061 142.981 144.951C143.089 144.84 143.236 144.776 143.391 144.772C143.545 144.777 143.692 144.842 143.8 144.953C143.907 145.063 143.968 145.212 143.967 145.366C143.967 145.521 143.906 145.669 143.798 145.78C143.69 145.89 143.543 145.954 143.388 145.958Z" fill="white"/>
<path d="M140.81 146.354C142.869 146.323 142.869 149.552 140.81 149.521C138.751 149.551 138.751 146.323 140.81 146.354ZM140.81 145.562C137.722 145.517 137.722 150.359 140.81 150.313C143.898 150.358 143.898 145.516 140.81 145.562Z" fill="white"/>
<path d="M84.6254 157.207C72.4222 156.988 72.4242 138.885 84.6258 138.668C96.8285 138.887 96.8266 156.99 84.6254 157.207Z" fill="white"/>
<path d="M84.6254 157.207C72.4222 156.988 72.4242 138.885 84.6258 138.668C96.8285 138.887 96.8266 156.99 84.6254 157.207ZM84.6254 139.23C73.1618 139.435 73.1637 156.441 84.6258 156.645C96.089 156.44 96.0871 139.434 84.6254 139.23Z" fill="#E6E6E6"/>
<path d="M89.667 145.599C89.378 145.935 89.0638 146.249 88.7272 146.537C88.3106 151.061 85.4807 152.089 83.2084 152.089C81.5749 152.089 80.2287 151.558 80.2735 151.412C82.6972 151.469 82.9038 150.475 82.9038 150.475C81.4957 150.268 81.2134 149.35 81.2134 149.35C81.3397 149.416 81.4861 149.434 81.6245 149.399C81.763 149.365 81.8838 149.281 81.9639 149.163C81.5508 149.068 81.1876 148.824 80.9449 148.477C80.7021 148.13 80.5972 147.706 80.6505 147.286C80.9213 147.482 81.2378 147.605 81.5697 147.644C81.401 147.437 79.9792 145.736 80.8347 144.855C81.2847 145.492 81.8859 146.009 82.5846 146.358C83.2833 146.707 84.0577 146.878 84.8386 146.855C84.7799 146.568 84.7857 146.271 84.8556 145.986C84.9254 145.702 85.0576 145.436 85.2425 145.208C85.4275 144.98 85.6607 144.796 85.9254 144.669C86.1901 144.542 86.4797 144.475 86.7734 144.473C88.0885 144.473 88.3709 145.224 88.3709 145.224L89.3107 144.661C89.2917 144.661 89.1971 145.599 88.7272 145.786L89.667 145.599Z" fill="#CACACA"/>
<path d="M112.718 157.207C100.514 156.988 100.516 138.885 112.718 138.668C124.921 138.887 124.919 156.99 112.718 157.207Z" fill="white"/>
<path d="M112.718 157.207C100.515 156.988 100.516 138.885 112.718 138.668C124.921 138.887 124.919 156.99 112.718 157.207ZM112.718 139.23C101.254 139.435 101.256 156.441 112.718 156.645C124.181 156.44 124.179 139.434 112.718 139.23Z" fill="#E6E6E6"/>
<path d="M117.834 147.968C117.834 149.194 117.396 150.38 116.598 151.313C115.801 152.246 114.696 152.863 113.482 153.056V149.457H114.684L114.913 147.968H113.482C113.434 146.727 113.386 146.031 114.973 146.198V144.931C112.596 144.409 111.604 145.612 111.871 147.968H110.561V149.457H111.871V153.054C105.705 152.107 106.43 142.795 112.675 142.82C114.043 142.819 115.355 143.361 116.323 144.327C117.29 145.292 117.834 146.602 117.834 147.967V147.968Z" fill="#CACACA"/>
<path d="M148.31 102.952H77.1999C76.7615 102.952 76.3411 102.778 76.0311 102.468C75.7211 102.159 75.5467 101.739 75.5462 101.301V57.3903C75.5467 56.9526 75.7211 56.533 76.0311 56.2236C76.3411 55.9141 76.7615 55.74 77.1999 55.7395H148.31C148.748 55.74 149.169 55.9141 149.479 56.2236C149.789 56.533 149.963 56.9526 149.964 57.3903V101.301C149.963 101.739 149.789 102.159 149.479 102.468C149.169 102.778 148.748 102.952 148.31 102.952Z" fill="white"/>
<path d="M148.31 102.952H77.1999C76.7615 102.952 76.3411 102.778 76.0311 102.468C75.7211 102.159 75.5467 101.739 75.5462 101.301V57.3903C75.5467 56.9526 75.7211 56.533 76.0311 56.2236C76.3411 55.9141 76.7615 55.74 77.1999 55.7395H148.31C148.748 55.74 149.169 55.9141 149.479 56.2236C149.789 56.533 149.963 56.9526 149.964 57.3903V101.301C149.963 101.739 149.789 102.159 149.479 102.468C149.169 102.778 148.748 102.952 148.31 102.952ZM77.1999 56.3998C76.9369 56.4001 76.6847 56.5046 76.4986 56.6903C76.3126 56.8759 76.208 57.1277 76.2077 57.3903V101.302C76.208 101.564 76.3126 101.816 76.4986 102.002C76.6847 102.187 76.9369 102.292 77.1999 102.292H148.31C148.573 102.292 148.825 102.187 149.011 102.002C149.197 101.816 149.302 101.564 149.302 101.302V57.3903C149.302 57.1277 149.197 56.8759 149.011 56.6903C148.825 56.5046 148.573 56.4001 148.31 56.3998H77.1999Z" fill="#CACACA"/>
<path d="M134.253 75.7141H91.2566C90.8627 75.7128 90.4854 75.5557 90.2073 75.2772C89.9293 74.9987 89.7731 74.6216 89.7731 74.2284C89.7731 73.8352 89.9293 73.458 90.2073 73.1796C90.4854 72.9011 90.8627 72.744 91.2566 72.7427H134.253C134.449 72.742 134.643 72.78 134.824 72.8544C135.006 72.9287 135.17 73.0381 135.309 73.1761C135.448 73.3141 135.558 73.4781 135.633 73.6587C135.708 73.8393 135.747 74.0329 135.747 74.2284C135.747 74.4239 135.708 74.6175 135.633 74.7981C135.558 74.9787 135.448 75.1427 135.309 75.2807C135.17 75.4187 135.006 75.528 134.824 75.6024C134.643 75.6768 134.449 75.7148 134.253 75.7141Z" fill="#6C63FF"/>
<path d="M134.253 85.9491H91.2566C90.8627 85.9478 90.4854 85.7907 90.2073 85.5122C89.9293 85.2337 89.7731 84.8566 89.7731 84.4634C89.7731 84.0702 89.9293 83.693 90.2073 83.4146C90.4854 83.1361 90.8627 82.979 91.2566 82.9777H134.253C134.449 82.977 134.643 83.015 134.824 83.0894C135.006 83.1637 135.17 83.2731 135.309 83.4111C135.448 83.5491 135.558 83.7131 135.633 83.8937C135.708 84.0743 135.747 84.2679 135.747 84.4634C135.747 84.6589 135.708 84.8525 135.633 85.0331C135.558 85.2136 135.448 85.3776 135.309 85.5157C135.17 85.6537 135.006 85.763 134.824 85.8374C134.643 85.9118 134.449 85.9497 134.253 85.9491Z" fill="#6C63FF"/>
<path d="M223.522 140.472C223.453 140.725 223.405 140.982 223.377 141.243L202.581 152.145L197.752 149.11L192.21 155.786L200.235 161.989C200.883 162.49 201.677 162.768 202.497 162.78C203.317 162.793 204.119 162.54 204.782 162.059L226.404 146.379C227.336 146.766 228.364 146.861 229.352 146.65C230.339 146.44 231.239 145.934 231.931 145.201C232.624 144.467 233.076 143.541 233.229 142.544C233.381 141.548 233.226 140.529 232.783 139.623C232.341 138.717 231.633 137.967 230.753 137.472C229.874 136.977 228.864 136.762 227.859 136.854C226.853 136.946 225.9 137.342 225.125 137.988C224.35 138.634 223.791 139.501 223.522 140.472Z" fill="#FFB6B6"/>
<path d="M248.596 214.349L252.765 211.671L244.406 194.343L238.252 198.293L248.596 214.349Z" fill="#FFB6B6"/>
<path d="M246.656 213.672L254.868 208.4L254.868 208.4C256.256 207.509 257.942 207.205 259.555 207.555C261.167 207.905 262.575 208.879 263.467 210.265L263.577 210.435L250.131 219.066L246.656 213.672Z" fill="#2F2E41"/>
<path d="M188.518 184.583L220.527 164.125C220.527 164.125 226.408 163.559 229.937 170.503L251.255 201.07L242.16 207.213L218.505 182.694L202.272 198.719C202.272 198.719 226.188 194.804 225.379 210.547C224.737 223.041 192.005 218.756 178.521 216.454C175.96 216.037 173.522 215.062 171.381 213.599C169.24 212.136 167.447 210.22 166.131 207.987C164.685 205.483 163.907 202.64 165.122 199.953C168.361 192.786 188.518 184.583 188.518 184.583Z" fill="#2F2E41"/>
<path d="M172.65 201.68L163.426 199.816L166.055 154.623L176.668 141.646L182.992 140.528C184.877 140.187 186.822 140.565 188.441 141.587C190.06 142.61 191.235 144.203 191.733 146.049L194.52 156.214C199.249 164.207 192.624 173.475 192.013 174.298L192.357 188.316L172.65 201.68Z" fill="#6C63FF"/>
<path d="M181.239 143.416L181.825 141.349C181.825 141.349 188.176 136.676 197.881 148.786L193.231 157.061L183.121 156.658L181.239 143.416Z" fill="#6C63FF"/>
<path d="M195.85 127.333C197.649 134.696 190.557 135.243 182.143 137.291C173.73 139.34 167.182 142.115 165.382 134.752C163.583 127.388 163.725 113.526 175.628 110.627C187.94 107.629 194.051 119.969 195.85 127.333Z" fill="#2F2E41"/>
<path d="M179.589 137.592C185.416 137.592 190.14 132.876 190.14 127.059C190.14 121.242 185.416 116.526 179.589 116.526C173.761 116.526 169.037 121.242 169.037 127.059C169.037 132.876 173.761 137.592 179.589 137.592Z" fill="#FFB6B6"/>
<path d="M167.5 128.939L171.554 127.952L172.121 122.517L173.7 127.429L175.638 126.957L175.969 123.787L176.89 126.652L191.289 123.146C190.942 121.724 190.317 120.383 189.45 119.202C188.584 118.02 187.493 117.021 186.239 116.26C184.986 115.5 183.595 114.993 182.145 114.77C180.695 114.546 179.216 114.609 177.791 114.956L175.704 115.464C174.279 115.811 172.936 116.435 171.753 117.3C170.569 118.165 169.568 119.254 168.806 120.505C168.044 121.757 167.537 123.145 167.313 124.593C167.088 126.04 167.152 127.516 167.5 128.939Z" fill="#2F2E41"/>
<path d="M299.18 141.776H228.07C227.632 141.775 227.212 141.601 226.902 141.291C226.592 140.982 226.417 140.562 226.417 140.125V96.2135C226.417 95.7759 226.592 95.3563 226.902 95.0468C227.212 94.7373 227.632 94.5632 228.07 94.5627H299.18C299.619 94.5632 300.039 94.7373 300.349 95.0468C300.659 95.3563 300.834 95.7759 300.834 96.2135V140.125C300.834 140.562 300.659 140.982 300.349 141.291C300.039 141.601 299.619 141.775 299.18 141.776Z" fill="white"/>
<path d="M299.18 141.776H228.07C227.632 141.775 227.212 141.601 226.902 141.291C226.592 140.982 226.417 140.562 226.417 140.125V96.2135C226.417 95.7759 226.592 95.3563 226.902 95.0468C227.212 94.7373 227.632 94.5632 228.07 94.5627H299.18C299.619 94.5632 300.039 94.7373 300.349 95.0468C300.659 95.3563 300.834 95.7759 300.834 96.2135V140.125C300.834 140.562 300.659 140.982 300.349 141.291C300.039 141.601 299.619 141.775 299.18 141.776ZM228.07 95.2231C227.807 95.2234 227.555 95.3278 227.369 95.5135C227.183 95.6992 227.079 95.951 227.078 96.2136V140.125C227.079 140.387 227.183 140.639 227.369 140.825C227.555 141.01 227.807 141.115 228.07 141.115H299.18C299.444 141.115 299.696 141.01 299.882 140.825C300.068 140.639 300.172 140.387 300.173 140.125V96.2136C300.172 95.951 300.068 95.6992 299.882 95.5135C299.696 95.3278 299.444 95.2234 299.18 95.2231H228.07Z" fill="#CACACA"/>
<path d="M285.124 114.537H242.127C241.931 114.538 241.738 114.499 241.557 114.425C241.376 114.35 241.212 114.241 241.073 114.103C240.935 113.965 240.825 113.801 240.75 113.621C240.675 113.44 240.636 113.247 240.636 113.052C240.636 112.856 240.675 112.663 240.75 112.483C240.825 112.302 240.935 112.138 241.073 112C241.212 111.862 241.376 111.753 241.557 111.678C241.738 111.604 241.931 111.566 242.127 111.566H285.124C285.519 111.566 285.897 111.722 286.176 112.001C286.455 112.28 286.612 112.658 286.612 113.052C286.612 113.446 286.455 113.824 286.176 114.102C285.897 114.381 285.519 114.537 285.124 114.537Z" fill="#6C63FF"/>
<path d="M285.124 124.772H242.127C241.931 124.773 241.737 124.735 241.556 124.661C241.374 124.587 241.21 124.477 241.071 124.339C240.932 124.201 240.822 124.037 240.747 123.857C240.672 123.676 240.633 123.482 240.633 123.287C240.633 123.091 240.672 122.897 240.747 122.717C240.822 122.536 240.932 122.372 241.071 122.234C241.21 122.096 241.374 121.987 241.556 121.912C241.737 121.838 241.931 121.8 242.127 121.801H285.124C285.518 121.803 285.895 121.96 286.172 122.238C286.45 122.517 286.606 122.894 286.606 123.287C286.606 123.68 286.45 124.057 286.172 124.335C285.895 124.614 285.518 124.771 285.124 124.772Z" fill="#6C63FF"/>
<path d="M197.659 179.144C197.406 179.21 197.158 179.296 196.918 179.401L177.122 166.776L177.369 161.085L168.814 159.59L167.395 169.623C167.281 170.434 167.433 171.259 167.828 171.976C168.224 172.693 168.842 173.263 169.589 173.6L193.949 184.571C194.075 185.571 194.502 186.509 195.175 187.261C195.847 188.013 196.733 188.542 197.715 188.779C198.696 189.016 199.726 188.949 200.669 188.587C201.611 188.225 202.421 187.585 202.99 186.752C203.559 185.92 203.861 184.934 203.855 183.926C203.849 182.918 203.536 181.936 202.957 181.11C202.379 180.284 201.562 179.653 200.615 179.302C199.669 178.951 198.638 178.896 197.659 179.144H197.659Z" fill="#FFB6B6"/>
<path d="M178.269 143.709L176.778 141.831C176.778 141.831 170.787 139.905 167.552 147.979C164.317 156.052 167.35 163.924 167.35 163.924L181.504 165.135L182.514 152.015L178.269 143.709Z" fill="#6C63FF"/>
<path d="M331.596 220H0.404385C0.297135 220 0.194278 219.957 0.118441 219.882C0.0426044 219.806 0 219.703 0 219.596C0 219.489 0.0426044 219.387 0.118441 219.311C0.194278 219.235 0.297135 219.193 0.404385 219.193H331.596C331.703 219.193 331.806 219.235 331.882 219.311C331.957 219.387 332 219.489 332 219.596C332 219.703 331.957 219.806 331.882 219.882C331.806 219.957 331.703 220 331.596 220Z" fill="#CACACA"/>
</svg>
