<svg width="281" height="174" viewBox="0 0 281 174" fill="none" xmlns="http://www.w3.org/2000/svg">
<path d="M21.1414 173.913L20.8457 173.312C24.8108 170.955 29.7456 168.021 32.3232 163.207C34.864 158.462 34.921 152.017 32.4719 146.389C30.3877 141.6 26.5592 137.308 21.4002 133.98C20.3826 133.323 19.3144 132.701 18.2813 132.099C15.7843 130.644 13.2022 129.14 11.0732 127.006C8.14079 124.066 5.92209 119.134 7.57576 114.74C8.11962 113.338 9.0103 112.131 10.1467 111.257C11.2831 110.383 12.6196 109.877 14.0045 109.796L14.0396 110.478C12.7708 110.552 11.5463 111.016 10.505 111.816C9.46376 112.616 8.64741 113.721 8.14862 115.006C6.61192 119.089 8.72026 123.722 11.4922 126.501C13.563 128.576 16.1097 130.06 18.5725 131.495C19.6114 132.1 20.6858 132.726 21.715 133.39C26.9813 136.788 30.895 141.181 33.0329 146.094C35.57 151.925 35.5034 158.615 32.8591 163.554C30.1937 168.532 25.1745 171.516 21.1414 173.913Z" fill="#F1F1F1"/>
<path d="M17.9455 113.398C20.9505 113.398 23.3864 112.098 23.3864 110.493C23.3864 108.889 20.9505 107.589 17.9455 107.589C14.9406 107.589 12.5047 108.889 12.5047 110.493C12.5047 112.098 14.9406 113.398 17.9455 113.398Z" fill="#F1F1F1"/>
<path d="M22.2982 132.536C25.3031 132.536 27.7391 131.236 27.7391 129.631C27.7391 128.027 25.3031 126.726 22.2982 126.726C19.2933 126.726 16.8574 128.027 16.8574 129.631C16.8574 131.236 19.2933 132.536 22.2982 132.536Z" fill="#F1F1F1"/>
<path d="M12.3492 135.612C15.3541 135.612 17.7901 134.311 17.7901 132.707C17.7901 131.103 15.3541 129.802 12.3492 129.802C9.34429 129.802 6.90833 131.103 6.90833 132.707C6.90833 134.311 9.34429 135.612 12.3492 135.612Z" fill="#F1F1F1"/>
<path d="M27.8945 151.674C30.8995 151.674 33.3354 150.374 33.3354 148.769C33.3354 147.165 30.8995 145.864 27.8945 145.864C24.8896 145.864 22.4537 147.165 22.4537 148.769C22.4537 150.374 24.8896 151.674 27.8945 151.674Z" fill="#F1F1F1"/>
<path d="M38.7763 151.674C41.7812 151.674 44.2172 150.374 44.2172 148.769C44.2172 147.165 41.7812 145.864 38.7763 145.864C35.7714 145.864 33.3354 147.165 33.3354 148.769C33.3354 150.374 35.7714 151.674 38.7763 151.674Z" fill="#F1F1F1"/>
<path d="M281 5.27295H106.023V96.5393H281V5.27295Z" fill="#E6E6E6"/>
<path d="M275.997 13.0992H111.026V89.2456H275.997V13.0992Z" fill="white"/>
<path d="M280.925 0H105.948V8.17097H280.925V0Z" fill="#6C63FF"/>
<path d="M111.472 5.29393C112.233 5.29393 112.85 4.61589 112.85 3.77947C112.85 2.94306 112.233 2.26501 111.472 2.26501C110.711 2.26501 110.094 2.94306 110.094 3.77947C110.094 4.61589 110.711 5.29393 111.472 5.29393Z" fill="white"/>
<path d="M116.702 5.29393C117.463 5.29393 118.08 4.61589 118.08 3.77947C118.08 2.94306 117.463 2.26501 116.702 2.26501C115.941 2.26501 115.324 2.94306 115.324 3.77947C115.324 4.61589 115.941 5.29393 116.702 5.29393Z" fill="white"/>
<path d="M121.932 5.29393C122.693 5.29393 123.309 4.61589 123.309 3.77947C123.309 2.94306 122.693 2.26501 121.932 2.26501C121.171 2.26501 120.554 2.94306 120.554 3.77947C120.554 4.61589 121.171 5.29393 121.932 5.29393Z" fill="white"/>
<path d="M184.813 31.1702C184.636 31.1702 184.466 31.2475 184.341 31.3851C184.216 31.5227 184.146 31.7093 184.146 31.9039C184.146 32.0984 184.216 32.2851 184.341 32.4227C184.466 32.5603 184.636 32.6376 184.813 32.6376H221.439C221.616 32.6376 221.786 32.5603 221.911 32.4227C222.036 32.2851 222.107 32.0984 222.107 31.9039C222.107 31.7093 222.036 31.5227 221.911 31.3851C221.786 31.2475 221.616 31.1702 221.439 31.1702H184.813Z" fill="#E6E6E6"/>
<path d="M184.813 35.5728C184.636 35.5732 184.467 35.6507 184.342 35.7882C184.217 35.9258 184.147 36.1121 184.147 36.3064C184.147 36.5008 184.217 36.6871 184.342 36.8247C184.467 36.9622 184.636 37.0397 184.813 37.0401H203.512C203.688 37.0397 203.858 36.9622 203.983 36.8247C204.107 36.6871 204.178 36.5008 204.178 36.3064C204.178 36.1121 204.107 35.9258 203.983 35.7882C203.858 35.6507 203.688 35.5732 203.512 35.5728H184.813Z" fill="#E6E6E6"/>
<path d="M183.892 56.8821C183.715 56.8821 183.545 56.9594 183.42 57.097C183.294 57.2346 183.224 57.4212 183.224 57.6158C183.224 57.8104 183.294 57.997 183.42 58.1346C183.545 58.2722 183.715 58.3495 183.892 58.3495H252.566C252.743 58.3495 252.912 58.2722 253.038 58.1346C253.163 57.997 253.233 57.8104 253.233 57.6158C253.233 57.4212 253.163 57.2346 253.038 57.097C252.912 56.9594 252.743 56.8821 252.566 56.8821H183.892Z" fill="#E6E6E6"/>
<path d="M183.892 61.2847C183.715 61.2851 183.545 61.3626 183.421 61.5001C183.296 61.6377 183.226 61.824 183.226 62.0184C183.226 62.2127 183.296 62.3991 183.421 62.5366C183.545 62.6742 183.715 62.7516 183.892 62.7521H234.638C234.815 62.7516 234.984 62.6742 235.109 62.5366C235.234 62.3991 235.304 62.2127 235.304 62.0184C235.304 61.824 235.234 61.6377 235.109 61.5001C234.984 61.3626 234.815 61.2851 234.638 61.2847H183.892Z" fill="#E6E6E6"/>
<path d="M183.892 65.5876C183.715 65.5881 183.545 65.6655 183.421 65.8031C183.296 65.9406 183.226 66.127 183.226 66.3213C183.226 66.5157 183.296 66.702 183.421 66.8396C183.545 66.9771 183.715 67.0546 183.892 67.055H252.566C252.742 67.0546 252.912 66.9771 253.037 66.8396C253.162 66.702 253.232 66.5157 253.232 66.3213C253.232 66.127 253.162 65.9406 253.037 65.8031C252.912 65.6655 252.742 65.5881 252.566 65.5876H183.892Z" fill="#E6E6E6"/>
<path d="M183.892 69.9902C183.715 69.9907 183.545 70.0681 183.421 70.2057C183.296 70.3432 183.226 70.5296 183.226 70.7239C183.226 70.9182 183.296 71.1046 183.421 71.2422C183.545 71.3797 183.715 71.4572 183.892 71.4576H234.638C234.815 71.4572 234.984 71.3797 235.109 71.2422C235.234 71.1046 235.304 70.9182 235.304 70.7239C235.304 70.5296 235.234 70.3432 235.109 70.2057C234.984 70.0681 234.815 69.9907 234.638 69.9902H183.892Z" fill="#E6E6E6"/>
<path d="M147.988 59.8597C151.198 59.8597 153.8 56.9993 153.8 53.4709C153.8 49.9425 151.198 47.0822 147.988 47.0822C144.778 47.0822 142.176 49.9425 142.176 53.4709C142.176 56.9993 144.778 59.8597 147.988 59.8597Z" fill="#A0616A"/>
<path d="M146.148 48.3598C146.148 48.3598 148.86 49.1584 150.265 49.4779C151.669 49.7973 151.524 48.8922 151.524 48.8922C151.524 48.8922 153.365 49.1584 153.268 48.9455C153.171 48.7325 154.043 47.6145 153.026 46.3367C152.008 45.059 152.299 44.1007 152.299 44.1007H151.427L151.185 43.728H149.829C149.829 43.728 148.329 42.2827 145.666 42.7087C143.002 43.1346 139.851 44.2604 139.561 46.0173C139.521 46.2556 139.469 46.5203 139.409 46.8C138.681 50.1804 140.228 53.3432 141.834 56.3356C142.228 57.0711 144.137 58.6747 144.088 57.5745C144.039 56.4742 142.37 54.0032 143.532 53.8435C144.695 53.6838 146.681 50.4362 146.148 48.3598Z" fill="#2F2E41"/>
<path d="M144.691 74.1245C143.569 74.0259 142.456 73.8249 141.365 73.5238L141.426 72.2497L141.935 62.1196L141.939 62.0419H152.178L153.785 71.3693L154.001 72.6278C153.577 72.8091 153.148 72.98 152.71 73.1302C152.706 73.1302 152.706 73.1353 152.701 73.1353C152.093 73.3425 151.476 73.5238 150.854 73.6739C150.027 73.8701 149.19 74.0119 148.347 74.0986C147.696 74.1697 147.042 74.2042 146.387 74.2022C145.822 74.2022 145.252 74.1764 144.691 74.1245Z" fill="#6C63FF"/>
<path d="M138.109 72.3223C137.685 72.1203 137.275 71.9028 136.87 71.6749L136.695 71.5765C136.578 71.5092 136.455 71.4367 136.337 71.3641C136.177 71.2658 136.022 71.1674 135.871 71.069C135.725 70.9757 135.574 70.8773 135.428 70.7789C135.419 70.7738 135.414 70.7686 135.405 70.7686C134.896 70.4112 134.396 70.0435 133.916 69.6447C133.836 69.5774 133.755 69.5101 133.675 69.4428L133.591 67.9512L133.713 67.8683L141.935 62.1196L142.048 62.0419L142.057 62.0367L143.216 62.0419V66.7859C143.871 67.8269 144.314 70.0072 144.587 72.8609C144.625 73.27 144.658 73.6895 144.691 74.1246C143.569 74.0259 142.457 73.8249 141.365 73.5238C141.247 73.4979 141.134 73.4668 141.016 73.4306C140.329 73.2331 139.653 72.9945 138.99 72.7159C138.787 72.633 138.59 72.545 138.392 72.4569L138.373 72.4466C138.288 72.4051 138.194 72.3637 138.109 72.3223Z" fill="#2F2E41"/>
<path d="M136.337 71.3641C136.177 71.2657 136.022 71.1673 135.871 71.0689C135.725 70.9757 135.574 70.8773 135.428 70.7789C135.419 70.7737 135.414 70.7685 135.405 70.7685C134.896 70.4112 134.396 70.0435 133.916 69.6447C133.836 69.5774 133.755 69.51 133.675 69.4427C133.638 69.4065 133.6 69.3754 133.557 69.3391C133.256 69.0854 132.964 68.8212 132.681 68.5416C132.667 68.5312 132.658 68.5157 132.643 68.5053C132.929 68.264 133.249 68.0767 133.591 67.9512L133.925 68.0599L136.309 68.8471L136.323 69.9088L136.337 71.3641Z" fill="#2F2E41"/>
<path d="M156.414 71.3797C156.272 71.4625 156.131 71.5454 155.99 71.6231C155.956 71.6438 155.928 71.6593 155.9 71.6749C155.711 71.7785 155.528 71.882 155.339 71.9804C155.335 71.9856 155.325 71.9856 155.325 71.9908C155.316 71.996 155.302 72.0012 155.292 72.0063C154.868 72.229 154.439 72.4362 154.001 72.6278C153.577 72.8091 153.148 72.98 152.71 73.1302C152.706 73.1302 152.706 73.1353 152.701 73.1353C152.093 73.3425 151.476 73.5238 150.854 73.6739C150.847 73.2485 150.898 72.8244 151.005 72.4154L151.009 72.3429L151.415 65.1337L150.873 62.0419L152.428 61.7881L160.979 66.848C160.979 66.848 160.037 67.8838 156.169 70.0901C155.827 70.2852 156.329 70.9343 156.414 71.3797Z" fill="#2F2E41"/>
<path d="M148.244 72.8557C147.631 72.9178 147.009 72.9489 146.387 72.9489C145.784 72.9489 145.186 72.923 144.587 72.8609C144.625 73.27 144.658 73.6895 144.691 74.1246C145.252 74.1764 145.822 74.2023 146.387 74.2023C147.042 74.2043 147.696 74.1697 148.347 74.0987C149.19 74.0119 150.027 73.8701 150.854 73.674C150.847 73.2486 150.898 72.8244 151.005 72.4155L151.009 72.343C150.1 72.5863 149.176 72.7577 148.244 72.8557ZM166.049 43.791C165.053 40.6473 163.446 37.7802 161.338 35.3895C159.231 32.9988 156.675 31.1422 153.848 29.949C151.02 28.7559 147.991 28.2549 144.969 28.4811C141.948 28.7073 139.008 29.6553 136.354 31.2588C133.7 32.8623 131.396 35.0828 129.604 37.7655C127.811 40.4482 126.572 43.5284 125.973 46.7915C125.374 50.0546 125.431 53.4219 126.137 56.6587C126.844 59.8955 128.185 62.9239 130.066 65.5326C130.255 65.7915 130.448 66.0505 130.646 66.2991C130.665 66.3198 130.674 66.3353 130.688 66.3509C131.175 66.9675 131.692 67.5537 132.238 68.1065C132.37 68.2412 132.507 68.3759 132.643 68.5053C132.658 68.5157 132.667 68.5312 132.681 68.5416C132.964 68.8213 133.256 69.0854 133.557 69.3391C133.6 69.3754 133.638 69.4065 133.675 69.4427C133.756 69.5101 133.836 69.5774 133.916 69.6447C134.396 70.0435 134.896 70.4112 135.405 70.7686C135.414 70.7686 135.419 70.7737 135.428 70.7789C135.574 70.8773 135.725 70.9757 135.871 71.0689C136.022 71.1673 136.177 71.2657 136.337 71.3641C136.455 71.4366 136.578 71.5091 136.695 71.5765L136.87 71.6749C137.275 71.9028 137.685 72.1203 138.109 72.3223C138.194 72.3637 138.288 72.4051 138.373 72.4465L138.392 72.4569C138.59 72.5449 138.787 72.633 138.99 72.7159C139.653 72.9945 140.329 73.2331 141.016 73.4306C141.134 73.4668 141.247 73.4979 141.365 73.5238C142.456 73.8249 143.569 74.0259 144.691 74.1245C145.252 74.1764 145.822 74.2022 146.387 74.2022C147.042 74.2043 147.696 74.1697 148.347 74.0987C149.19 74.0119 150.027 73.8701 150.854 73.674C151.476 73.5238 152.093 73.3425 152.701 73.1354C152.705 73.1354 152.706 73.1302 152.71 73.1302C153.148 72.98 153.577 72.8091 154.001 72.6278C154.439 72.4362 154.868 72.2291 155.292 72.0064C155.302 72.0012 155.316 71.996 155.325 71.9908C155.325 71.9856 155.335 71.9856 155.339 71.9804C155.528 71.882 155.711 71.7785 155.9 71.6749C155.928 71.6593 155.956 71.6438 155.99 71.6231C156.131 71.5454 156.272 71.4625 156.414 71.3797C156.423 71.3745 156.428 71.3693 156.437 71.3641C156.809 71.1363 157.177 70.898 157.54 70.6443C157.639 70.577 157.738 70.5096 157.837 70.4319C157.983 70.3335 158.124 70.2248 158.261 70.116C158.444 69.9762 158.628 69.8312 158.807 69.681C158.867 69.6389 158.923 69.5922 158.977 69.5412C159.415 69.1786 159.839 68.7954 160.244 68.3914C163.317 65.3819 165.508 61.4382 166.542 57.0592C167.575 52.6802 167.403 48.0628 166.049 43.7911L166.049 43.791ZM159.891 67.0552C159.381 67.5827 158.846 68.0805 158.289 68.5468C158.166 68.6503 158.039 68.7539 157.912 68.8471C157.789 68.9507 157.667 69.0491 157.54 69.1423C157.431 69.2252 157.323 69.3081 157.21 69.3858C157.2 69.3961 157.186 69.4013 157.177 69.4117C157.097 69.4738 157.012 69.5308 156.932 69.5877C156.682 69.7587 156.423 69.9296 156.169 70.0901C156.107 70.1264 156.051 70.1678 155.99 70.204C155.957 70.2248 155.924 70.2455 155.886 70.2662C155.745 70.3543 155.603 70.4319 155.462 70.5148C155.443 70.5303 155.42 70.5355 155.401 70.551C155.394 70.5523 155.387 70.5559 155.382 70.5614C155.283 70.6184 155.184 70.6702 155.085 70.7219C155 70.7686 154.92 70.8152 154.835 70.8566C154.491 71.0379 154.138 71.2088 153.785 71.3693C153.412 71.535 153.035 71.6852 152.654 71.8251C152.559 71.8613 152.461 71.9028 152.362 71.9338C151.914 72.0892 151.466 72.229 151.009 72.343C150.1 72.5863 149.176 72.7576 148.244 72.8557C147.631 72.9178 147.009 72.9489 146.387 72.9489C145.784 72.9489 145.186 72.923 144.587 72.8609C143.52 72.7535 142.463 72.5491 141.426 72.2497C141.388 72.2394 141.346 72.229 141.308 72.2187C140.458 71.975 139.625 71.6634 138.816 71.2865C138.773 71.2657 138.726 71.2502 138.688 71.2295C138.641 71.2088 138.599 71.1932 138.561 71.1725C138.514 71.1518 138.472 71.1311 138.429 71.1103C138.076 70.9395 137.732 70.753 137.388 70.5614L137.228 70.4682C136.922 70.2921 136.62 70.1108 136.323 69.9088C136.22 69.8467 136.111 69.7742 136.008 69.7017C135.89 69.624 135.772 69.5411 135.659 69.4582C135.631 69.4375 135.603 69.4168 135.574 69.3961C135.31 69.1993 135.042 69.0025 134.787 68.7902C134.608 68.6451 134.434 68.5053 134.26 68.3551C134.146 68.2619 134.033 68.1635 133.925 68.06C133.854 68.003 133.784 67.9356 133.713 67.8683C133.619 67.7803 133.525 67.6922 133.43 67.599C133.284 67.4695 133.148 67.3245 133.016 67.1898C132.485 66.6525 131.983 66.0818 131.513 65.4808C131.353 65.284 131.202 65.0872 131.056 64.88C131.022 64.8392 130.99 64.796 130.961 64.7505C128.589 61.4591 127.14 57.4799 126.79 53.2985C126.441 49.1171 127.206 44.9142 128.992 41.2026C130.779 37.4909 133.509 34.431 136.851 32.3961C140.192 30.3612 144 29.4392 147.81 29.7428C151.62 30.0463 155.268 31.5622 158.307 34.1055C161.347 36.6487 163.648 40.1095 164.929 44.0654C166.209 48.0214 166.415 52.3017 165.52 56.384C164.626 60.4662 162.67 64.1741 159.891 67.0552L159.891 67.0552Z" fill="#3F3D56"/>
<path d="M50.8134 169.746L54.6251 169.746L56.4383 153.585L50.8128 153.586L50.8134 169.746Z" fill="#A0616A"/>
<path d="M49.8412 168.378L57.3478 168.378H57.3481C58.6168 168.378 59.8335 168.932 60.7306 169.918C61.6277 170.904 62.1318 172.241 62.1318 173.636V173.807L49.8414 173.807L49.8412 168.378Z" fill="#2F2E41"/>
<path d="M65.1151 169.746L68.9268 169.746L70.7401 153.585L65.1145 153.586L65.1151 169.746Z" fill="#A0616A"/>
<path d="M64.1429 168.378L71.6495 168.378H71.6498C72.9185 168.378 74.1352 168.932 75.0323 169.918C75.9294 170.904 76.4335 172.241 76.4336 173.636V173.807L64.1432 173.807L64.1429 168.378Z" fill="#2F2E41"/>
<path d="M39.2478 105.888C39.5598 105.52 39.7947 105.083 39.9361 104.605C40.0774 104.127 40.1217 103.621 40.0659 103.122C40.0101 102.624 39.8555 102.145 39.6129 101.719C39.3704 101.293 39.0459 100.931 38.6623 100.658L41.3107 88.7972L35.8722 90.9274L34.191 101.864C33.8164 102.602 33.7013 103.467 33.8676 104.292C34.0339 105.118 34.47 105.848 35.0934 106.344C35.7167 106.841 36.4839 107.068 37.2496 106.984C38.0153 106.9 38.7263 106.51 39.2478 105.888Z" fill="#9E616A"/>
<path d="M79.7096 104.862C79.3977 104.495 79.1627 104.057 79.0214 103.58C78.8801 103.102 78.8357 102.596 78.8916 102.097C78.9474 101.598 79.102 101.119 79.3445 100.693C79.587 100.268 79.9115 99.9054 80.2952 99.6323L77.6468 87.772L83.0853 89.9021L84.7664 100.838C85.1411 101.577 85.2562 102.441 85.0899 103.267C84.9236 104.093 84.4874 104.823 83.8641 105.319C83.2408 105.815 82.4736 106.043 81.7079 105.959C80.9422 105.874 80.2312 105.484 79.7096 104.862Z" fill="#9E616A"/>
<path d="M44.2629 97.5739L49.5462 165.604L57.2765 164.829L60.3704 112.251L63.1244 133.07L63.6759 166.14L70.6714 165.627L74.5558 130.051L73.6029 95.5969L47.0461 92.6407L44.2629 97.5739Z" fill="#2F2E41"/>
<path d="M58.7963 35.6677C63.2239 35.6677 66.8133 31.7223 66.8133 26.8555C66.8133 21.9886 63.2239 18.0432 58.7963 18.0432C54.3686 18.0432 50.7793 21.9886 50.7793 26.8555C50.7793 31.7223 54.3686 35.6677 58.7963 35.6677Z" fill="#A0616A"/>
<path d="M56.2576 19.8056C56.2576 19.8056 59.9988 20.9072 61.9363 21.3478C63.8737 21.7884 63.6733 20.54 63.6733 20.54C63.6733 20.54 66.212 20.9072 66.0784 20.6134C65.9448 20.3197 67.1473 18.7775 65.7443 17.0151C64.3414 15.2526 64.7422 13.9308 64.7422 13.9308H63.5397L63.2056 13.4167H61.335C61.335 13.4167 59.2668 11.4233 55.5924 12.0108C51.9179 12.5983 47.5725 14.1511 47.1717 16.5745C47.1173 16.9032 47.0457 17.2684 46.9626 17.6541C45.9578 22.3168 48.0927 26.6794 50.307 30.807C50.8511 31.8214 53.4834 34.0334 53.416 32.5157C53.3487 30.9981 51.0465 27.5898 52.6499 27.3695C54.2533 27.1492 56.9925 22.6696 56.2576 19.8056Z" fill="#2F2E41"/>
<path d="M50.4539 38.678H64.5727L74.5558 96.6301C74.5558 96.6301 65.8523 97.4482 60.8778 99.4986C55.9033 101.549 47.6337 94.8147 47.6337 94.8147L50.4539 38.678Z" fill="#6C63FF"/>
<path d="M52.2165 45.2224V38.6779L50.6179 38.6672L38.938 46.8299L41.4725 91.5522C41.4725 91.5522 44.4721 106.472 49.0218 106.317C53.5715 106.163 57.0796 52.9736 52.2165 45.2224Z" fill="#2F2E41"/>
<path d="M42.6897 48.0654L38.9381 46.83C38.9381 46.83 36.1607 47.7236 36.1607 50.7994C36.1607 53.8751 33.7677 97.5739 33.7677 97.5739L41.3696 98.3124L43.0007 76.0888L42.6897 48.0654Z" fill="#2F2E41"/>
<path d="M63.5205 42.9392L62.7727 38.678L64.9196 38.3256L72.6923 41.7431C72.6923 41.7431 79.6877 97.9608 76.5786 99.6696C73.4695 101.378 71.3703 100.054 71.3703 100.054C71.3703 100.054 61.1442 58.5913 62.9542 52.9866L63.5205 42.9392Z" fill="#2F2E41"/>
<path d="M67.2514 42.5974L68.5779 41.9627C68.5779 41.9627 72.4714 39.8419 74.6805 44.1245C76.8895 48.4071 84.6622 96.252 84.6622 96.252L78.2668 97.5739L73.4855 80.3553L67.2514 42.5974Z" fill="#2F2E41"/>
<path d="M118.766 174H0.310907C0.228449 174 0.149369 173.964 0.0910623 173.9C0.0327559 173.836 0 173.749 0 173.658C0 173.568 0.0327559 173.481 0.0910623 173.417C0.149369 173.353 0.228449 173.317 0.310907 173.317H118.766C118.849 173.317 118.928 173.353 118.986 173.417C119.045 173.481 119.077 173.568 119.077 173.658C119.077 173.749 119.045 173.836 118.986 173.9C118.928 173.964 118.849 174 118.766 174Z" fill="#CACACA"/>
</svg>
