<svg width="60" height="56" viewBox="0 0 60 56" fill="none" xmlns="http://www.w3.org/2000/svg">
<g clip-path="url(#clip0_69_4936)">
<path d="M59.9998 28C60.0045 31.5969 59.2646 35.1609 57.8208 38.4959C57.8173 38.5033 57.8146 38.5099 57.8111 38.5174V38.5182C56.8406 40.7513 55.564 42.8576 54.0131 44.7843C53.714 45.157 53.4054 45.5221 53.0874 45.8794C52.9711 46.0103 52.8531 46.1404 52.735 46.2688C52.127 46.9273 51.4874 47.5583 50.8161 48.1617C50.6599 48.3025 50.5019 48.4417 50.3421 48.5792C50.3049 48.6115 50.2676 48.643 50.2303 48.6753C49.4484 49.3421 48.6292 49.9698 47.7762 50.5557C47.2037 50.9509 46.6161 51.3262 46.0134 51.6815C45.8812 51.7602 45.7481 51.8376 45.614 51.9135C45.3815 52.046 45.1469 52.1755 44.9102 52.302C44.6013 52.4677 44.2886 52.6281 43.972 52.7833C43.8442 52.8471 43.7155 52.9084 43.5868 52.9697C43.3986 53.06 43.2096 53.147 43.0188 53.2323C42.9859 53.2472 42.9531 53.2621 42.9202 53.2762C42.796 53.3325 42.6699 53.3872 42.5439 53.4419C40.9025 54.1485 39.1954 54.7139 37.4439 55.131C37.4342 55.1335 37.4253 55.1351 37.4155 55.1376C37.301 55.165 37.1856 55.1915 37.0702 55.2172C36.9841 55.237 36.8972 55.2561 36.8102 55.2743C36.7995 55.2776 36.7885 55.2801 36.7773 55.2818C36.5989 55.3207 36.4205 55.358 36.2404 55.3919C36.1392 55.4118 36.038 55.4317 35.9368 55.4508C35.8756 55.4632 35.8134 55.474 35.7522 55.4847C35.675 55.4988 35.5986 55.5121 35.5214 55.5262C35.4788 55.5344 35.4362 55.5411 35.3927 55.5477C35.2951 55.5643 35.1975 55.5808 35.1007 55.5966C34.9356 55.6231 34.7688 55.6488 34.6028 55.6719C34.4821 55.6893 34.3623 55.7059 34.2415 55.7217C34.0995 55.7407 33.9575 55.7581 33.8146 55.7747C33.7756 55.7805 33.7365 55.7846 33.6975 55.7888C33.6469 55.7946 33.5963 55.8003 33.5457 55.8061C33.4436 55.8177 33.3415 55.8285 33.2386 55.8385C33.1853 55.8443 33.133 55.8492 33.0797 55.8542C32.9785 55.8641 32.8773 55.8733 32.7762 55.8815C32.6457 55.8931 32.5152 55.9031 32.3839 55.913C32.2241 55.9246 32.0652 55.9354 31.9046 55.9445C31.8016 55.9503 31.6986 55.9561 31.5948 55.9611C31.3303 55.9743 31.0658 55.9834 30.7995 55.9901C30.6673 55.9934 30.5342 55.9959 30.401 55.9975H30.3983C30.2661 55.9992 30.133 56 29.9998 56C28.6506 56.0005 27.3029 55.9164 25.9658 55.7482C24.985 55.6256 24.0199 55.4593 23.0705 55.2495C23.0324 55.2412 22.9942 55.2329 22.9569 55.2238C22.8611 55.2031 22.7661 55.1807 22.6711 55.1583C22.5868 55.1385 22.5034 55.1177 22.4191 55.097C20.246 54.5692 18.1438 53.8136 16.1528 52.8446C16.143 52.8396 16.1324 52.8347 16.1226 52.8297C16.0649 52.8015 16.0081 52.7742 15.9513 52.7452C15.8262 52.6839 15.7016 52.6215 15.5776 52.558C14.872 52.196 14.1844 51.8088 13.5149 51.3966C13.3427 51.2914 13.1723 51.1845 13.0037 51.076C12.9495 51.0412 12.8963 51.0064 12.843 50.9716C12.7871 50.9351 12.7312 50.8987 12.6762 50.8622C12.5297 50.7653 12.3841 50.6673 12.2395 50.5682C11.6404 50.1573 11.059 49.7262 10.4954 49.275C8.49769 47.6782 6.73241 45.8443 5.2445 43.82C4.72527 43.1142 4.24066 42.3858 3.79066 41.6347C1.29684 37.4678 -0.00846623 32.7729 -0.000170512 28C-0.000170512 12.5362 13.4315 0 29.9998 0C46.5682 0 59.9998 12.5362 59.9998 28Z" fill="#66DAA9"/>
<path opacity="0.2" d="M34.824 55.2238C34.9198 55.2031 35.0148 55.1807 35.1098 55.1583C35.1941 55.1385 35.2775 55.1177 35.3618 55.097C35.3663 54.9322 35.3725 54.7508 35.3787 54.5544C35.4311 53.0169 35.5544 50.5416 35.8456 47.5594C35.8615 47.3995 35.8775 47.2385 35.8935 47.0764C35.9973 46.0658 36.1189 45.0029 36.2645 43.9012C36.2689 43.8647 36.2743 43.8291 36.2787 43.7927C36.3967 42.8996 36.5308 41.9826 36.6817 41.0482C36.7873 40.3945 36.9015 39.7338 37.0243 39.0658C37.0331 39.0194 37.042 38.9722 37.0509 38.9258C37.0864 38.7328 37.1228 38.5406 37.1601 38.3467C37.2639 37.8074 37.3749 37.2648 37.4911 36.7222C37.9003 34.8136 38.3876 32.8934 38.9689 31.0253C39.5595 29.088 40.2868 27.1893 41.1462 25.3416C41.8126 23.9063 42.6065 22.5256 43.5195 21.2137C43.5328 21.1947 43.5462 21.1764 43.5595 21.1574C44.7266 19.5163 46.0606 18.1238 47.5837 17.0825L47.2677 16.6799C45.8086 17.6781 44.4701 19.0063 43.2524 20.6645C43.2462 20.6728 43.2408 20.6802 43.2346 20.6885C42.3189 21.9559 41.5196 23.2933 40.8453 24.6864C39.9423 26.5498 39.1807 28.47 38.566 30.433C37.9837 32.2571 37.4615 34.2334 36.9994 36.3619C36.837 37.1116 36.682 37.8798 36.5343 38.6665C36.5095 38.8007 36.4846 38.9349 36.4598 39.0699C36.4598 39.0716 36.4589 39.0741 36.4589 39.0757C36.4207 39.2828 36.3843 39.4899 36.347 39.6995C36.2547 40.2272 36.1677 40.7508 36.0861 41.2702C35.9601 42.0704 35.8461 42.8568 35.7444 43.6295C35.7107 43.8846 35.6781 44.1378 35.6467 44.3891C35.6024 44.7437 35.5604 45.0935 35.5207 45.4387C35.4648 45.9192 35.4136 46.3894 35.3672 46.8495L35.3538 46.9762C35.3467 47.0491 35.3396 47.122 35.3325 47.1941C34.9722 50.8216 34.8595 53.7517 34.824 55.2238Z" fill="black"/>
<path opacity="0.2" d="M41.6281 52.8446C41.6379 52.8396 41.6485 52.8347 41.6583 52.8297C41.8411 52.7411 42.0222 52.6508 42.2033 52.558C42.2627 51.8969 42.3426 51.1704 42.4473 50.4066C42.4695 50.2492 42.4917 50.0894 42.5166 49.9286C42.529 49.8425 42.5423 49.7555 42.5556 49.6677C42.6604 48.995 42.7846 48.3008 42.9337 47.6033C43.5399 44.7569 44.5464 41.8476 46.2177 40.0516C46.3074 39.9547 46.3988 39.8619 46.4938 39.7716C46.7291 39.5433 46.9848 39.3341 47.258 39.1462L46.942 38.7444C46.5606 39.0076 46.2096 39.3072 45.8947 39.6382C45.7837 39.7534 45.6754 39.8732 45.5698 39.9978C44.0317 41.8045 43.0713 44.4794 42.4731 47.1278C42.3169 47.8187 42.1855 48.5088 42.0737 49.1806C42.0453 49.3562 42.0181 49.5302 41.992 49.7025C41.8189 50.8407 41.7044 51.916 41.6281 52.8446Z" fill="black"/>
<path opacity="0.2" d="M50.5685 17.0709C52.0434 17.0709 53.2391 15.955 53.2391 14.5784C53.2391 13.2018 52.0434 12.0858 50.5685 12.0858C49.0936 12.0858 47.8979 13.2018 47.8979 14.5784C47.8979 15.955 49.0936 17.0709 50.5685 17.0709Z" fill="black"/>
<path opacity="0.2" d="M49.7085 38.5273C51.1834 38.5273 52.379 37.4113 52.379 36.0348C52.379 34.6582 51.1834 33.5422 49.7085 33.5422C48.2335 33.5422 47.0379 34.6582 47.0379 36.0348C47.0379 37.4113 48.2335 38.5273 49.7085 38.5273Z" fill="black"/>
<path opacity="0.2" d="M39.9662 18.7651C40.5325 21.7471 39.2823 24.4473 39.2823 24.4473C39.2823 24.4473 37.114 22.3126 36.5477 19.3306C35.9814 16.3486 37.2315 13.6484 37.2315 13.6484C37.2315 13.6484 39.3999 15.7831 39.9662 18.7651Z" fill="black"/>
<path opacity="0.2" d="M48.8416 25.8438C45.7941 26.8838 42.7318 26.2164 42.7318 26.2164C42.7318 26.2164 44.6105 23.8627 47.658 22.8226C50.7055 21.7826 53.7678 22.45 53.7678 22.45C53.7678 22.45 51.8891 24.8037 48.8416 25.8438Z" fill="black"/>
<path opacity="0.2" d="M49.3584 44.8441C47.2224 45.5731 45.0729 45.0976 45.0729 45.0976C45.0729 45.0976 46.3867 43.4401 48.5227 42.7111C50.6587 41.9821 52.8082 42.4576 52.8082 42.4576C52.8082 42.4576 51.4944 44.1151 49.3584 44.8441Z" fill="black"/>
<path d="M39.0497 44.4247L39.158 44.4769C39.1473 44.5846 39.1216 44.6509 39.0497 44.4247Z" fill="#2F2E41"/>
<path d="M39.1931 44.4595C39.194 44.4711 39.1958 44.4836 39.1967 44.4952L39.158 44.4769C39.1589 44.4662 39.1598 44.4546 39.1616 44.443C39.1706 44.298 39.1598 44.1265 39.1931 44.4595Z" fill="#2F2E41"/>
<path d="M27.6642 40.4964C35.7136 40.4964 42.2389 34.4061 42.2389 26.8933C42.2389 19.3805 35.7136 13.2902 27.6642 13.2902C19.6147 13.2902 13.0894 19.3805 13.0894 26.8933C13.0894 34.4061 19.6147 40.4964 27.6642 40.4964Z" fill="#2F2E41"/>
<path d="M28.8639 39.942C33.7386 39.942 37.6904 36.2537 37.6904 31.704C37.6904 27.1543 33.7386 23.466 28.8639 23.466C23.9892 23.466 20.0375 27.1543 20.0375 31.704C20.0375 36.2537 23.9892 39.942 28.8639 39.942Z" fill="#D0CDE1"/>
<path d="M49.018 47.4931L49.0074 47.4956L46.9544 47.9554L42.6799 48.913L42.0967 49.0439L35.5962 50.4994L35.0441 50.6237L19.2728 54.156C18.2066 53.7753 17.1649 53.3375 16.153 52.8446C16.1432 52.8396 16.1325 52.8347 16.1228 52.8297C16.0651 52.8015 16.0083 52.7742 15.9515 52.7452C15.8263 52.6839 15.7018 52.6215 15.5778 52.558C14.8722 52.196 14.1846 51.8088 13.5151 51.3966C13.3429 51.2914 13.1725 51.1845 13.0038 51.076C12.9497 51.0412 12.8964 51.0064 12.8432 50.9716C12.7873 50.9351 12.7314 50.8987 12.6763 50.8622C12.5299 50.7653 12.3843 50.6673 12.2396 50.5682C13.7716 47.9695 17.4195 46.2422 21.0675 45.297C23.8207 44.5829 24.426 42.2361 24.3737 40.1477C24.3604 39.6713 24.3171 39.1961 24.2441 38.7245C24.1329 37.9739 23.9559 37.233 23.7151 36.5093L32.542 36.7844L33.4527 38.7427C33.4277 38.9578 33.4197 39.1743 33.4287 39.3905C33.4979 40.9968 34.5604 42.0356 35.8713 42.7058C36.0417 42.7928 36.2166 42.874 36.3941 42.9493C38.5438 43.8614 41.0743 43.9235 41.0743 43.9235C41.8448 43.844 42.6231 43.8577 43.3899 43.9641C43.5763 43.9906 43.7574 44.0224 43.9331 44.0594C44.9592 44.2734 45.9285 44.6783 46.7831 45.2498C47.1096 45.4665 47.4184 45.7055 47.7071 45.9647C48.2202 46.413 48.6617 46.9277 49.018 47.4931Z" fill="#D0CDE1"/>
<path d="M50.3423 48.5792C50.305 48.6115 50.2678 48.643 50.2305 48.6753C49.4486 49.3421 48.6294 49.9698 47.7763 50.5557C47.2039 50.9509 46.6163 51.3262 46.0136 51.6815C45.8814 51.7602 45.7482 51.8376 45.6142 51.9135C45.3817 52.046 45.147 52.1755 44.9104 52.302C44.6015 52.4677 44.2888 52.6281 43.9722 52.7833C43.8444 52.8471 43.7157 52.9084 43.587 52.9697C43.3988 53.06 43.2098 53.147 43.0189 53.2323C42.9861 53.2472 42.9533 53.2621 42.9204 53.2762L42.545 52.9854L46.9544 47.9554L47.8411 46.9439C47.8411 46.9439 48.1953 46.9439 49.0074 47.4956C49.4563 47.8074 49.8805 48.1491 50.2766 48.5179C50.2979 48.5386 50.3201 48.5585 50.3423 48.5792Z" fill="#D0CDE1"/>
<path d="M50.2802 48.5228C50.2682 48.5748 50.2516 48.6258 50.2305 48.6752C49.4486 49.3421 48.6294 49.9698 47.7763 50.5557C47.0362 50.8047 46.2683 50.9751 45.4873 51.0635C45.4873 51.0635 45.5538 51.375 45.6142 51.9135C45.3817 52.046 45.147 52.1755 44.9104 52.302C44.6015 52.4677 44.2888 52.6281 43.9722 52.7833C43.8444 52.8471 43.7157 52.9084 43.587 52.9697C43.3988 53.06 43.2098 53.147 43.0189 53.2323C42.9861 53.2472 42.9533 53.2621 42.9204 53.2762C42.7962 53.3325 42.6701 53.3872 42.5441 53.4419C40.9027 54.1485 39.1956 54.7139 37.4441 55.131C37.4343 55.1335 37.4254 55.1351 37.4157 55.1376C37.3012 55.165 37.1858 55.1915 37.0704 55.2171C36.9843 55.237 36.8973 55.2561 36.8104 55.2743C36.7996 55.2776 36.7887 55.2801 36.7775 55.2818C36.5991 55.3207 36.4207 55.358 36.2405 55.3919C36.1394 55.4118 36.0382 55.4317 35.937 55.4507C35.8757 55.4632 35.8136 55.4739 35.7524 55.4847C35.6751 55.4988 35.5988 55.5121 35.5216 55.5261C35.479 55.5344 35.4364 55.541 35.3929 55.5477C35.2953 55.5642 35.1976 55.5808 35.1009 55.5965C34.9358 55.6231 34.7689 55.6487 34.603 55.6719C34.4823 55.6893 34.3624 55.7059 34.2417 55.7216C34.0997 55.7407 33.9577 55.7581 33.8148 55.7747C33.7757 55.7805 33.7367 55.7846 33.6976 55.7887C33.647 55.7945 33.5965 55.8003 33.5459 55.8061C33.4438 55.8177 33.3417 55.8285 33.2388 55.8384C33.1855 55.8442 33.1331 55.8492 33.0799 55.8542C32.9787 55.8641 32.8775 55.8732 32.7763 55.8815C32.6459 55.8931 32.5154 55.9031 32.384 55.913C32.2243 55.9246 32.0654 55.9354 31.9047 55.9445C31.8018 55.9503 31.6988 55.9561 31.595 55.961C31.3305 55.9743 31.066 55.9834 30.7997 55.99C30.6675 55.9934 30.5343 55.9958 30.4012 55.9975H30.3985C30.2663 55.9991 30.1331 56 30 56C28.6508 56.0005 27.3031 55.9164 25.966 55.7481C24.9852 55.6255 24.0201 55.4593 23.0707 55.2494C23.0325 55.2412 22.9944 55.2329 22.9571 55.2238C22.8612 55.2031 22.7663 55.1807 22.6713 55.1583C22.587 55.1384 22.5036 55.1177 22.4192 55.097C20.2461 54.5692 18.144 53.8136 16.153 52.8446C16.1432 52.8396 16.1325 52.8347 16.1228 52.8297C16.0651 52.8015 16.0083 52.7742 15.9515 52.7452C20.8234 51.6857 28.5222 50.0148 35.203 48.5833C35.3902 48.5435 35.5763 48.5038 35.7612 48.464C38.2287 47.9355 40.5399 47.4434 42.4953 47.0317C42.6976 46.9894 42.8959 46.948 43.0899 46.9074C45.1908 46.4667 46.8222 46.1321 47.7071 45.9647C47.9456 45.9138 48.1868 45.8743 48.4296 45.8463L50.2766 48.5178L50.2802 48.5228Z" fill="#2F2E41"/>
<path d="M14.3298 21.1048C16.7275 21.1048 18.6712 19.2906 18.6712 17.0528C18.6712 14.8149 16.7275 13.0008 14.3298 13.0008C11.9321 13.0008 9.98838 14.8149 9.98838 17.0528C9.98838 19.2906 11.9321 21.1048 14.3298 21.1048Z" fill="#2F2E41"/>
<path d="M40.9985 19.9471C43.3962 19.9471 45.3399 18.1329 45.3399 15.8951C45.3399 13.6572 43.3962 11.8431 40.9985 11.8431C38.6008 11.8431 36.6571 13.6572 36.6571 15.8951C36.6571 18.1329 38.6008 19.9471 40.9985 19.9471Z" fill="#2F2E41"/>
<path d="M36.347 14.1585C36.3471 13.1591 36.743 12.195 37.4585 11.4515C38.174 10.708 39.1587 10.2375 40.2233 10.1305C39.617 10.0687 39.0035 10.1268 38.4229 10.301C37.8423 10.4753 37.3075 10.7617 36.8535 11.1418C36.3994 11.5218 36.0362 11.9868 35.7876 12.5066C35.5389 13.0264 35.4104 13.5893 35.4104 14.1585C35.4104 14.7277 35.5389 15.2906 35.7876 15.8104C36.0362 16.3302 36.3994 16.7952 36.8535 17.1752C37.3075 17.5553 37.8423 17.8417 38.4229 18.016C39.0035 18.1902 39.617 18.2483 40.2233 18.1865C39.1587 18.0795 38.174 17.609 37.4585 16.8655C36.743 16.122 36.3471 15.1579 36.347 14.1585Z" fill="#2F2E41"/>
<path d="M9.47893 20.3304C8.72965 19.6164 8.28949 18.6692 8.24304 17.6708C8.19658 16.6724 8.54711 15.6931 9.22726 14.9212C8.74785 15.2731 8.35326 15.7153 8.06919 16.219C7.78513 16.7228 7.61796 17.2767 7.57859 17.8447C7.53922 18.4128 7.62853 18.9822 7.8407 19.5159C8.05286 20.0496 8.38312 20.5355 8.80996 20.9421C9.2368 21.3487 9.75064 21.6668 10.318 21.8757C10.8854 22.0845 11.4935 22.1795 12.1028 22.1543C12.7121 22.1292 13.3089 21.9845 13.8543 21.7297C14.3996 21.4749 14.8814 21.1157 15.2681 20.6755C14.4274 21.2945 13.3713 21.6016 12.3027 21.5379C11.2341 21.4742 10.2284 21.0441 9.47893 20.3304Z" fill="#2F2E41"/>
<path d="M27.6642 20.5259C22.5262 20.5259 18.3611 22.7936 18.3611 25.5909C18.3611 26.8425 19.1983 27.9865 20.5803 28.8702L22.3713 27.659L21.8842 29.5564C22.0863 29.6438 22.2927 29.7284 22.5079 29.8066L25.1834 26.8933V30.4723C26.0037 30.595 26.8333 30.6564 27.6642 30.6559C32.8021 30.6559 36.9672 28.3882 36.9672 25.5909C36.9672 22.7936 32.8021 20.5259 27.6642 20.5259Z" fill="#2F2E41"/>
<path d="M36.6571 15.8951C36.6571 15.8951 35.9828 18.7894 40.1962 19.9471L36.6571 15.8951Z" fill="#2F2E41"/>
<path d="M18.3611 16.4218C18.3611 16.4218 19.9116 19.6576 15.2601 21.1048L18.3611 16.4218Z" fill="#2F2E41"/>
<path d="M20.6605 34.9382C21.0517 34.836 21.1558 34.0428 20.8929 33.1665C20.6301 32.2903 20.0999 31.6628 19.7087 31.765C19.3176 31.8672 19.2135 32.6604 19.4763 33.5367C19.7392 34.4129 20.2693 35.0404 20.6605 34.9382Z" fill="#D0CDE1"/>
<path d="M38.5716 32.0208C38.6316 31.1126 38.3514 30.3574 37.946 30.3341C37.5405 30.3108 37.1633 31.0282 37.1033 31.9364C37.0434 32.8446 37.3235 33.5998 37.729 33.6231C38.1344 33.6464 38.5117 32.929 38.5716 32.0208Z" fill="#D0CDE1"/>
</g>
<defs>
<clipPath id="clip0_69_4936">
<rect width="60" height="56" fill="white"/>
</clipPath>
</defs>
</svg>
