<svg width="232" height="232" viewBox="0 0 232 232" fill="none" xmlns="http://www.w3.org/2000/svg">
<path d="M232 205.94H169.73V205.246H169.73C186.031 205.246 201.665 199.67 213.191 189.745C224.718 179.82 231.194 166.359 231.194 152.322V114.903H232V205.94Z" fill="#F2F2F2"/>
<path d="M62.0934 70.6941C60.438 71.2371 58.7476 71.6974 57.0306 72.0727C54.7627 72.5487 53.4822 72.7693 51.2932 72.0378C51.2163 72.0121 51.1429 71.9867 51.0736 71.9617C46.9245 70.4427 43.3777 67.9179 40.8649 64.6945C38.3522 61.4712 36.9819 57.6884 36.9209 53.8066C36.9099 53.6735 36.9099 53.5335 36.9099 53.3969C36.9078 52.739 36.9443 52.0814 37.0193 51.4267C37.1153 50.5349 37.2809 49.6497 37.5153 48.777L37.4934 48.7736C35.7211 47.2132 35.0392 45.0757 35.2653 42.9279C35.4202 41.4719 35.9568 40.0651 36.8349 38.8135C37.7129 37.562 38.9094 36.4984 40.3341 35.7028C42.567 34.494 45.0847 33.7288 47.7041 33.4629C48.4075 33.393 49.1148 33.3577 49.8228 33.357H56.4744C57.8482 33.0801 59.2438 32.8906 60.6499 32.7902H60.6608C74.0478 31.8341 84.6049 39.4758 83.6203 48.7736C83.613 48.7839 83.6021 48.7941 83.5948 48.8044C83.3104 49.2038 83.0588 49.5829 82.8363 49.9448C82.6211 50.2828 82.4388 50.6072 82.282 50.9145C81.0604 53.291 86.8659 90.1626 84.7836 90.7226C83.5985 91.0401 78.8213 63.603 79.6783 68.8203C80.7577 75.366 68.2607 68.7312 62.0934 70.6941Z" fill="#2F2E41"/>
<path d="M82.2602 137.347L100.817 171.388L29.4326 165.162L44.3338 132.484L82.2602 137.347Z" fill="#FFB6B6"/>
<path d="M119.512 205.597C107.099 209.155 94.017 210.664 80.9539 210.044L75.2734 202.112C75.2734 202.112 75.0355 205.066 74.6807 209.582C68.4623 208.962 62.325 207.841 56.3491 206.236C45.0163 203.184 34.393 198.456 23.6246 194.096C21.4435 182.901 20.6251 165.638 32.6836 155.588L97.5882 165.829C97.5882 165.829 108.002 172.535 105.216 174.938C102.43 177.336 101.999 176.965 103.829 178.541C105.659 180.117 109.614 182.224 109.655 183.602C109.671 184.14 114.11 193.898 119.512 205.597Z" fill="#2F2E41"/>
<path d="M70.9264 71.5686L55.2457 72.5106L45.1106 80.9434L41.5611 81.4889C38.3705 81.9787 35.4996 83.4596 33.4928 85.6508C31.4859 87.842 30.4827 90.5911 30.6733 93.3769C31.4034 104.028 33.0382 119.943 36.4549 125.106C41.7529 133.112 46.1289 130.6 41.7529 133.112C37.3769 135.624 34.4389 133.65 36.4549 137.62C38.4709 141.59 33.7302 146.682 33.7302 146.682L31.843 148.307L33.8446 149.013L97.6229 156.159C97.6229 156.159 92.1082 134.809 95.5571 129.565C99.0059 124.32 107.368 108.467 99.905 102.264L92.6078 80.1529L80.056 76.9653L70.9264 71.5686Z" fill="#6C63FF"/>
<path d="M165.849 159.194C164.8 159.166 163.77 158.941 162.831 158.536C161.893 158.131 161.067 157.555 160.413 156.849C159.758 156.142 159.289 155.321 159.039 154.444C158.788 153.566 158.763 152.651 158.963 151.764L129.046 134.318L132.616 126.006L167.973 146.951C169.682 147.352 171.162 148.28 172.13 149.558C173.098 150.836 173.489 152.376 173.227 153.885C172.965 155.394 172.069 156.768 170.71 157.747C169.35 158.725 167.621 159.24 165.849 159.194V159.194Z" fill="#FFB6B6"/>
<path d="M81.3485 79.1087L77.0012 80.5908L100.192 119.59L148.199 147.767L155.12 137.696L118.576 110.516L103.945 86.3561C101.886 82.956 98.4368 80.3334 94.2636 78.9949C90.0903 77.6564 85.4891 77.6969 81.3485 79.1087Z" fill="#6C63FF"/>
<path d="M62.2699 68.1388C70.966 68.1388 78.0156 62.0688 78.0156 54.581C78.0156 47.0932 70.966 41.0232 62.2699 41.0232C53.5738 41.0232 46.5242 47.0932 46.5242 54.581C46.5242 62.0688 53.5738 68.1388 62.2699 68.1388Z" fill="#FFB6B6"/>
<path d="M75.9624 48.8477C75.6999 48.967 75.4409 49.0769 75.1784 49.1868C74.9049 49.2998 74.6314 49.4129 74.3542 49.5196C69.0848 51.5763 64.7926 51.8056 62.1889 48.8477C62.1176 47.2916 61.7108 45.7604 60.9891 44.3324C61.1166 45.9282 60.6282 47.5156 59.5997 48.8477H54.3558C48.955 51.9343 46.1836 54.7697 49.9323 64.9024C50.1767 65.5681 51.8505 89.2184 52.3282 91.0364C44.1524 88.336 37.0996 59.6649 36.921 52.1101C36.91 51.9877 36.91 51.8589 36.91 51.7333C36.9079 51.1281 36.9444 50.5233 37.0194 49.9216C37.1157 49.1 37.2814 48.2857 37.5154 47.4849L37.4935 47.4818C36.6616 46.797 36.027 45.9544 35.6402 45.0211C35.2534 44.0879 35.125 43.0897 35.2654 42.1062C36.6369 40.5599 38.3342 39.2497 40.2686 38.244C42.0276 37.5106 43.8611 36.9178 45.7459 36.473C45.7933 36.4636 45.8335 36.4542 45.8809 36.4448C46.4571 36.3097 47.0478 36.1873 47.6386 36.0805C48.856 35.8607 50.0869 35.7003 51.3254 35.6001C51.4165 35.597 51.5041 35.5907 51.5843 35.5907C52.0797 35.591 52.5658 35.7059 52.9919 35.9235C52.9956 35.9235 52.9956 35.9267 53.0028 35.9267C53.4122 36.1373 53.7517 36.4351 53.9887 36.7915C54.2257 37.1479 54.3521 37.5508 54.3558 37.9614H60.1978C60.4129 37.9614 60.6281 37.9677 60.8432 37.9771C68.979 38.2565 75.5175 41.2521 75.9369 48.1381C75.9551 48.3767 75.9624 48.6091 75.9624 48.8477Z" fill="#2F2E41"/>
<path d="M41.4234 49.3927C47.1525 49.3927 51.7968 45.3938 51.7968 40.4608C51.7968 35.5278 47.1525 31.5288 41.4234 31.5288C35.6944 31.5288 31.05 35.5278 31.05 40.4608C31.05 45.3938 35.6944 49.3927 41.4234 49.3927Z" fill="#2F2E41"/>
<path d="M55.665 36.3296C54.4865 41.1571 48.6722 44.0443 43.1098 42.8633C40.4386 42.2961 38.1385 40.8385 36.7154 38.8111C35.2924 36.7837 34.863 34.3526 35.5217 32.0526C36.8934 27.263 43.6441 28.6438 48.077 25.5189C54.3479 21.0982 57.2543 29.8193 55.665 36.3296Z" fill="#2F2E41"/>
<path d="M32.6169 170.708C41.4579 139.664 58.9755 112.982 87.9871 92.0762C89.1099 90.4858 90.9195 89.3438 93.0189 88.9008C95.1183 88.4577 97.3361 88.7498 99.1857 89.713L168.154 125.719C170.001 126.686 171.327 128.244 171.841 130.052C172.356 131.86 172.017 133.769 170.898 135.362C159.825 167.216 143.239 194.857 115.528 213.994C114.405 215.584 112.596 216.726 110.496 217.169C108.397 217.612 106.179 217.32 104.329 216.357L35.3615 180.351C33.5145 179.384 32.1882 177.826 31.6736 176.018C31.1591 174.211 31.4983 172.301 32.6169 170.708Z" fill="#F2F2F2"/>
<path opacity="0.2" d="M44.8752 181.17C43.0281 180.204 41.7019 178.645 41.1873 176.838C40.6728 175.03 41.0121 173.12 42.1307 171.528C50.9716 140.484 68.4893 113.801 97.5008 92.8957C98.244 91.8546 99.2934 91.0011 100.543 90.4214L99.1857 89.7129C97.3361 88.7497 95.1183 88.4576 93.0189 88.9006C90.9195 89.3436 89.1099 90.4856 87.987 92.0759C58.9755 112.982 41.4579 139.664 32.6169 170.708C31.4983 172.301 31.1591 174.21 31.6736 176.018C32.1881 177.826 33.5144 179.384 35.3615 180.351L104.329 216.357C105.557 216.993 106.958 217.338 108.39 217.358C109.823 217.377 111.236 217.07 112.486 216.468L44.8752 181.17Z" fill="black"/>
<path d="M125.757 163.826L79.4625 139.808C78.727 139.425 78.198 138.807 77.9916 138.089C77.7853 137.37 77.9185 136.611 78.362 135.977C78.8055 135.343 79.523 134.887 80.3569 134.708C81.1909 134.53 82.0731 134.643 82.8097 135.024L129.104 159.043C129.838 159.426 130.365 160.044 130.57 160.762C130.776 161.479 130.642 162.238 130.199 162.871C129.756 163.504 129.04 163.96 128.207 164.139C127.375 164.318 126.493 164.205 125.757 163.826L125.757 163.826Z" fill="white"/>
<path d="M98.8258 131.976L88.641 126.692C87.903 126.312 87.3705 125.694 87.1608 124.976C86.9512 124.258 87.0814 123.497 87.523 122.862C87.9645 122.226 88.6812 121.768 89.5153 121.587C90.3495 121.407 91.2327 121.519 91.9708 121.899L91.9883 121.908L102.173 127.192C102.907 127.576 103.434 128.194 103.64 128.912C103.845 129.629 103.712 130.388 103.269 131.021C102.826 131.654 102.109 132.11 101.276 132.289C100.444 132.468 99.5623 132.355 98.8258 131.976Z" fill="white"/>
<path d="M118.399 174.341L72.1046 150.323C71.3683 149.941 70.8381 149.323 70.6306 148.605C70.4231 147.886 70.5552 147.127 70.9979 146.492C71.4407 145.858 72.1578 145.401 72.9917 145.221C73.8256 145.042 74.7081 145.155 75.4453 145.536L75.4518 145.539L121.746 169.557C122.48 169.941 123.007 170.559 123.212 171.277C123.418 171.994 123.284 172.752 122.841 173.385C122.398 174.018 121.682 174.474 120.849 174.653C120.017 174.833 119.135 174.72 118.399 174.341L118.399 174.341Z" fill="white"/>
<path d="M131.636 118.539C139.104 118.539 145.158 113.327 145.158 106.896C145.158 100.466 139.104 95.2537 131.636 95.2537C124.168 95.2537 118.114 100.466 118.114 106.896C118.114 113.327 124.168 118.539 131.636 118.539Z" fill="#3F3D56"/>
<path d="M108.328 231.653C124.29 231.653 137.229 220.511 137.229 206.768C137.229 193.025 124.29 181.883 108.328 181.883C92.3669 181.883 79.4277 193.025 79.4277 206.768C79.4277 220.511 92.3669 231.653 108.328 231.653Z" fill="white"/>
<path d="M108.328 232C102.532 232 96.8668 230.52 92.0478 227.748C87.2289 224.975 83.473 221.035 81.255 216.424C79.0371 211.813 78.4568 206.74 79.5875 201.846C80.7181 196.951 83.509 192.455 87.6072 188.927C91.7054 185.398 96.9268 182.995 102.611 182.021C108.295 181.048 114.187 181.547 119.542 183.457C124.896 185.367 129.473 188.601 132.693 192.75C135.913 196.899 137.632 201.778 137.632 206.768C137.623 213.458 134.533 219.871 129.039 224.601C123.546 229.332 116.097 231.992 108.328 232ZM108.328 182.231C102.692 182.231 97.1822 183.67 92.4958 186.366C87.8094 189.062 84.1568 192.894 81.9999 197.378C79.8431 201.862 79.2787 206.795 80.3783 211.555C81.4779 216.315 84.192 220.687 88.1775 224.119C92.1629 227.551 97.2407 229.888 102.769 230.834C108.297 231.781 114.026 231.295 119.234 229.438C124.441 227.581 128.892 224.436 132.023 220.4C135.154 216.365 136.825 211.621 136.825 206.768C136.817 200.262 133.812 194.026 128.469 189.425C123.127 184.825 115.883 182.238 108.328 182.231Z" fill="#3F3D56"/>
<path d="M104.386 219.719C103.886 219.719 103.394 219.619 102.948 219.427C102.502 219.235 102.113 218.956 101.814 218.612L93.9295 209.56C93.6757 209.269 93.4911 208.938 93.386 208.586C93.2809 208.233 93.2575 207.867 93.317 207.507C93.3766 207.147 93.518 206.8 93.7331 206.487C93.9483 206.174 94.233 205.901 94.5709 205.683C94.9088 205.464 95.2933 205.306 95.7026 205.216C96.1118 205.125 96.5376 205.106 96.9557 205.157C97.3739 205.209 97.7761 205.331 98.1394 205.516C98.5027 205.702 98.82 205.947 99.0731 206.238L104.231 212.16L117.48 195.049C117.714 194.746 118.015 194.487 118.366 194.284C118.717 194.082 119.11 193.941 119.524 193.87C119.938 193.799 120.364 193.798 120.779 193.869C121.193 193.939 121.587 194.079 121.938 194.281C122.289 194.483 122.591 194.742 122.826 195.044C123.061 195.346 123.224 195.685 123.307 196.041C123.39 196.398 123.39 196.765 123.308 197.121C123.227 197.478 123.064 197.817 122.83 198.12L107.061 218.487C106.775 218.855 106.392 219.159 105.942 219.373C105.492 219.588 104.989 219.706 104.475 219.718C104.445 219.719 104.415 219.719 104.386 219.719Z" fill="#6C63FF"/>
<path d="M201.663 80.6636C202.811 80.579 203.687 79.9528 203.618 79.2649C203.55 78.577 202.564 78.0879 201.415 78.1725C200.267 78.257 199.391 78.8832 199.46 79.5711C199.528 80.259 200.514 80.7481 201.663 80.6636Z" fill="white"/>
<path d="M214.584 76.8893C215.733 76.8047 216.608 76.1785 216.54 75.4906C216.472 74.8027 215.485 74.3136 214.337 74.3982C213.188 74.4827 212.313 75.1089 212.381 75.7968C212.449 76.4847 213.436 76.9738 214.584 76.8893Z" fill="#3F3D56"/>
<path d="M195.538 72.1752C196.686 72.0906 197.562 71.4644 197.493 70.7765C197.425 70.0886 196.439 69.5995 195.29 69.6841C194.142 69.7686 193.266 70.3948 193.335 71.0827C193.403 71.7706 194.389 72.2597 195.538 72.1752Z" fill="#FF6584"/>
<path d="M190.118 69.4399C190.612 69.3437 190.882 68.7698 190.722 68.158C190.561 67.5462 190.03 67.1281 189.536 67.2243C189.042 67.3205 188.771 67.8944 188.932 68.5062C189.092 69.118 189.623 69.536 190.118 69.4399Z" fill="#E6E6E6"/>
<path d="M186.259 62.7997C186.753 62.7036 187.023 62.1296 186.863 61.5178C186.702 60.906 186.171 60.488 185.677 60.5842C185.183 60.6803 184.912 61.2543 185.073 61.8661C185.233 62.4779 185.764 62.8959 186.259 62.7997Z" fill="#3F3D56"/>
<path d="M204.773 72.1249C205.268 72.0288 205.538 71.4548 205.378 70.843C205.217 70.2312 204.686 69.8132 204.192 69.9094C203.698 70.0055 203.427 70.5795 203.588 71.1913C203.748 71.8031 204.279 72.2211 204.773 72.1249Z" fill="#E6E6E6"/>
<path d="M199.129 76.1591C199.624 76.0629 199.894 75.489 199.734 74.8772C199.573 74.2654 199.042 73.8474 198.548 73.9435C198.054 74.0397 197.783 74.6136 197.944 75.2255C198.104 75.8373 198.635 76.2553 199.129 76.1591Z" fill="#FF6584"/>
<path d="M209.404 79.445C209.898 79.3488 210.169 78.7749 210.008 78.1631C209.848 77.5513 209.317 77.1333 208.823 77.2294C208.328 77.3256 208.058 77.8995 208.218 78.5113C208.379 79.1232 208.91 79.5412 209.404 79.445Z" fill="#3F3D56"/>
<path d="M148.314 29.2268C148.511 28.5575 147.765 27.8173 146.648 27.5735C145.531 27.3297 144.465 27.6746 144.268 28.3439C144.071 29.0131 144.817 29.7533 145.935 29.9971C147.052 30.2409 148.117 29.896 148.314 29.2268Z" fill="white"/>
<path d="M134.67 29.1509C134.867 28.4817 134.121 27.7415 133.004 27.4977C131.886 27.2539 130.821 27.5988 130.624 28.268C130.427 28.9373 131.173 29.6775 132.29 29.9213C133.408 30.1651 134.473 29.8202 134.67 29.1509Z" fill="#3F3D56"/>
<path d="M150.875 38.9738C151.072 38.3046 150.326 37.5644 149.209 37.3206C148.091 37.0768 147.026 37.4217 146.829 38.0909C146.632 38.7602 147.378 39.5004 148.495 39.7442C149.613 39.988 150.678 39.6431 150.875 38.9738Z" fill="#FF6584"/>
<path d="M154.055 42.6493C154.136 42.026 153.794 41.4814 153.29 41.4329C152.786 41.3845 152.313 41.8505 152.232 42.4739C152.151 43.0972 152.493 43.6418 152.997 43.6903C153.501 43.7387 153.975 43.2727 154.055 42.6493Z" fill="#E6E6E6"/>
<path d="M155.178 50.0114C155.258 49.388 154.916 48.8434 154.412 48.795C153.908 48.7465 153.435 49.2126 153.354 49.8359C153.273 50.4593 153.616 51.0039 154.119 51.0523C154.623 51.1008 155.097 50.6347 155.178 50.0114Z" fill="#3F3D56"/>
<path d="M141.228 35.9814C141.309 35.358 140.966 34.8134 140.463 34.7649C139.959 34.7165 139.485 35.1825 139.404 35.8059C139.323 36.4292 139.666 36.9738 140.17 37.0223C140.673 37.0708 141.147 36.6047 141.228 35.9814Z" fill="#E6E6E6"/>
<path d="M148.094 33.7603C148.175 33.1369 147.833 32.5923 147.329 32.5439C146.825 32.4954 146.352 32.9615 146.271 33.5848C146.19 34.2082 146.533 34.7528 147.036 34.8012C147.54 34.8497 148.014 34.3836 148.094 33.7603Z" fill="#FF6584"/>
<path d="M139.635 27.7594C139.716 27.1361 139.373 26.5915 138.87 26.543C138.366 26.4946 137.892 26.9606 137.812 27.584C137.731 28.2073 138.073 28.7519 138.577 28.8004C139.081 28.8488 139.554 28.3828 139.635 27.7594Z" fill="#3F3D56"/>
<path d="M0.806318 91.0364H0V0H62.27V0.69428H62.2699C45.9688 0.69428 30.3353 6.2701 18.8086 16.1951C7.28193 26.1201 0.806318 39.5814 0.806318 53.6175V91.0364Z" fill="#F2F2F2"/>
<path d="M36.9172 171.037C35.8867 170.673 34.9603 170.122 34.2019 169.419C33.4435 168.717 32.8713 167.881 32.5249 166.97C32.1785 166.059 32.0661 165.093 32.1956 164.141C32.325 163.189 32.6932 162.272 33.2746 161.454L11.0583 134.564L18.1855 127.444L44.3008 159.548C45.8268 160.493 46.8972 161.887 47.3091 163.467C47.721 165.046 47.4458 166.7 46.5357 168.116C45.6255 169.533 44.1437 170.612 42.371 171.15C40.5982 171.689 38.6578 171.648 36.9172 171.037H36.9172Z" fill="#FFB6B6"/>
<path d="M37.4277 85.8241C36.3038 85.2547 34.9809 85.0488 33.6966 85.2435C32.4123 85.4382 31.2506 86.0207 30.4201 86.8864L0.403076 123.034L28.2211 157.053L39.1064 146.986L22.1737 124.075L44.6773 105.626C46.5266 102.138 46.8091 98.1832 45.4702 94.526C44.1313 90.8689 41.266 87.7686 37.4277 85.8241Z" fill="#6C63FF"/>
</svg>
