<svg width="220" height="220" viewBox="0 0 220 220" fill="none" xmlns="http://www.w3.org/2000/svg">
<g clip-path="url(#clip0_69_8110)">
<path d="M140.319 49.316H128.614V151.731C128.614 153.338 128.305 154.929 127.706 156.414C127.107 157.898 126.229 159.247 125.121 160.384C124.014 161.52 122.7 162.421 121.253 163.036C119.807 163.651 118.256 163.967 116.69 163.967H27.1957V164.084C27.1957 165.691 27.5041 167.282 28.1033 168.767C28.7025 170.252 29.5807 171.6 30.6879 172.737C31.7951 173.873 33.1095 174.774 34.5561 175.389C36.0027 176.004 37.5532 176.321 39.119 176.321H140.319C141.885 176.321 143.436 176.004 144.882 175.389C146.329 174.774 147.643 173.873 148.75 172.737C149.858 171.6 150.736 170.252 151.335 168.767C151.934 167.282 152.243 165.691 152.243 164.084V61.5521C152.243 58.3069 150.987 55.1946 148.75 52.8999C146.514 50.6052 143.482 49.316 140.319 49.316Z" fill="#F2F2F2"/>
<path d="M195.81 212.07C196.017 212.08 196.222 212.024 196.397 211.91C196.573 211.796 196.71 211.629 196.79 211.433C196.87 211.237 196.889 211.02 196.845 210.812C196.801 210.604 196.695 210.415 196.543 210.27L196.474 209.987C196.483 209.965 196.492 209.942 196.501 209.919C196.71 209.413 197.06 208.982 197.507 208.679C197.954 208.377 198.478 208.216 199.013 208.218C199.549 208.22 200.072 208.385 200.516 208.691C200.961 208.997 201.308 209.431 201.513 209.938C202.333 211.964 203.376 213.994 203.633 216.136C203.746 217.083 203.699 218.043 203.492 218.973C205.417 214.663 206.417 209.979 206.423 205.238C206.424 204.048 206.359 202.859 206.231 201.677C206.124 200.708 205.976 199.745 205.787 198.79C204.755 193.605 202.54 188.746 199.322 184.611C197.765 183.739 196.506 182.399 195.714 180.77C195.428 180.184 195.225 179.559 195.113 178.914C195.288 178.937 195.775 176.192 195.642 176.024C195.887 175.642 196.325 175.453 196.593 175.081C197.922 173.231 199.754 173.554 200.71 176.068C202.753 177.126 202.773 178.881 201.52 180.569C200.722 181.642 200.613 183.095 199.913 184.245C199.985 184.339 200.06 184.431 200.132 184.525C201.448 186.262 202.595 188.127 203.556 190.093C203.322 187.89 203.601 185.662 204.37 183.592C205.15 181.662 206.611 180.037 207.897 178.369C208.237 177.921 208.699 177.586 209.225 177.408C209.75 177.229 210.316 177.214 210.849 177.365C211.383 177.516 211.861 177.826 212.223 178.256C212.585 178.686 212.815 179.216 212.883 179.78C212.886 179.804 212.888 179.829 212.891 179.854C212.7 179.964 212.513 180.082 212.33 180.206C212.1 180.363 211.922 180.589 211.819 180.852C211.716 181.115 211.692 181.404 211.752 181.681C211.812 181.958 211.952 182.211 212.154 182.405C212.356 182.599 212.61 182.725 212.883 182.769L212.911 182.773C212.843 183.48 212.723 184.18 212.551 184.868C214.201 191.418 210.638 193.804 205.551 193.911C205.439 193.97 205.329 194.029 205.217 194.085C206.183 196.895 206.789 199.821 207.019 202.791C207.15 204.543 207.142 206.303 206.996 208.054L207.005 207.992C207.374 206.045 208.386 204.288 209.87 203.018C212.075 201.16 215.19 200.475 217.569 198.981C217.822 198.815 218.116 198.726 218.416 198.725C218.717 198.724 219.011 198.812 219.265 198.977C219.518 199.142 219.72 199.378 219.847 199.658C219.974 199.937 220.021 200.248 219.981 200.554L219.972 200.619C219.617 200.767 219.272 200.938 218.938 201.13C218.747 201.241 218.56 201.358 218.377 201.482C218.147 201.64 217.969 201.865 217.866 202.129C217.763 202.392 217.74 202.681 217.799 202.958C217.859 203.235 217.999 203.487 218.201 203.681C218.403 203.875 218.657 204.002 218.93 204.045L218.958 204.05C218.978 204.053 218.996 204.056 219.016 204.059C218.41 205.543 217.559 206.91 216.502 208.098C215.47 213.816 211.038 214.358 206.297 212.693H206.294C205.774 215.013 205.02 217.271 204.045 219.431H196.011C195.982 219.339 195.956 219.245 195.93 219.153C196.674 219.201 197.421 219.156 198.153 219.017C197.557 218.267 196.961 217.51 196.365 216.76C196.352 216.746 196.339 216.731 196.328 216.715C196.025 216.331 195.72 215.95 195.418 215.566L195.418 215.565C195.401 214.388 195.533 213.213 195.809 212.07L195.81 212.07Z" fill="#F2F2F2"/>
<path d="M107.322 35.3847C107.616 35.8408 108.002 36.226 108.455 36.5137C108.907 36.8015 109.415 36.9849 109.944 37.0513C110.472 37.1177 111.009 37.0655 111.516 36.8982C112.023 36.731 112.488 36.4528 112.88 36.0828L129.583 43.8162L132.803 39.6009L112.899 30.5647C112.243 29.9341 111.385 29.5724 110.486 29.5481C109.588 29.5237 108.712 29.8384 108.025 30.4326C107.337 31.0267 106.886 31.859 106.757 32.7717C106.627 33.6844 106.828 34.6141 107.322 35.3847H107.322Z" fill="#A0616A"/>
<path d="M179.005 40.2069L180.661 49.8407C180.738 50.2901 180.723 50.7512 180.617 51.1943C180.51 51.6374 180.314 52.0527 180.042 52.4135C179.77 52.7744 179.427 53.0729 179.036 53.2898C178.644 53.5067 178.213 53.6372 177.77 53.673L149.621 55.9446L116.533 40.7477L120.485 33.0488L149.208 42.3833L179.005 40.2069Z" fill="#6C63FF"/>
<path d="M113.124 33.3027H11.9233C5.33826 33.3027 0 38.781 0 45.5388V148.071C0 154.829 5.33826 160.307 11.9233 160.307H113.124C119.709 160.307 125.047 154.829 125.047 148.071V45.5388C125.047 38.781 119.709 33.3027 113.124 33.3027Z" fill="#F2F2F2"/>
<path d="M11.9234 35.819C10.6796 35.819 9.44803 36.0704 8.29892 36.5589C7.14982 37.0474 6.10571 37.7633 5.22622 38.6659C4.34673 39.5684 3.64908 40.6399 3.1731 41.8192C2.69712 42.9984 2.45215 44.2623 2.45215 45.5388V148.071C2.45215 150.649 3.45001 153.121 5.22622 154.944C7.00243 156.767 9.41149 157.791 11.9234 157.791H76.512C82.5637 157.791 88.5561 156.568 94.1472 154.191C99.7382 151.814 104.818 148.331 109.098 143.94C113.377 139.548 116.771 134.335 119.087 128.597C121.403 122.859 122.595 116.71 122.595 110.499V45.5388C122.595 44.2623 122.35 42.9984 121.874 41.8192C121.398 40.6399 120.7 39.5684 119.821 38.6659C118.941 37.7633 117.897 37.0474 116.748 36.5589C115.599 36.0704 114.367 35.819 113.124 35.819H11.9234Z" fill="white"/>
<path d="M90.8138 66.9359H34.0121C33.4909 66.9359 32.991 66.7234 32.6225 66.3452C32.2539 65.967 32.0469 65.454 32.0469 64.9191C32.0469 64.3842 32.2539 63.8713 32.6225 63.493C32.991 63.1148 33.4909 62.9023 34.0121 62.9023H90.8138C91.335 62.9023 91.8348 63.1148 92.2034 63.493C92.5719 63.8713 92.779 64.3842 92.779 64.9191C92.779 65.454 92.5719 65.967 92.2034 66.3452C91.8348 66.7234 91.335 66.9359 90.8138 66.9359Z" fill="#F2F2F2"/>
<path d="M90.8138 109.943H34.0121C33.4909 109.943 32.991 109.731 32.6225 109.353C32.2539 108.974 32.0469 108.461 32.0469 107.926C32.0469 107.392 32.2539 106.879 32.6225 106.5C32.991 106.122 33.4909 105.91 34.0121 105.91H90.8138C91.335 105.91 91.8348 106.122 92.2034 106.5C92.5719 106.879 92.779 107.392 92.779 107.926C92.779 108.461 92.5719 108.974 92.2034 109.353C91.8348 109.731 91.335 109.943 90.8138 109.943Z" fill="#F2F2F2"/>
<path d="M113.88 88.4537H10.9462C10.425 88.4537 9.92511 88.2412 9.55656 87.863C9.18801 87.4848 8.98096 86.9718 8.98096 86.4369C8.98096 85.902 9.18801 85.389 9.55656 85.0108C9.92511 84.6326 10.425 84.4201 10.9462 84.4201H113.88C114.401 84.4201 114.901 84.6326 115.269 85.0108C115.638 85.389 115.845 85.902 115.845 86.4369C115.845 86.9718 115.638 87.4848 115.269 87.863C114.901 88.2412 114.401 88.4537 113.88 88.4537Z" fill="#F2F2F2"/>
<path d="M175.448 82.6688L165.194 105.088L204.64 100.988L196.406 79.4661L175.448 82.6688Z" fill="#A0616A"/>
<path d="M184.619 211.523L180.879 211.49L179.223 196.341L184.743 196.389L184.619 211.523Z" fill="#A0616A"/>
<path d="M172.639 217.626C172.636 218.081 172.809 218.519 173.119 218.843C173.43 219.168 173.854 219.352 174.297 219.357L181.733 219.42L183.035 216.713L183.513 219.434L186.318 219.46L185.61 209.753L184.634 209.687L180.652 209.405L179.368 209.317L179.345 212.063L173.372 216.221C173.148 216.377 172.965 216.586 172.837 216.831C172.709 217.075 172.641 217.348 172.639 217.626Z" fill="#2F2E41"/>
<path d="M143.23 211.54L139.664 210.381L142.419 195.402L147.682 197.112L143.23 211.54Z" fill="#A0616A"/>
<path d="M130.032 213.762C129.899 214.196 129.938 214.666 130.143 215.07C130.347 215.474 130.699 215.778 131.121 215.916L138.211 218.219L140.23 216.023L139.908 218.769L142.582 219.64L144.684 210.148L143.77 209.79L140.045 208.32L138.843 207.848L138.035 210.467L131.135 212.64C130.876 212.721 130.641 212.866 130.449 213.061C130.257 213.257 130.114 213.497 130.032 213.762Z" fill="#2F2E41"/>
<path d="M202.843 94.6831L166.977 101.427C166.977 101.427 161.225 105.843 162.764 107.425C164.302 109.006 164.541 108.761 163.53 109.799C162.519 110.837 160.333 112.224 160.312 113.131C160.29 114.039 144.24 154.759 144.24 154.759C144.24 154.759 146.023 153.844 144.686 155.216C143.348 156.589 143.348 157.723 143.348 157.723L137.107 200.969L147.243 201.581L157.169 162.155L179.309 125.322C179.309 125.322 181.506 158.168 181.598 160.352C181.69 162.537 183.027 159.792 181.69 162.537C180.352 165.282 179.461 163.452 180.352 165.282C181.244 167.112 177.14 204.37 177.14 204.37H186.393L206.236 127.144C206.236 127.144 213.297 105.066 202.843 94.6831Z" fill="#2F2E41"/>
<path d="M192.278 32.9118L177.911 31.3799L174.189 36.3391L169.852 38.7092C168.017 39.7122 166.503 41.2364 165.49 43.0995C164.476 44.9626 164.008 47.0857 164.139 49.2151L169.207 79.4662C169.207 79.4662 164.926 89.3574 167.869 91.8193C170.812 94.2812 165.594 100.378 171.882 97.3096C178.169 94.2409 205.319 97.7672 205.319 97.7672L199.523 80.8387L203.853 64.2042L204.329 50.2565C204.418 47.6501 203.665 45.0867 202.186 42.9659C200.707 40.8451 198.586 39.2859 196.153 38.5315L195.548 38.3438L192.278 32.9118Z" fill="#6C63FF"/>
<path d="M212.057 21.609C212.151 25.7647 210.637 29.7886 208.463 33.323C207.817 31.2597 206.656 29.3818 205.445 27.5916C206.055 31.4642 205.405 35.4353 203.595 38.8904C203.531 38.9373 203.465 38.9808 203.397 39.0208C201.624 40.1147 199.378 40.5578 197.461 39.7677C201.422 35.3861 201.926 28.1265 198.605 23.2119C197.665 21.8173 196.449 20.584 195.867 18.997C194.947 16.4648 195.831 13.6768 196.388 11.0367C196.91 8.57963 197.001 5.65566 195.395 3.85492C195.566 3.60327 195.8 3.40295 196.072 3.2745C196.344 3.14605 196.644 3.09408 196.942 3.12392C197.932 3.26748 198.653 4.1509 199.112 5.06077C199.571 5.9706 199.874 6.97902 200.514 7.76489C201.699 9.23584 203.717 9.5836 205.418 10.3588C209.536 12.2414 211.958 16.9848 212.057 21.609Z" fill="#2F2E41"/>
<path d="M105.952 219.456C105.952 219.527 105.965 219.598 105.992 219.664C106.019 219.73 106.058 219.79 106.107 219.841C106.156 219.892 106.215 219.932 106.279 219.959C106.344 219.986 106.413 220 106.483 220H219.407C219.548 220 219.683 219.943 219.782 219.841C219.882 219.738 219.938 219.6 219.938 219.456C219.938 219.311 219.882 219.173 219.782 219.071C219.683 218.968 219.548 218.911 219.407 218.911H106.483C106.413 218.911 106.344 218.925 106.279 218.952C106.215 218.979 106.156 219.02 106.107 219.07C106.058 219.121 106.019 219.181 105.992 219.247C105.965 219.313 105.952 219.384 105.952 219.456Z" fill="#CCCCCC"/>
<path d="M212.946 117.926C215.162 117.926 216.958 116.082 216.958 113.808C216.958 111.534 215.162 109.691 212.946 109.691C210.73 109.691 208.933 111.534 208.933 113.808C208.933 116.082 210.73 117.926 212.946 117.926Z" fill="#6C63FF"/>
<path d="M177.39 19.2329C177.625 18.3876 176.003 23.5549 176.786 23.6482C180.351 24.0679 185.245 26.2529 187.728 27.2723C187.84 27.259 187.952 27.2456 188.06 27.229C188.327 27.199 188.586 27.1557 188.843 27.1057C194.625 25.9831 196.848 16.8686 196.848 16.7853C196.848 16.3756 195.89 5.12162 194.38 4.95508C193.984 4.91093 193.585 4.88869 193.187 4.88845H189.44C188.665 4.71703 187.88 4.60017 187.089 4.53867H187.082C179.541 3.94902 173.595 8.66611 174.151 14.4059C174.154 14.4126 174.16 14.4193 174.164 14.4259C174.325 14.6724 174.466 14.9056 174.591 15.1288C174.713 15.3387 174.815 15.5386 174.904 15.7284C175.591 17.1942 173.824 19.0386 174.996 19.3829C176.554 19.8407 170.898 34.89 177.065 34.89C174.065 35.7654 176.741 21.5648 177.39 19.2329Z" fill="#2F2E41"/>
<path d="M184.122 28.0632C189.02 28.0632 192.991 23.9882 192.991 18.9614C192.991 13.9346 189.02 9.85962 184.122 9.85962C179.224 9.85962 175.253 13.9346 175.253 18.9614C175.253 23.9882 179.224 28.0632 184.122 28.0632Z" fill="#A0616A"/>
<path d="M174.15 14.9022C174.298 14.9822 174.443 15.0554 174.591 15.1287C174.746 15.2053 174.9 15.282 175.055 15.3519C178.025 16.7344 180.442 16.8876 181.909 14.9022C181.948 13.8575 182.177 12.8295 182.583 11.8707C182.511 12.9421 182.786 14.0079 183.366 14.9022H186.319C189.361 16.9743 190.924 17.1908 188.812 23.9933C188.223 25.8888 185.883 36.9187 186.803 38.5543C187.07 38.5244 189.904 26.4432 190.161 26.3933C195.942 25.2706 199.616 15.4952 199.146 14.9422C199.148 13.3696 198.796 11.8179 198.116 10.4083C197.257 8.62249 195.917 7.12664 194.255 6.09763C193.265 5.60474 192.232 5.20662 191.17 4.90835C191.144 4.90168 191.121 4.89501 191.095 4.88836C190.769 4.79841 190.437 4.71513 190.105 4.64517C189.418 4.49647 188.724 4.38858 188.026 4.32204C187.977 4.31871 187.927 4.31537 187.881 4.31537C187.603 4.31604 187.329 4.3931 187.089 4.53858C187.085 4.53858 187.085 4.5419 187.082 4.5419C186.911 4.6448 186.761 4.78184 186.641 4.94497C186.431 5.21946 186.318 5.55871 186.319 5.90772H183.03C182.909 5.90772 182.787 5.91105 182.665 5.9177C180.47 5.99468 178.382 6.90949 176.81 8.48311C175.237 10.0567 174.294 12.1759 174.164 14.4258C174.154 14.5857 174.15 14.7423 174.15 14.9022Z" fill="#2F2E41"/>
<path d="M193.543 11.9926C196.77 11.9926 199.386 9.30799 199.386 5.99632C199.386 2.68464 196.77 0 193.543 0C190.315 0 187.699 2.68464 187.699 5.99632C187.699 9.30799 190.315 11.9926 193.543 11.9926Z" fill="#2F2E41"/>
<path d="M212.991 115.506C213.276 115.045 213.46 114.525 213.53 113.984C213.601 113.442 213.555 112.891 213.398 112.369C213.24 111.847 212.974 111.367 212.618 110.961C212.261 110.555 211.823 110.233 211.334 110.018L211.363 91.2127L206.296 89.9257L206.421 112.261C206.129 113.133 206.16 114.085 206.506 114.936C206.853 115.787 207.492 116.478 208.301 116.878C209.111 117.278 210.036 117.36 210.9 117.107C211.764 116.854 212.508 116.284 212.991 115.506V115.506Z" fill="#A0616A"/>
<path d="M187.901 46.4283L195.786 40.9296C196.153 40.673 196.569 40.4983 197.007 40.4165C197.444 40.3347 197.894 40.3477 198.326 40.4547C198.758 40.5617 199.164 40.7602 199.517 41.0376C199.871 41.3151 200.163 41.6652 200.377 42.0655L213.932 67.485L213.983 104.687L205.521 104.142L202.047 73.4288L187.901 46.4283Z" fill="#6C63FF"/>
<path d="M127.349 130.796H43.0875C41.2548 130.796 39.4971 131.543 38.2011 132.873C36.9052 134.203 36.1771 136.007 36.1771 137.888C36.1771 139.769 36.9052 141.572 38.2011 142.902C39.4971 144.232 41.2548 144.979 43.0875 144.979H127.349C129.182 144.979 130.94 144.232 132.236 142.902C133.532 141.572 134.26 139.769 134.26 137.888C134.26 136.007 133.532 134.203 132.236 132.873C130.94 131.543 129.182 130.796 127.349 130.796Z" fill="white"/>
<path d="M127.349 145.437H43.0875C41.1365 145.437 39.2655 144.642 37.8859 143.226C36.5063 141.81 35.7313 139.89 35.7313 137.888C35.7313 135.886 36.5063 133.965 37.8859 132.55C39.2655 131.134 41.1365 130.339 43.0875 130.339H127.349C129.3 130.339 131.172 131.134 132.551 132.55C133.931 133.965 134.706 135.886 134.706 137.888C134.706 139.89 133.931 141.81 132.551 143.226C131.172 144.642 129.3 145.437 127.349 145.437ZM43.0875 131.254C41.373 131.254 39.7287 131.953 38.5164 133.197C37.3041 134.441 36.623 136.128 36.623 137.888C36.623 139.647 37.3041 141.335 38.5164 142.579C39.7287 143.823 41.373 144.522 43.0875 144.522H127.349C129.064 144.522 130.708 143.823 131.921 142.579C133.133 141.335 133.814 139.647 133.814 137.888C133.814 136.128 133.133 134.441 131.921 133.197C130.708 131.953 129.064 131.254 127.349 131.254H43.0875Z" fill="#6C63FF"/>
<path d="M132.318 161.744H95.133C94.6117 161.744 94.1119 161.532 93.7433 161.154C93.3748 160.775 93.1677 160.262 93.1677 159.728C93.1677 159.193 93.3748 158.68 93.7433 158.301C94.1119 157.923 94.6117 157.711 95.133 157.711H132.318C132.839 157.711 133.339 157.923 133.708 158.301C134.076 158.68 134.283 159.193 134.283 159.728C134.283 160.262 134.076 160.775 133.708 161.154C133.339 161.532 132.839 161.744 132.318 161.744Z" fill="#6C63FF"/>
</g>
<defs>
<clipPath id="clip0_69_8110">
<rect width="220" height="220" fill="white"/>
</clipPath>
</defs>
</svg>
