<svg width="250" height="217" viewBox="0 0 250 217" fill="none" xmlns="http://www.w3.org/2000/svg">
<g clip-path="url(#clip0_69_6712)">
<path d="M159.313 162.678V214.988H49.8708C37.4013 214.988 27.2561 203.255 27.2561 188.833C27.2561 174.412 37.4013 162.678 49.8708 162.678H159.313Z" fill="#F2F2F2"/>
<path d="M162.001 214.586C162.001 215.119 161.823 215.631 161.508 216.008C161.193 216.385 160.766 216.597 160.321 216.598H47.9214C41.8168 216.598 35.9622 213.694 31.6456 208.525C27.329 203.355 24.9039 196.345 24.9039 189.034C24.9039 181.724 27.329 174.713 31.6456 169.544C35.9622 164.375 41.8168 161.471 47.9214 161.471H160.321C160.766 161.471 161.194 161.683 161.509 162.06C161.824 162.438 162.001 162.949 162.001 163.483C162.001 164.017 161.824 164.528 161.509 164.906C161.194 165.283 160.766 165.495 160.321 165.495H47.9214C42.708 165.495 37.7081 167.975 34.0216 172.389C30.3352 176.804 28.2641 182.791 28.2641 189.034C28.2641 195.277 30.3352 201.265 34.0216 205.679C37.7081 210.094 42.708 212.574 47.9214 212.574H160.321C160.766 212.574 161.193 212.786 161.508 213.163C161.823 213.541 162.001 214.052 162.001 214.586Z" fill="#F7EFC5"/>
<path d="M159.313 174.75H41.705C41.6159 174.75 41.5305 174.707 41.4674 174.632C41.4044 174.556 41.369 174.454 41.369 174.347C41.369 174.241 41.4044 174.138 41.4674 174.063C41.5305 173.987 41.6159 173.945 41.705 173.945H159.313C159.402 173.945 159.487 173.987 159.55 174.063C159.613 174.138 159.649 174.241 159.649 174.347C159.649 174.454 159.613 174.556 159.55 174.632C159.487 174.707 159.402 174.75 159.313 174.75Z" fill="#CCCCCC"/>
<path d="M159.313 184.407H41.705C41.6159 184.407 41.5305 184.365 41.4674 184.289C41.4044 184.214 41.369 184.111 41.369 184.005C41.369 183.898 41.4044 183.795 41.4674 183.72C41.5305 183.645 41.6159 183.602 41.705 183.602H159.313C159.402 183.602 159.487 183.645 159.55 183.72C159.613 183.795 159.649 183.898 159.649 184.005C159.649 184.111 159.613 184.214 159.55 184.289C159.487 184.365 159.402 184.407 159.313 184.407Z" fill="#CCCCCC"/>
<path d="M159.313 194.064H41.705C41.6159 194.064 41.5305 194.022 41.4674 193.946C41.4044 193.871 41.369 193.768 41.369 193.662C41.369 193.555 41.4044 193.453 41.4674 193.377C41.5305 193.302 41.6159 193.259 41.705 193.259H159.313C159.402 193.259 159.487 193.302 159.55 193.377C159.613 193.453 159.649 193.555 159.649 193.662C159.649 193.768 159.613 193.871 159.55 193.946C159.487 194.022 159.402 194.064 159.313 194.064Z" fill="#CCCCCC"/>
<path d="M159.313 203.721H41.705C41.6159 203.721 41.5305 203.679 41.4674 203.603C41.4044 203.528 41.369 203.426 41.369 203.319C41.369 203.212 41.4044 203.11 41.4674 203.034C41.5305 202.959 41.6159 202.917 41.705 202.917H159.313C159.402 202.917 159.487 202.959 159.55 203.034C159.613 203.11 159.649 203.212 159.649 203.319C159.649 203.426 159.613 203.528 159.55 203.603C159.487 203.679 159.402 203.721 159.313 203.721Z" fill="#CCCCCC"/>
<path d="M243.895 172.525L216.487 213.258L131.267 131.03C121.558 121.662 119.805 104.903 127.361 93.6728C134.918 82.4431 148.965 80.9289 158.675 90.2976L243.895 172.525Z" fill="#F2F2F2"/>
<path d="M218.792 214.964C218.512 215.379 218.106 215.645 217.663 215.702C217.22 215.759 216.776 215.603 216.429 215.268L128.906 130.819C124.153 126.232 121.115 119.572 120.462 112.304C119.809 105.036 121.594 97.7546 125.425 92.0622C129.255 86.3699 134.816 82.7327 140.886 81.9508C146.955 81.169 153.036 83.3064 157.789 87.893L245.312 172.342C245.484 172.508 245.627 172.713 245.733 172.945C245.839 173.176 245.906 173.431 245.929 173.694C245.953 173.957 245.933 174.222 245.871 174.476C245.809 174.73 245.706 174.966 245.567 175.172C245.429 175.378 245.258 175.549 245.064 175.676C244.87 175.802 244.658 175.882 244.438 175.91C244.219 175.938 243.997 175.914 243.785 175.84C243.573 175.765 243.376 175.642 243.204 175.476L155.681 91.0263C153.671 89.0854 151.362 87.6376 148.884 86.7658C146.407 85.894 143.81 85.6152 141.243 85.9453C138.676 86.2754 136.188 87.208 133.922 88.6897C131.655 90.1715 129.655 92.1734 128.035 94.5811C126.415 96.9888 125.207 99.7551 124.48 102.722C123.753 105.689 123.521 108.798 123.798 111.873C124.074 114.947 124.854 117.926 126.092 120.639C127.331 123.352 129.003 125.747 131.014 127.686L218.537 212.135C218.884 212.47 219.106 212.956 219.153 213.486C219.201 214.017 219.071 214.548 218.792 214.964Z" fill="#CCCCCC"/>
<path d="M237.57 181.925L145.992 93.5623C145.957 93.5292 145.929 93.4882 145.907 93.4418C145.886 93.3955 145.873 93.3445 145.868 93.292C145.864 93.2395 145.868 93.1863 145.88 93.1356C145.892 93.0849 145.913 93.0376 145.941 92.9965C145.968 92.9554 146.003 92.9211 146.041 92.8958C146.08 92.8705 146.123 92.8545 146.166 92.8489C146.21 92.8432 146.255 92.848 146.297 92.8629C146.339 92.8778 146.379 92.9025 146.413 92.9356L237.992 181.298C238.026 181.331 238.055 181.372 238.076 181.419C238.097 181.465 238.111 181.516 238.115 181.568C238.12 181.621 238.116 181.674 238.104 181.725C238.091 181.776 238.071 181.823 238.043 181.864C238.015 181.905 237.981 181.94 237.942 181.965C237.904 181.99 237.861 182.006 237.817 182.012C237.773 182.017 237.729 182.013 237.686 181.998C237.644 181.983 237.605 181.958 237.57 181.925V181.925Z" fill="#CCCCCC"/>
<path d="M232.51 189.445L140.932 101.082C140.862 101.015 140.818 100.918 140.809 100.812C140.799 100.706 140.825 100.6 140.881 100.517C140.937 100.434 141.018 100.381 141.107 100.369C141.195 100.358 141.284 100.389 141.353 100.455L232.932 188.818C232.966 188.851 232.995 188.892 233.016 188.938C233.038 188.985 233.051 189.036 233.056 189.088C233.06 189.141 233.056 189.194 233.044 189.245C233.032 189.296 233.011 189.343 232.983 189.384C232.956 189.425 232.921 189.459 232.883 189.485C232.844 189.51 232.801 189.526 232.757 189.532C232.713 189.537 232.669 189.533 232.627 189.518C232.584 189.503 232.545 189.478 232.51 189.445Z" fill="#CCCCCC"/>
<path d="M227.451 196.965L135.872 108.602C135.803 108.535 135.758 108.438 135.749 108.332C135.739 108.226 135.765 108.119 135.821 108.036C135.877 107.953 135.958 107.9 136.047 107.889C136.135 107.877 136.224 107.908 136.294 107.975L227.872 196.338C227.907 196.371 227.935 196.412 227.956 196.458C227.977 196.505 227.991 196.556 227.995 196.608C228 196.661 227.996 196.714 227.984 196.765C227.971 196.815 227.951 196.862 227.923 196.904C227.895 196.945 227.861 196.979 227.822 197.004C227.784 197.03 227.741 197.046 227.697 197.051C227.653 197.057 227.609 197.052 227.567 197.037C227.524 197.022 227.485 196.998 227.451 196.965V196.965Z" fill="#CCCCCC"/>
<path d="M222.391 204.484L130.812 116.122C130.778 116.089 130.749 116.048 130.728 116.001C130.707 115.955 130.693 115.904 130.689 115.852C130.684 115.799 130.688 115.746 130.7 115.695C130.713 115.645 130.733 115.597 130.761 115.556C130.789 115.515 130.823 115.481 130.862 115.455C130.9 115.43 130.943 115.414 130.987 115.409C131.031 115.403 131.075 115.408 131.117 115.423C131.16 115.437 131.199 115.462 131.234 115.495L222.812 203.858C222.847 203.891 222.875 203.932 222.897 203.978C222.918 204.025 222.931 204.075 222.936 204.128C222.941 204.181 222.937 204.234 222.924 204.285C222.912 204.335 222.891 204.383 222.863 204.424C222.836 204.465 222.802 204.499 222.763 204.525C222.724 204.55 222.681 204.566 222.638 204.571C222.594 204.577 222.549 204.572 222.507 204.557C222.464 204.542 222.425 204.518 222.391 204.484Z" fill="#CCCCCC"/>
<path d="M249.664 217H0.336022C0.246903 217 0.161434 216.958 0.0984182 216.882C0.0354019 216.807 0 216.704 0 216.598C0 216.491 0.0354019 216.389 0.0984182 216.313C0.161434 216.238 0.246903 216.195 0.336022 216.195H249.664C249.753 216.195 249.839 216.238 249.902 216.313C249.965 216.389 250 216.491 250 216.598C250 216.704 249.965 216.807 249.902 216.882C249.839 216.958 249.753 217 249.664 217Z" fill="#CCCCCC"/>
<path d="M113.602 157.18L109.761 157.18L107.934 139.436L113.604 139.437L113.602 157.18Z" fill="#FFB8B8"/>
<path d="M107.017 155.865H114.425V161.451H102.352C102.352 160.718 102.473 159.991 102.707 159.313C102.942 158.636 103.285 158.02 103.719 157.501C104.152 156.983 104.666 156.571 105.232 156.29C105.798 156.01 106.404 155.865 107.017 155.865Z" fill="#2F2E41"/>
<path d="M74.3568 157.18L70.5154 157.18L68.6885 139.436L74.3582 139.437L74.3568 157.18Z" fill="#FFB8B8"/>
<path d="M67.7714 155.865H75.18V161.451H63.1068C63.1068 160.718 63.2275 159.991 63.4619 159.313C63.6963 158.636 64.0399 158.02 64.473 157.501C64.9062 156.983 65.4204 156.571 65.9864 156.29C66.5523 156.01 67.1589 155.865 67.7714 155.865Z" fill="#2F2E41"/>
<path d="M87.1877 25.5647V23.5527C87.1877 20.1111 88.3295 16.8103 90.3617 14.3767C92.394 11.9431 95.1504 10.5759 98.0244 10.5759H98.0244C100.899 10.5759 103.655 11.9431 105.687 14.3767C107.719 16.8103 108.861 20.1111 108.861 23.5527V25.5647C108.861 28.0459 108.038 30.4255 106.573 32.18C105.108 33.9345 103.121 34.9201 101.049 34.9201H95.0003C93.9743 34.9201 92.9584 34.6781 92.0105 34.208C91.0627 33.7378 90.2014 33.0487 89.476 32.18C88.7505 31.3113 88.1751 30.2799 87.7824 29.1449C87.3898 28.0098 87.1877 26.7933 87.1877 25.5647Z" fill="#2F2E41"/>
<path d="M98.0245 35.6124C102.583 35.6124 106.278 31.1876 106.278 25.7294C106.278 20.2712 102.583 15.8465 98.0245 15.8465C93.4665 15.8465 89.7715 20.2712 89.7715 25.7294C89.7715 31.1876 93.4665 35.6124 98.0245 35.6124Z" fill="#FFB8B8"/>
<path d="M53.1333 59.6959C53.4682 59.3172 53.8684 59.031 54.3057 58.8575C54.7429 58.6841 55.2066 58.6275 55.6641 58.6919C56.1216 58.7562 56.5617 58.9399 56.9535 59.23C57.3453 59.5201 57.6792 59.9095 57.9318 60.3708L65.0066 58.7683L66.8684 63.6792L56.8509 65.7743C56.1756 66.2309 55.3838 66.375 54.6257 66.1793C53.8676 65.9836 53.1958 65.4617 52.7375 64.7124C52.2793 63.9632 52.0665 63.0387 52.1394 62.1141C52.2124 61.1895 52.566 60.3291 53.1333 59.6959V59.6959Z" fill="#FFB8B8"/>
<path d="M91.5902 41.8364L91.6827 42.0042L80.0813 51.1562L60.5053 58.6419C60.2458 58.7417 60.0232 58.9462 59.8754 59.2204C59.7276 59.4947 59.6638 59.8218 59.6948 60.1461L60.1218 64.5508C60.1408 64.7458 60.1935 64.9338 60.2767 65.103C60.3599 65.2721 60.4717 65.4185 60.6049 65.5328C60.7381 65.6472 60.8897 65.727 61.0502 65.767C61.2106 65.8071 61.3763 65.8065 61.5366 65.7654L79.9605 61.0363C80.8522 60.8088 81.6952 60.3643 82.4375 59.7304L95.4711 48.6258C95.9436 48.2211 96.3206 47.6768 96.5654 47.0459C96.8103 46.415 96.9146 45.719 96.8684 45.0255C96.8206 44.3311 96.6226 43.6635 96.294 43.0885C95.9654 42.5134 95.5175 42.0507 94.9942 41.7459C94.471 41.4411 93.8905 41.3046 93.3099 41.3499C92.7293 41.3952 92.1685 41.6207 91.6827 42.0042L91.5902 41.8364Z" fill="#6C63FF"/>
<path d="M109.83 152.145C109.535 152.145 109.246 152.042 108.999 151.849C108.753 151.656 108.558 151.381 108.439 151.058L90.8285 98.9488C90.7874 98.8358 90.7184 98.7406 90.6307 98.6759C90.543 98.6113 90.4409 98.5804 90.3381 98.5873C90.2354 98.5943 90.1368 98.6387 90.0558 98.7147C89.9747 98.7907 89.915 98.8947 89.8848 99.0125L75.5171 149.743C75.4564 149.979 75.3561 150.197 75.2222 150.385C75.0884 150.573 74.9238 150.726 74.7387 150.835C74.5536 150.944 74.3518 151.007 74.1458 151.019C73.9398 151.031 73.7339 150.993 73.5407 150.906L68.7227 148.742C68.4612 148.626 68.2318 148.425 68.0599 148.162C67.8881 147.899 67.7805 147.584 67.7493 147.252C65.5818 124.641 84.4832 67.5676 84.6744 66.9939L84.7273 66.835L101.957 71.3991L101.993 71.4459C108.868 80.4262 114.518 137.067 115.581 148.331C115.621 148.738 115.543 149.149 115.362 149.496C115.18 149.843 114.905 150.106 114.583 150.241L110.33 152.042C110.169 152.11 110 152.145 109.83 152.145Z" fill="#2F2E41"/>
<path d="M94.9841 73.2362C90.8095 73.2362 86.1553 72.2395 84.7227 68.1256L84.6897 68.0311L84.7343 67.9435C85.865 65.7217 87.3596 61.9317 86.5563 61.2202C84.9739 59.8192 84.206 57.5143 84.2742 54.3695C84.4222 47.5427 88.3066 41.4816 93.9401 39.2872H93.9402C95.5127 38.6846 97.1129 38.1912 98.7329 37.8095C99.9139 37.5241 101.133 37.5555 102.303 37.9014C103.472 38.2473 104.564 38.8991 105.498 39.81C106.444 40.7269 107.209 41.8833 107.737 43.1962C108.266 44.5091 108.545 45.9458 108.554 47.4032C108.613 54.6988 107.675 64.86 102.871 71.8361C102.646 72.1597 102.333 72.3779 101.987 72.4522C99.6755 72.9528 97.3327 73.2151 94.9841 73.2362Z" fill="#6C63FF"/>
<path d="M93.4312 72.963C93.6584 71.9871 94.198 71.158 94.9328 70.6559C95.6676 70.1538 96.5382 70.0192 97.3554 70.2815C97.5223 70.3373 97.685 70.4095 97.8419 70.4972L103.214 64.643L106.95 67.657L99.2676 75.7976C98.9207 76.5465 98.3747 77.135 97.7162 77.4695C97.0578 77.8039 96.3249 77.865 95.6342 77.6431C95.2318 77.5113 94.8552 77.2852 94.5262 76.978C94.1973 76.6707 93.9224 76.2885 93.7176 75.8533C93.5127 75.4181 93.3819 74.9386 93.3328 74.4425C93.2836 73.9464 93.3171 73.4435 93.4312 72.963Z" fill="#FFB8B8"/>
<path d="M102.363 73.0373C102.014 73.0376 101.676 72.8932 101.407 72.6288L99.2883 70.5558C99.1117 70.383 98.97 70.1646 98.8739 69.9169C98.7778 69.6693 98.7297 69.3988 98.7332 69.1257C98.7367 68.8527 98.7918 68.5841 98.8943 68.3401C98.9967 68.0962 99.144 67.8831 99.3249 67.7169L108.21 59.5567C108.315 59.4595 108.384 59.3164 108.402 59.1586C108.42 59.0009 108.385 58.841 108.305 58.7138L102.821 50.0319C102.184 49.0266 101.864 47.7837 101.919 46.5233C101.974 45.263 102.399 44.0664 103.119 43.1454C103.878 42.1639 104.917 41.5599 106.031 41.4533C107.144 41.3466 108.251 41.7451 109.13 42.5697L109.165 42.6135L114.891 52.4326C115.51 53.014 116.009 53.759 116.348 54.6093C116.687 55.4596 116.858 56.3923 116.846 57.3345C116.834 58.2767 116.641 59.2028 116.281 60.0407C115.921 60.8786 115.404 61.6054 114.77 62.1645L103.263 72.6823C103.002 72.9129 102.687 73.0373 102.363 73.0373Z" fill="#6C63FF"/>
<path d="M90.7141 22.9492V18.0457L98.0245 14.223L104.995 18.0457V22.9492C104.995 23.1626 104.924 23.3673 104.798 23.5182C104.672 23.6692 104.501 23.7539 104.323 23.7539H91.3862C91.2079 23.7539 91.037 23.6692 90.9109 23.5182C90.7849 23.3673 90.7141 23.1626 90.7141 22.9492Z" fill="#2F2E41"/>
<path d="M97.6889 11.2264C96.6141 7.10654 98.8715 2.38504 102.209 0.754313C105.546 -0.876416 109.538 0.263514 112.354 2.95772C115.17 5.65193 116.917 9.68736 117.843 13.8588C118.769 18.0302 118.945 22.38 119.116 26.6913C123.216 27.5932 126.005 33.4169 124.585 38.1103C123.164 42.8038 117.907 45.1355 114.276 42.6823C110.645 40.2292 109.594 33.6349 112.214 29.7523C113.454 27.9151 114.147 25.6351 114.182 23.2733C114.218 20.9115 113.595 18.603 112.411 16.7134C111.227 14.8238 109.551 13.4611 107.647 12.8412C105.744 12.2213 103.722 12.3795 101.902 13.2908C99.8817 14.3028 97.3461 11.6735 97.6889 11.2264Z" fill="#2F2E41"/>
<path d="M51.6177 40.6741C46.7086 40.6355 41.8609 39.3641 37.3878 36.942C37.1215 36.7999 36.8955 36.5681 36.7373 36.2749C36.5791 35.9817 36.4955 35.6397 36.4967 35.2906V20.6367C36.4972 20.1566 36.6566 19.6963 36.9401 19.3569C37.2236 19.0174 37.6079 18.8265 38.0088 18.8259H65.2266C65.6275 18.8265 66.0118 19.0174 66.2953 19.3569C66.5788 19.6963 66.7382 20.1566 66.7387 20.6367V35.2907C66.7399 35.6398 66.6563 35.9817 66.4981 36.2749C66.3399 36.5682 66.1138 36.7999 65.8476 36.9421C61.3744 39.3641 56.5267 40.6355 51.6177 40.6741Z" fill="#F7EFC5"/>
<path d="M51.6139 28.8026C51.4122 28.8028 51.2124 28.7547 51.0264 28.6611L29.443 17.7567C29.1647 17.6161 28.9279 17.3789 28.7632 17.0756C28.5985 16.7724 28.5135 16.417 28.519 16.0553C28.5245 15.6936 28.6204 15.3422 28.7943 15.0464C28.9682 14.7506 29.212 14.5239 29.4945 14.3956L51.0781 4.59039C51.4257 4.43174 51.8101 4.43272 52.1571 4.59314L73.4515 14.3983C73.7324 14.5276 73.9746 14.7544 74.1472 15.0495C74.3199 15.3446 74.4151 15.6947 74.4206 16.0549C74.4262 16.4152 74.3419 16.7693 74.1785 17.0718C74.015 17.3744 73.78 17.6117 73.5033 17.7533L52.2087 28.6576C52.0206 28.7535 51.8183 28.8028 51.6139 28.8026Z" fill="#F7EFC5"/>
<path d="M39.0169 37.9391C40.1303 37.9391 41.033 36.8582 41.033 35.5248C41.033 34.1915 40.1303 33.1105 39.0169 33.1105C37.9034 33.1105 37.0007 34.1915 37.0007 35.5248C37.0007 36.8582 37.9034 37.9391 39.0169 37.9391Z" fill="#3F3D56"/>
<path opacity="0.2" d="M73.5769 16.2055L52.2822 27.1098C52.1161 27.1948 51.9375 27.2389 51.757 27.2394C51.5764 27.2399 51.3976 27.1969 51.2313 27.1129L29.648 16.2087C29.3769 16.075 29.1508 15.837 29.0053 15.5323C28.9101 15.7299 28.8511 15.9495 28.8323 16.1765C28.8134 16.4035 28.8351 16.6327 28.8959 16.8489C28.9567 17.0651 29.0552 17.2634 29.1848 17.4305C29.3145 17.5976 29.4724 17.7298 29.648 17.8183L51.2313 28.7224C51.3976 28.8064 51.5764 28.8495 51.757 28.849C51.9375 28.8484 52.1161 28.8044 52.2822 28.7193L73.5769 17.8151C73.7516 17.7258 73.9085 17.5932 74.0373 17.426C74.166 17.2588 74.2637 17.0608 74.3239 16.8451C74.384 16.6294 74.4053 16.4008 74.3863 16.1745C74.3672 15.9482 74.3083 15.7293 74.2135 15.5323C74.069 15.8346 73.8452 16.0713 73.5769 16.2055Z" fill="black"/>
<path d="M39.1862 35.5154C39.2754 35.5154 39.3608 35.473 39.4239 35.3976C39.4869 35.3221 39.5223 35.2197 39.5223 35.113V21.6487L50.6047 16.814C50.6938 16.8156 50.7798 16.7747 50.8437 16.7004C50.9077 16.626 50.9444 16.5243 50.9457 16.4176C50.947 16.3109 50.9129 16.2079 50.8508 16.1313C50.7887 16.0547 50.7038 16.0108 50.6147 16.0092L39.5323 20.8439C39.4431 20.8415 39.3544 20.8607 39.2716 20.9005C39.1888 20.9403 39.1137 20.9998 39.0506 21.0754C38.9869 21.15 38.9364 21.2393 38.902 21.3377C38.8675 21.4362 38.85 21.5419 38.8502 21.6487V35.113C38.8502 35.2197 38.8856 35.3221 38.9486 35.3975C39.0117 35.473 39.0971 35.5154 39.1862 35.5154Z" fill="#3F3D56"/>
</g>
<defs>
<clipPath id="clip0_69_6712">
<rect width="250" height="217" fill="white"/>
</clipPath>
</defs>
</svg>
