<svg width="250" height="240" viewBox="0 0 250 240" fill="none" xmlns="http://www.w3.org/2000/svg">
<g clip-path="url(#clip0_69_5498)">
<path d="M226.59 65.28H208.41C208.037 65.2795 207.678 65.1097 207.414 64.8077C207.149 64.5057 207 64.0962 207 63.6692V56.1519C207 52.9714 208.106 49.9213 210.075 47.6723C212.045 45.4234 214.715 44.16 217.5 44.16C220.285 44.16 222.955 45.4234 224.925 47.6723C226.894 49.9213 228 52.9714 228 56.1519V63.6692C228 64.0962 227.851 64.5057 227.586 64.8077C227.322 65.1097 226.963 65.2795 226.59 65.28Z" fill="#2F2E41"/>
<path d="M197.709 173.76L194 172.488L196.525 155.52L202 157.397L197.709 173.76Z" fill="#A0616A"/>
<path d="M197.602 178.56L186 174.257L186.044 174.076C186.222 173.342 186.515 172.66 186.906 172.066C187.297 171.473 187.779 170.98 188.324 170.617C188.869 170.254 189.467 170.027 190.083 169.95C190.699 169.872 191.321 169.946 191.914 170.166L191.914 170.166L199 172.794L197.602 178.56Z" fill="#2F2E41"/>
<path d="M240.999 173.76H236.934L235 157.44L241 157.44L240.999 173.76Z" fill="#A0616A"/>
<path d="M242 178.56L230 178.559V178.378C230 177.646 230.121 176.92 230.356 176.243C230.59 175.567 230.934 174.952 231.368 174.434C231.802 173.916 232.317 173.505 232.883 173.225C233.45 172.944 234.057 172.8 234.671 172.8H234.671L242 172.8L242 178.56Z" fill="#2F2E41"/>
<path d="M217.5 65.28C221.642 65.28 225 61.1968 225 56.16C225 51.1232 221.642 47.04 217.5 47.04C213.358 47.04 210 51.1232 210 56.16C210 61.1968 213.358 65.28 217.5 65.28Z" fill="#A0616A"/>
<path d="M208.218 164.16C208.078 164.16 207.939 164.14 207.803 164.1L192.249 159.546C192.023 159.479 191.812 159.361 191.629 159.197C191.447 159.033 191.297 158.827 191.189 158.594C191.081 158.361 191.018 158.105 191.003 157.842C190.989 157.579 191.023 157.316 191.105 157.07C200.535 128.505 208.257 103.866 207.221 91.6576C205.758 88.3398 205.011 84.68 205.041 80.9759L205.152 68.6333C205.155 68.2725 205.23 67.917 205.371 67.593C205.512 67.2691 205.716 66.9848 205.967 66.761C206.218 66.5372 206.511 66.3796 206.823 66.2998C207.136 66.22 207.46 66.22 207.773 66.2998L225.174 70.737L225.273 71.1067C226.663 76.3654 226.523 81.987 224.874 87.1498C235.132 97.5801 242.011 131.822 245.978 158.756C246.04 159.182 245.97 159.619 245.78 159.994C245.591 160.369 245.293 160.66 244.936 160.818L244.887 160.832L232.686 162.19C232.473 162.279 232.245 162.318 232.018 162.304C231.79 162.291 231.567 162.225 231.363 162.111C231.159 161.997 230.978 161.837 230.831 161.641C230.684 161.445 230.574 161.217 230.508 160.972L220.025 122.013L209.831 162.79C209.73 163.184 209.518 163.531 209.227 163.778C208.936 164.025 208.582 164.159 208.218 164.16Z" fill="#2F2E41"/>
<path d="M225.19 55.68H214.689C214.491 55.6797 214.301 55.6019 214.153 55.4612C214.005 55.3204 213.91 55.1264 213.885 54.9154L213.749 53.7432C213.736 53.6305 213.69 53.5254 213.616 53.4438C213.543 53.3622 213.447 53.3085 213.343 53.2908C213.239 53.2732 213.132 53.2925 213.039 53.3459C212.946 53.3992 212.872 53.4838 212.827 53.5867L212.139 55.1765C212.073 55.3267 211.969 55.4538 211.839 55.5429C211.71 55.6321 211.559 55.6796 211.405 55.68H209.81C209.697 55.68 209.585 55.6546 209.482 55.6054C209.379 55.5562 209.286 55.4843 209.21 55.3943C209.135 55.3043 209.077 55.1982 209.041 55.0828C209.006 54.9674 208.993 54.8453 209.004 54.7242L209.633 47.6433C209.646 47.4918 209.696 47.3467 209.777 47.2221C209.858 47.0975 209.968 46.9978 210.095 46.9326C214.905 44.5127 219.782 44.5158 224.591 46.9418C224.713 47.0036 224.819 47.0972 224.899 47.2141C224.979 47.3311 225.031 47.4677 225.049 47.6116L225.992 54.6833C226.008 54.8071 226 54.9333 225.967 55.0533C225.935 55.1734 225.878 55.2844 225.802 55.379C225.726 55.4735 225.632 55.5493 225.527 55.6012C225.421 55.6532 225.306 55.68 225.19 55.68Z" fill="#2F2E41"/>
<path d="M202.375 166.07L104.476 156.902C103.762 156.834 103.102 156.453 102.639 155.843C102.177 155.233 101.95 154.442 102.009 153.646L105.706 104.522C105.767 103.726 106.108 102.989 106.656 102.473C107.203 101.957 107.911 101.704 108.625 101.77L206.524 110.938C207.238 111.006 207.898 111.387 208.361 111.997C208.823 112.607 209.05 113.398 208.991 114.194L205.294 163.318C205.233 164.114 204.892 164.851 204.344 165.367C203.797 165.883 203.089 166.136 202.375 166.07Z" fill="#CCCCCC"/>
<path d="M201.02 163.195L106.311 154.332C105.933 154.296 105.583 154.094 105.338 153.771C105.093 153.449 104.974 153.031 105.005 152.609L108.435 107.061C108.467 106.64 108.648 106.25 108.938 105.977C109.227 105.704 109.602 105.571 109.98 105.605L204.689 114.468C205.067 114.504 205.417 114.706 205.662 115.029C205.907 115.351 206.026 115.769 205.995 116.191L202.565 161.739C202.533 162.16 202.352 162.55 202.062 162.823C201.773 163.096 201.398 163.229 201.02 163.195Z" fill="white"/>
<path d="M176.262 145.916C176.268 145.917 176.274 145.917 176.28 145.917C179.449 145.987 182.523 144.746 184.878 142.446C187.233 140.147 188.691 136.962 188.956 133.539C189.221 130.116 188.274 126.712 186.306 124.019C184.338 121.327 181.497 119.547 178.362 119.044C178.323 119.037 178.283 119.039 178.246 119.05C178.208 119.061 178.172 119.081 178.142 119.107C178.111 119.133 178.086 119.166 178.068 119.203C178.049 119.24 178.038 119.281 178.035 119.323L176.001 145.583C175.995 145.664 176.019 145.745 176.068 145.808C176.117 145.87 176.186 145.909 176.262 145.916V145.916Z" fill="#3F3D56"/>
<path d="M168.004 121.921C168.1 121.931 168.189 121.982 168.251 122.065L175.914 132.287C175.945 132.328 175.968 132.375 175.983 132.426C175.997 132.477 176.003 132.531 175.999 132.585L175.033 145.545C175.03 145.601 175.015 145.655 174.992 145.704C174.969 145.753 174.936 145.797 174.898 145.831C174.858 145.866 174.813 145.891 174.765 145.906C174.717 145.921 174.667 145.924 174.618 145.916C172.328 145.533 170.179 144.438 168.412 142.754C166.644 141.07 165.328 138.864 164.612 136.384C163.895 133.903 163.806 131.246 164.355 128.712C164.904 126.178 166.07 123.866 167.72 122.037C167.755 121.998 167.798 121.967 167.845 121.947C167.891 121.927 167.941 121.918 167.991 121.92L168.004 121.921Z" fill="#E6E6E6"/>
<path d="M176.678 118.084C176.767 118.093 176.85 118.141 176.91 118.218C176.942 118.259 176.967 118.308 176.982 118.361C176.997 118.413 177.003 118.469 176.999 118.525L176.158 130.187C176.152 130.267 176.126 130.343 176.082 130.406C176.039 130.469 175.981 130.516 175.915 130.541C175.849 130.565 175.779 130.566 175.712 130.544C175.645 130.522 175.586 130.477 175.541 130.416L169.083 121.52C169.052 121.478 169.029 121.429 169.015 121.376C169.001 121.323 168.997 121.267 169.002 121.212C169.007 121.157 169.022 121.104 169.045 121.056C169.069 121.008 169.1 120.966 169.138 120.932C171.297 119.025 173.946 118.021 176.656 118.083C176.663 118.083 176.671 118.083 176.678 118.084Z" fill="#6C63FF"/>
<path d="M170.993 151.401C170.96 151.874 170.811 152.324 170.564 152.696C170.318 153.067 169.985 153.342 169.608 153.486C169.231 153.631 168.827 153.638 168.447 153.506C168.067 153.375 167.728 153.112 167.472 152.749C167.217 152.387 167.057 151.941 167.013 151.47C166.968 150.998 167.041 150.521 167.223 150.099C167.404 149.677 167.686 149.33 168.032 149.1C168.378 148.87 168.773 148.769 169.167 148.808C169.696 148.862 170.185 149.166 170.527 149.652C170.869 150.138 171.037 150.767 170.993 151.401Z" fill="#6C63FF"/>
<path d="M176.993 151.401C176.96 151.874 176.811 152.324 176.564 152.696C176.318 153.067 175.985 153.342 175.608 153.486C175.231 153.631 174.827 153.638 174.447 153.506C174.067 153.375 173.728 153.112 173.472 152.749C173.217 152.387 173.057 151.941 173.013 151.47C172.968 150.998 173.041 150.521 173.223 150.099C173.404 149.677 173.686 149.33 174.032 149.1C174.378 148.87 174.773 148.769 175.167 148.808C175.696 148.862 176.185 149.166 176.527 149.652C176.869 150.138 177.037 150.767 176.993 151.401Z" fill="#3F3D56"/>
<path d="M183.991 152.361C183.95 152.834 183.764 153.284 183.455 153.656C183.147 154.027 182.731 154.302 182.26 154.446C181.789 154.591 181.284 154.598 180.809 154.466C180.334 154.335 179.91 154.072 179.591 153.709C179.271 153.347 179.071 152.901 179.016 152.43C178.96 151.958 179.052 151.481 179.278 151.059C179.505 150.638 179.857 150.29 180.29 150.06C180.723 149.83 181.217 149.729 181.709 149.768C182.37 149.822 182.981 150.126 183.409 150.612C183.837 151.098 184.046 151.727 183.991 152.361Z" fill="#E6E6E6"/>
<path d="M144.635 122.084L124.615 120.006C124.42 119.986 124.223 120.014 124.037 120.087C123.851 120.161 123.678 120.279 123.528 120.435C123.379 120.591 123.256 120.782 123.166 120.997C123.076 121.212 123.022 121.446 123.005 121.687C122.989 121.928 123.011 122.171 123.071 122.401C123.13 122.632 123.226 122.845 123.352 123.03C123.478 123.215 123.633 123.367 123.807 123.478C123.981 123.589 124.17 123.656 124.365 123.676L144.385 125.754C144.779 125.794 145.17 125.64 145.472 125.325C145.774 125.01 145.962 124.559 145.995 124.073C146.028 123.586 145.903 123.103 145.648 122.73C145.393 122.357 145.028 122.124 144.635 122.084Z" fill="#E6E6E6"/>
<path d="M143.635 131.336L123.616 129.606C123.276 129.576 122.937 129.667 122.654 129.863C122.372 130.06 122.164 130.351 122.064 130.687C121.965 131.023 121.981 131.384 122.109 131.709C122.237 132.035 122.47 132.305 122.768 132.475C122.952 132.582 123.156 132.646 123.367 132.664L143.385 134.395C143.58 134.411 143.777 134.389 143.963 134.327C144.15 134.266 144.322 134.168 144.472 134.038C144.621 133.907 144.744 133.748 144.834 133.569C144.924 133.39 144.978 133.195 144.995 132.994C145.011 132.793 144.989 132.591 144.929 132.399C144.87 132.207 144.774 132.029 144.648 131.875C144.522 131.721 144.367 131.594 144.193 131.502C144.02 131.41 143.83 131.353 143.635 131.336Z" fill="#E6E6E6"/>
<path d="M143.635 140.324L123.615 138.246C123.42 138.226 123.223 138.254 123.037 138.327C122.851 138.401 122.678 138.519 122.528 138.675C122.379 138.831 122.256 139.022 122.166 139.237C122.076 139.452 122.022 139.686 122.005 139.927C121.989 140.168 122.011 140.411 122.071 140.641C122.13 140.872 122.226 141.085 122.352 141.27C122.478 141.455 122.633 141.607 122.807 141.718C122.981 141.829 123.17 141.896 123.365 141.916L143.385 143.994C143.58 144.014 143.777 143.986 143.963 143.913C144.149 143.839 144.322 143.721 144.472 143.565C144.621 143.409 144.744 143.218 144.834 143.003C144.924 142.788 144.978 142.554 144.995 142.313C145.011 142.072 144.989 141.829 144.929 141.599C144.87 141.368 144.774 141.155 144.648 140.97C144.522 140.785 144.367 140.633 144.193 140.522C144.019 140.411 143.83 140.344 143.635 140.324H143.635Z" fill="#E6E6E6"/>
<path d="M139.345 121.396L124.656 120.006C124.456 119.987 124.255 120.013 124.063 120.082C123.872 120.15 123.695 120.261 123.542 120.407C123.388 120.553 123.262 120.731 123.17 120.933C123.078 121.134 123.022 121.353 123.005 121.578C122.989 121.804 123.011 122.031 123.072 122.246C123.133 122.462 123.231 122.662 123.361 122.834C123.49 123.007 123.649 123.149 123.827 123.253C124.006 123.357 124.2 123.42 124.4 123.439L138.783 124.8C139.084 124.693 139.353 124.496 139.563 124.23C139.772 123.963 139.913 123.638 139.971 123.288C140.028 122.938 140.001 122.578 139.89 122.244C139.78 121.911 139.591 121.618 139.345 121.396Z" fill="#6C63FF"/>
<path d="M131.625 130.339L123.668 129.606C123.318 129.573 122.967 129.673 122.676 129.89C122.384 130.106 122.169 130.425 122.067 130.795C121.964 131.164 121.98 131.561 122.113 131.919C122.245 132.276 122.485 132.574 122.793 132.76L130.101 133.433C130.564 133.476 131.024 133.315 131.378 132.986C131.733 132.657 131.954 132.188 131.993 131.68C132.033 131.198 131.901 130.717 131.625 130.339Z" fill="#6C63FF"/>
<path d="M142.171 140.22L123.617 138.247C123.422 138.226 123.225 138.254 123.039 138.329C122.852 138.405 122.679 138.526 122.529 138.687C122.379 138.847 122.256 139.043 122.166 139.263C122.076 139.484 122.022 139.725 122.005 139.972C121.989 140.22 122.011 140.469 122.071 140.705C122.13 140.942 122.226 141.161 122.353 141.351C122.479 141.54 122.634 141.696 122.808 141.81C122.982 141.924 123.172 141.993 123.368 142.014L142.041 144C142.317 143.831 142.552 143.571 142.72 143.247C142.889 142.923 142.985 142.547 142.998 142.159C143.012 141.771 142.942 141.386 142.796 141.045C142.651 140.703 142.434 140.418 142.171 140.22Z" fill="#6C63FF"/>
<path d="M193.327 113.174C193.824 113.047 194.29 112.802 194.692 112.456C195.094 112.11 195.421 111.671 195.652 111.17C195.883 110.67 196.011 110.12 196.027 109.559C196.044 108.998 195.948 108.44 195.747 107.924L207 75.4749L201.256 73.92L190.918 105.982C190.152 106.411 189.556 107.133 189.242 108.013C188.928 108.893 188.919 109.868 189.216 110.754C189.513 111.641 190.096 112.377 190.853 112.823C191.611 113.269 192.491 113.394 193.327 113.174Z" fill="#A0616A"/>
<path d="M207.746 82.56C207.497 82.56 207.251 82.5002 207.026 82.3847H207.026L199.979 78.7768C199.758 78.6634 199.562 78.4992 199.404 78.2953C199.246 78.0915 199.13 77.8527 199.063 77.5954C198.997 77.3381 198.983 77.0681 199.02 76.804C199.058 76.5399 199.148 76.2879 199.283 76.0649L203.565 68.9905C203.809 68.4205 204.155 67.9094 204.582 67.4869C205.009 67.0644 205.509 66.7389 206.052 66.5294C206.877 66.2029 207.772 66.1514 208.624 66.3813C209.477 66.6113 210.247 67.1125 210.839 67.8215C211.431 68.5306 211.817 69.4156 211.949 70.3648C212.082 71.314 211.953 72.2847 211.581 73.1543L209.375 81.2334C209.27 81.6168 209.055 81.9529 208.762 82.1919C208.468 82.4309 208.112 82.5599 207.746 82.56L207.746 82.56Z" fill="#2F2E41"/>
<path d="M202.618 114.237C203.124 114.218 203.62 114.077 204.072 113.823C204.523 113.569 204.918 113.208 205.23 112.766C205.542 112.324 205.763 111.812 205.877 111.265C205.991 110.718 205.995 110.15 205.89 109.601L224 80.9762L218.588 77.76L201.533 106.666C200.713 106.923 200.007 107.505 199.548 108.302C199.089 109.098 198.909 110.053 199.043 110.986C199.177 111.919 199.615 112.766 200.274 113.365C200.933 113.964 201.767 114.274 202.618 114.237Z" fill="#A0616A"/>
<path d="M222.012 86.4C221.648 86.4 221.294 86.2726 221.002 86.0364L214.698 80.9581C214.5 80.7987 214.336 80.5942 214.216 80.3587C214.097 80.1232 214.025 79.8622 214.005 79.5934C213.986 79.3246 214.02 79.0544 214.104 78.8011C214.188 78.5479 214.321 78.3176 214.494 78.1259L219.975 72.0406C220.318 71.5287 220.75 71.0968 221.246 70.7699C221.742 70.443 222.292 70.2277 222.865 70.1364C223.736 69.9899 224.628 70.1304 225.427 70.5404C226.226 70.9503 226.897 71.6112 227.354 72.4395C227.811 73.2678 228.034 74.2264 227.996 75.1941C227.957 76.1617 227.658 77.095 227.136 77.876L223.523 85.3995C223.378 85.7014 223.16 85.9541 222.894 86.1304C222.628 86.3067 222.323 86.3999 222.012 86.4V86.4Z" fill="#2F2E41"/>
<path d="M109.81 107.29C109.385 107.106 108.999 106.814 108.679 106.434C108.359 106.053 108.113 105.594 107.958 105.088C107.803 104.582 107.743 104.042 107.783 103.505C107.822 102.969 107.96 102.449 108.187 101.983L101 92.0779L106.665 91.2L112.621 100.741C113.254 101.246 113.709 102.009 113.9 102.887C114.092 103.764 114.006 104.695 113.659 105.502C113.313 106.309 112.73 106.937 112.02 107.267C111.311 107.596 110.524 107.605 109.81 107.29H109.81Z" fill="#FFB8B8"/>
<path d="M68.5531 109.15C68.2558 108.755 68.0364 108.289 67.9105 107.784C67.7845 107.279 67.7551 106.748 67.8242 106.228C67.8933 105.709 68.0593 105.213 68.3104 104.777C68.5616 104.34 68.8918 103.973 69.2779 103.701L67 91.2L72.3036 93.6243L73.6536 105.124C74.0023 105.91 74.0915 106.818 73.9042 107.676C73.7169 108.534 73.2662 109.282 72.6375 109.778C72.0088 110.274 71.2458 110.485 70.493 110.369C69.7402 110.253 69.05 109.82 68.5531 109.15Z" fill="#FFB8B8"/>
<path d="M95.0006 173.76L98.3884 173.76L100 157.44L95 157.44L95.0006 173.76Z" fill="#FFB8B8"/>
<path d="M94 172.8L101.329 172.8H101.329C101.943 172.8 102.55 172.944 103.117 173.225C103.683 173.505 104.198 173.916 104.632 174.434C105.066 174.952 105.41 175.567 105.644 176.243C105.879 176.92 106 177.646 106 178.378V178.559L94.0002 178.56L94 172.8Z" fill="#2F2E41"/>
<path d="M76.0006 173.76L79.3884 173.76L81 157.44L76 157.44L76.0006 173.76Z" fill="#FFB8B8"/>
<path d="M75 172.8L82.329 172.8H82.3293C82.9427 172.8 83.55 172.944 84.1167 173.225C84.6834 173.505 85.1983 173.916 85.632 174.434C86.0657 174.952 86.4098 175.567 86.6445 176.243C86.8792 176.92 87 177.646 87 178.378V178.559L75.0002 178.56L75 172.8Z" fill="#2F2E41"/>
<path d="M94.0836 165.12C93.736 165.118 93.4008 164.975 93.1405 164.717C92.8803 164.459 92.7127 164.105 92.669 163.719L88.7006 127.126C88.687 127 88.6339 126.884 88.5507 126.799C88.4675 126.713 88.3598 126.663 88.2468 126.659C88.1338 126.654 88.0231 126.694 87.9345 126.773C87.8459 126.852 87.7852 126.963 87.7635 127.087L81.4538 163C81.3896 163.362 81.2152 163.688 80.9604 163.922C80.7056 164.157 80.3861 164.285 80.0561 164.286H75.4243C75.235 164.286 75.0476 164.244 74.873 164.162C74.6985 164.08 74.5403 163.96 74.4077 163.808C74.2751 163.657 74.1707 163.478 74.1008 163.281C74.0308 163.084 73.9967 162.874 74.0003 162.662L74.9273 107.345L75.0029 107.295C81.7596 102.794 89.7238 102.499 99.3508 106.395L99.4519 106.436L100.999 163.232C101.01 163.652 100.872 164.059 100.617 164.366C100.361 164.673 100.008 164.855 99.6328 164.873L94.1398 165.119C94.1211 165.12 94.1022 165.12 94.0836 165.12Z" fill="#2F2E41"/>
<path d="M89 55.68C93.4183 55.68 97 51.8117 97 47.04C97 42.2683 93.4183 38.4 89 38.4C84.5817 38.4 81 42.2683 81 47.04C81 51.8117 84.5817 55.68 89 55.68Z" fill="#FFB8B8"/>
<path d="M107.275 99.8243C107.076 99.8554 106.874 99.8401 106.682 99.7794C106.49 99.7186 106.311 99.6138 106.157 99.4717L98.1825 92.0768C95.4556 89.5488 93.6525 86.0124 93.1086 82.1253L91.3148 69.3184C91.0953 68.6975 90.9886 68.0349 91.001 67.3684C91.0133 66.702 91.1444 66.0447 91.3868 65.4343C91.6292 64.8238 91.9781 64.2722 92.4136 63.8108C92.8491 63.3495 93.3626 62.9876 93.9247 62.7457C94.4869 62.5038 95.0867 62.3867 95.6898 62.4012C96.2929 62.4156 96.8876 62.5613 97.4397 62.8299C97.9919 63.0985 98.4907 63.4847 98.9076 63.9664C99.3246 64.4482 99.6516 65.016 99.8698 65.6375L103.665 85.7606L109.723 94.8467C109.896 95.1077 109.993 95.4211 110 95.7446C110.006 96.0681 109.923 96.386 109.761 96.6555L108.258 99.1404C108.097 99.4068 107.866 99.6125 107.596 99.7302C107.493 99.7755 107.385 99.8071 107.275 99.8243Z" fill="#6C63FF"/>
<path d="M68.2888 101.494C68.1265 101.369 67.9883 101.205 67.8834 101.013C67.7785 100.821 67.7091 100.605 67.6798 100.38L66.1621 88.644C65.6427 84.6317 66.381 80.5342 68.2397 77.1137L74.3624 65.843C74.5627 65.1967 74.8694 64.603 75.265 64.0961C75.6606 63.5892 76.1373 63.1789 76.668 62.8886C77.1986 62.5984 77.7727 62.434 78.3574 62.4047C78.9421 62.3755 79.526 62.482 80.0757 62.7181C80.6254 62.9543 81.1301 63.3155 81.5609 63.7811C81.9918 64.2467 82.3403 64.8075 82.5865 65.4315C82.8328 66.0555 82.972 66.7304 82.9962 67.4177C83.0204 68.105 82.929 68.7911 82.7274 69.4369L73.8183 87.8823L72.9593 99.4837C72.9341 99.8163 72.8225 100.132 72.6398 100.387C72.457 100.643 72.2119 100.826 71.9375 100.913L69.4018 101.706C69.1299 101.79 68.8423 101.776 68.5776 101.664C68.476 101.621 68.3791 101.564 68.2888 101.494Z" fill="#6C63FF"/>
<path d="M97.4439 63.3734C96.0958 61.7411 94.433 60.4639 92.5781 59.6359C90.7232 58.8078 88.7236 58.4502 86.7268 58.5893C86.5956 58.5983 86.4649 58.6084 86.3347 58.6196H86.3346C84.4421 58.7848 82.6033 59.3942 80.9412 60.4071C79.2792 61.42 77.8321 62.813 76.6968 64.4929C75.5426 66.1963 74.731 68.1522 74.3163 70.2297C73.9016 72.3073 73.8934 74.4586 74.2922 76.5399C75.814 84.494 75.4289 92.7489 73.1748 100.488L71.0693 107.707C71.0018 107.938 70.9833 108.183 71.0152 108.424C71.0471 108.664 71.1286 108.893 71.2534 109.093C71.3782 109.294 71.543 109.46 71.735 109.578C71.927 109.697 72.1412 109.766 72.361 109.778L83.1253 110.417L85.8799 105.164V110.581L98.9629 111.358C98.9889 111.359 99.0148 111.36 99.0406 111.36C99.2391 111.36 99.4355 111.314 99.6173 111.226C99.7991 111.138 99.9625 111.01 100.097 110.849C100.232 110.688 100.335 110.497 100.399 110.29C100.464 110.083 100.489 109.863 100.473 109.645L98.9947 89.3991L100.849 75.6486C101.15 73.4515 101 71.2081 100.41 69.0837C99.8208 66.9592 98.8071 65.0079 97.4439 63.3734Z" fill="#6C63FF"/>
<path d="M83.7681 55.2392C84.4671 55.6946 87.2302 55.9965 87.427 55.111L87.4312 55.0916C87.5683 54.4428 87.4545 53.7653 87.4152 53.0997C87.3758 52.4341 87.4334 51.7029 87.8338 51.2136C88.5801 50.3013 89.908 50.7849 90.9872 50.5542C91.6194 50.3945 92.1784 49.9794 92.5598 49.3866C92.9412 48.7939 93.1187 48.0641 93.0591 47.3339C93.0437 47.1955 93.0196 47.057 92.9926 46.9186C92.9251 46.5679 92.9303 46.2043 93.0078 45.8562C93.0854 45.5082 93.2331 45.1852 93.4394 44.9127C93.6457 44.6402 93.905 44.4255 94.1969 44.2856C94.4889 44.1456 94.8055 44.0841 95.1219 44.106C96.2126 44.1766 97.3899 44.5508 98.2923 43.6361C98.9901 42.9288 99.1604 41.0877 98.8538 40.0857C98.3385 38.4018 95.0378 37.5202 93.5967 37.0356C91.8143 36.4525 89.9395 36.3265 88.1087 36.6666C86.2779 37.0067 84.5371 37.8045 83.0127 39.0018C82.1025 39.7283 81.2524 40.641 80.8644 41.8229C80.4764 43.0049 80.6636 44.496 81.5385 45.2762C80.8603 46.0891 80.3828 47.0895 80.1537 48.1772C79.9246 49.2649 79.952 50.4016 80.2332 51.4735C80.6653 53.0499 82.7276 54.5613 83.7681 55.2392Z" fill="#2F2E41"/>
<path d="M275.684 178.56H26.3157C26.2319 178.56 26.1517 178.509 26.0925 178.419C26.0333 178.329 26 178.207 26 178.08C26 177.953 26.0333 177.831 26.0925 177.741C26.1517 177.651 26.2319 177.6 26.3157 177.6H275.684C275.768 177.6 275.848 177.651 275.908 177.741C275.967 177.831 276 177.953 276 178.08C276 178.207 275.967 178.329 275.908 178.419C275.848 178.509 275.768 178.56 275.684 178.56Z" fill="#CCCCCC"/>
<path d="M251.781 114.228C251.091 114.289 250.4 114.124 249.795 113.754C249.191 113.384 248.7 112.826 248.384 112.15C248.069 111.474 247.943 110.71 248.024 109.956C248.104 109.201 248.386 108.49 248.834 107.912C249.283 107.333 249.878 106.914 250.544 106.706C251.21 106.499 251.917 106.512 252.575 106.746C253.234 106.979 253.815 107.422 254.245 108.017C254.674 108.613 254.933 109.335 254.989 110.092C255.063 111.107 254.767 112.113 254.166 112.888C253.564 113.664 252.706 114.146 251.781 114.228ZM251.738 113.639C252.322 113.587 252.878 113.347 253.338 112.948C253.797 112.549 254.138 112.01 254.318 111.398C254.498 110.787 254.509 110.13 254.349 109.512C254.189 108.894 253.865 108.342 253.419 107.925C252.973 107.509 252.424 107.247 251.843 107.173C251.261 107.098 250.672 107.215 250.151 107.508C249.629 107.8 249.199 108.256 248.913 108.818C248.628 109.379 248.501 110.02 248.548 110.661C248.579 111.086 248.687 111.501 248.864 111.88C249.041 112.26 249.285 112.598 249.581 112.875C249.877 113.151 250.22 113.361 250.59 113.492C250.96 113.623 251.35 113.673 251.738 113.639Z" fill="#F2F2F2"/>
<path d="M152.614 85.0843C153.198 84.6753 153.878 84.4653 154.571 84.4808C155.263 84.4963 155.935 84.7366 156.503 85.1714C157.071 85.6061 157.508 86.2158 157.76 86.9232C158.012 87.6307 158.067 88.4042 157.918 89.1459C157.769 89.8876 157.423 90.5642 156.924 91.0902C156.424 91.6161 155.794 91.9678 155.112 92.1007C154.43 92.2337 153.728 92.1419 153.094 91.837C152.46 91.5321 151.922 91.0278 151.549 90.3878C151.051 89.5293 150.882 88.4888 151.082 87.4945C151.282 86.5003 151.833 85.6335 152.614 85.0843ZM156.094 91.0579C156.588 90.7119 156.977 90.213 157.212 89.6245C157.447 89.0359 157.518 88.384 157.416 87.7513C157.313 87.1186 157.042 86.5334 156.636 86.0698C156.23 85.6062 155.709 85.285 155.136 85.1468C154.564 85.0086 153.968 85.0596 153.422 85.2934C152.876 85.5271 152.406 85.9331 152.07 86.4601C151.735 86.987 151.55 87.6112 151.538 88.2537C151.526 88.8962 151.688 89.5282 152.003 90.0697C152.427 90.795 153.096 91.3064 153.863 91.4917C154.629 91.677 155.432 91.521 156.094 91.0579L156.094 91.0579Z" fill="#F2F2F2"/>
<path d="M153 73.92C154.105 73.92 155 73.0604 155 72C155 70.9396 154.105 70.08 153 70.08C151.895 70.08 151 70.9396 151 72C151 73.0604 151.895 73.92 153 73.92Z" fill="#F2F2F2"/>
<path d="M152 59.52C152.552 59.52 153 58.6604 153 57.6C153 56.5396 152.552 55.68 152 55.68C151.448 55.68 151 56.5396 151 57.6C151 58.6604 151.448 59.52 152 59.52Z" fill="#F2F2F2"/>
<path d="M54.6931 131.552C54.248 130.845 54.0069 130.012 54.0001 129.158C53.9934 128.303 54.2214 127.466 54.6553 126.751C55.0893 126.036 55.7096 125.477 56.4379 125.143C57.1662 124.809 57.9698 124.716 58.747 124.876C59.5242 125.036 60.2401 125.441 60.8043 126.04C61.3684 126.639 61.7554 127.405 61.9164 128.242C62.0773 129.079 62.0049 129.948 61.7084 130.74C61.4119 131.533 60.9045 132.212 60.2505 132.693C59.3731 133.337 58.2952 133.578 57.2534 133.364C56.2115 133.15 55.2908 132.498 54.6931 131.552ZM60.7981 127.064C60.4215 126.466 59.8892 126.002 59.2686 125.731C58.648 125.46 57.9669 125.394 57.3115 125.541C56.6561 125.688 56.0557 126.042 55.5864 126.558C55.1171 127.073 54.7999 127.728 54.6749 128.438C54.5499 129.149 54.6227 129.883 54.8842 130.549C55.1456 131.214 55.5839 131.781 56.1436 132.178C56.7034 132.575 57.3594 132.783 58.0288 132.777C58.6982 132.771 59.3508 132.55 59.9043 132.144C60.6455 131.597 61.156 130.756 61.3235 129.803C61.4911 128.851 61.3022 127.866 60.7981 127.064H60.7981Z" fill="#F2F2F2"/>
<path d="M43 133.44C44.1046 133.44 45 132.365 45 131.04C45 129.715 44.1046 128.64 43 128.64C41.8954 128.64 41 129.715 41 131.04C41 132.365 41.8954 133.44 43 133.44Z" fill="#F2F2F2"/>
<path d="M30.5 134.4C31.3284 134.4 32 133.54 32 132.48C32 131.42 31.3284 130.56 30.5 130.56C29.6716 130.56 29 131.42 29 132.48C29 133.54 29.6716 134.4 30.5 134.4Z" fill="#F2F2F2"/>
</g>
<defs>
<clipPath id="clip0_69_5498">
<rect width="250" height="240" fill="white"/>
</clipPath>
</defs>
</svg>
