<svg width="250" height="250" viewBox="0 0 250 250" fill="none" xmlns="http://www.w3.org/2000/svg">
<g clip-path="url(#clip0_69_6167)">
<path d="M96.5253 227.703L90.015 233.864L95.1889 224.94C91.1126 217.342 84.4459 210.775 84.4459 210.775C84.4459 210.775 70.6147 224.396 70.6147 235.104C70.6147 245.811 76.8071 249.549 84.4459 249.549C92.0845 249.549 98.2769 245.811 98.2769 235.104C98.2769 232.72 97.5907 230.193 96.5253 227.703Z" fill="#F2F2F2"/>
<path d="M88.3407 234.198V234.726C88.3102 240.86 87.3037 245.647 85.3287 249.017C85.3007 249.067 85.2702 249.114 85.2423 249.163L85.0211 249.025L84.8102 248.889C87.0012 245.25 87.7764 240.105 87.8044 234.754C87.8069 234.582 87.8095 234.407 87.8069 234.232C87.7993 231.966 87.6646 229.675 87.4485 227.449C87.4333 227.277 87.4155 227.102 87.3977 226.927C87.0978 223.99 86.6657 221.184 86.2234 218.746C86.1929 218.574 86.1598 218.401 86.1268 218.231C85.3617 214.108 84.5814 211.122 84.4035 210.461C84.3831 210.38 84.3704 210.336 84.3679 210.325L84.6093 210.255L84.6119 210.252L84.8559 210.182C84.8585 210.192 84.9017 210.341 84.9728 210.618C85.2448 211.653 85.9514 214.461 86.6453 218.166C86.6758 218.333 86.7089 218.506 86.7394 218.678C87.1003 220.656 87.4536 222.866 87.7332 225.186C87.8044 225.769 87.8679 226.344 87.9239 226.911C87.9442 227.086 87.962 227.261 87.9772 227.433C88.2111 229.84 88.3322 232.095 88.3407 234.198Z" fill="white"/>
<path d="M86.6453 218.166C86.475 218.19 86.3022 218.213 86.1268 218.231C85.6505 218.282 85.172 218.307 84.6932 218.307C82.6527 218.31 80.6375 217.842 78.7962 216.938C78.6895 217.077 78.5827 217.215 78.4734 217.356C80.4104 218.328 82.5378 218.832 84.6932 218.83C85.2043 218.83 85.7151 218.802 86.2234 218.746C86.3962 218.728 86.5691 218.704 86.7394 218.678C88.1451 218.471 89.5121 218.045 90.7935 217.416C90.6842 217.272 90.5775 217.131 90.4733 216.993C89.2604 217.576 87.9705 217.971 86.6453 218.166Z" fill="white"/>
<path d="M87.9239 226.911C87.7485 226.921 87.5731 226.927 87.3977 226.927C87.3443 226.929 87.2884 226.929 87.235 226.929C85.024 226.929 82.8457 226.38 80.8859 225.327C78.9262 224.275 77.243 222.751 75.9799 220.886C75.8783 221.04 75.7766 221.194 75.6775 221.351C76.994 223.238 78.729 224.776 80.7389 225.837C82.7487 226.898 84.9756 227.452 87.235 227.452C87.3062 227.452 87.3773 227.452 87.4485 227.449C87.6264 227.446 87.8018 227.441 87.9772 227.433C90.6911 227.29 93.3075 226.347 95.5136 224.716C95.4323 224.562 95.3509 224.408 95.267 224.254C93.123 225.855 90.571 226.778 87.9239 226.911Z" fill="white"/>
<path d="M88.3407 234.198C88.1628 234.213 87.9849 234.224 87.8069 234.232C87.6163 234.24 87.4257 234.245 87.235 234.245C84.264 234.241 81.374 233.249 78.9977 231.415C76.6214 229.582 74.8867 227.007 74.0533 224.076C73.9389 224.288 73.8245 224.497 73.7152 224.708C74.6543 227.633 76.466 230.179 78.893 231.985C81.3201 233.79 84.2389 234.764 87.235 234.767C87.4257 234.767 87.6163 234.765 87.8044 234.754C87.9849 234.749 88.1628 234.739 88.3407 234.725C91.9346 234.436 95.2873 232.754 97.7199 230.02C97.6666 229.827 97.6056 229.636 97.5445 229.443C95.1949 232.198 91.8935 233.903 88.3407 234.198Z" fill="white"/>
<path d="M249.638 13.3881H0.361903C0.266166 13.3878 0.174469 13.3484 0.106889 13.2787C0.0393084 13.209 0.00135803 13.1146 0.00135803 13.0162C0.00135803 12.9178 0.0393084 12.8234 0.106889 12.7537C0.174469 12.684 0.266166 12.6447 0.361903 12.6443H249.638C249.734 12.6447 249.826 12.684 249.893 12.7537C249.961 12.8234 249.999 12.9178 249.999 13.0162C249.999 13.1146 249.961 13.209 249.893 13.2787C249.826 13.3484 249.734 13.3878 249.638 13.3881Z" fill="#CACACA"/>
<path d="M241.401 2.50221H231.633C231.441 2.50153 231.258 2.42287 231.122 2.28346C230.987 2.14405 230.911 1.95525 230.911 1.75843C230.911 1.56161 230.987 1.37282 231.122 1.23341C231.258 1.09399 231.441 1.01533 231.633 1.01465H241.401C241.496 1.01431 241.591 1.0333 241.679 1.07053C241.767 1.10776 241.847 1.16249 241.914 1.23159C241.982 1.30069 242.035 1.3828 242.072 1.4732C242.108 1.56361 242.127 1.66054 242.127 1.75843C242.127 1.85632 242.108 1.95326 242.072 2.04366C242.035 2.13407 241.982 2.21618 241.914 2.28528C241.847 2.35438 241.767 2.40911 241.679 2.44634C241.591 2.48356 241.496 2.50255 241.401 2.50221Z" fill="#3F3D56"/>
<path d="M241.401 5.2914H231.633C231.441 5.29072 231.258 5.21206 231.122 5.07265C230.987 4.93323 230.911 4.74444 230.911 4.54762C230.911 4.3508 230.987 4.162 231.122 4.02259C231.258 3.88318 231.441 3.80452 231.633 3.80384H241.401C241.496 3.8035 241.591 3.82249 241.679 3.85971C241.767 3.89694 241.847 3.95168 241.914 4.02078C241.982 4.08988 242.035 4.17198 242.072 4.26239C242.108 4.3528 242.127 4.44973 242.127 4.54762C242.127 4.64551 242.108 4.74244 242.072 4.83285C242.035 4.92325 241.982 5.00536 241.914 5.07446C241.847 5.14356 241.767 5.19829 241.679 5.23552C241.591 5.27275 241.496 5.29174 241.401 5.2914Z" fill="#3F3D56"/>
<path d="M241.401 8.08059H231.633C231.441 8.07991 231.258 8.00124 231.122 7.86183C230.987 7.72242 230.911 7.53362 230.911 7.3368C230.911 7.13998 230.987 6.95119 231.122 6.81178C231.258 6.67237 231.441 6.5937 231.633 6.59302H241.401C241.496 6.59268 241.591 6.61168 241.679 6.6489C241.767 6.68613 241.847 6.74086 241.914 6.80996C241.982 6.87906 242.035 6.96117 242.072 7.05158C242.108 7.14199 242.127 7.23891 242.127 7.3368C242.127 7.43469 242.108 7.53162 242.072 7.62203C242.035 7.71244 241.982 7.79455 241.914 7.86365C241.847 7.93275 241.767 7.98748 241.679 8.02471C241.591 8.06193 241.496 8.08093 241.401 8.08059Z" fill="#3F3D56"/>
<path d="M235.95 30.2064H7.50966V154.615H235.95V30.2064Z" fill="#F0F0F0"/>
<path d="M235.95 53.4936V52.2736H191.482V30.2064H190.295V52.2736H145.826V30.2064H144.639V52.2736H100.171V30.2064H98.9842V52.2736H54.5157V30.2064H53.3288V52.2736H7.50966V53.4936H53.3288V77.8722H7.50966V79.0923H53.3288V103.471H7.50966V104.691H53.3288V129.065H7.50966V130.285H53.3288V154.615H54.5157V130.285H98.9842V154.615H100.171V130.285H144.639V154.615H145.826V130.285H190.295V154.615H191.482V130.285H235.95V129.065H191.482V104.691H235.95V103.471H191.482V79.0923H235.95V77.8723H191.482V53.4936L235.95 53.4936ZM98.9842 129.065H54.5157V104.691H98.9842V129.065ZM98.9842 103.471H54.5157V79.0923H98.9842V103.471ZM98.9842 77.8722H54.5157V53.4936H98.9842V77.8722ZM144.639 129.065H100.171V104.691H144.639V129.065ZM144.639 103.471H100.171V79.0923H144.639V103.471ZM144.639 77.8723H100.171V53.4936H144.639V77.8723ZM190.295 129.065H145.826V104.691H190.295V129.065ZM190.295 103.471H145.826V79.0923H190.295V103.471ZM190.295 77.8723H145.826V53.4937H190.295V77.8723Z" fill="white"/>
<path d="M78.6447 59.4224H63.3619V74.6309H78.6447V59.4224Z" fill="#CACACA"/>
<path d="M219.348 108.668H204.065V123.876H219.348V108.668Z" fill="#CACACA"/>
<path d="M83.3924 133.956H68.1096V149.164H83.3924V133.956Z" fill="#CACACA"/>
<path d="M87.9091 56.6008H72.6263V71.8092H87.9091V56.6008Z" fill="#F7EFC5"/>
<path d="M159.75 119.82L177.886 103.211L183.236 105.935L161.485 129.386L159.75 119.82Z" fill="#FFB6B6"/>
<path d="M180.273 108.919C182.656 108.919 184.589 106.933 184.589 104.482C184.589 102.032 182.656 100.046 180.273 100.046C177.889 100.046 175.957 102.032 175.957 104.482C175.957 106.933 177.889 108.919 180.273 108.919Z" fill="#FFB6B6"/>
<path d="M142.775 244.832H138.483L136.442 227.818L142.775 227.818L142.775 244.832Z" fill="#FFB6B6"/>
<path d="M143.869 249.107L130.032 249.107V248.927C130.032 247.459 130.6 246.051 131.61 245.012C132.62 243.974 133.99 243.391 135.418 243.391H135.418L143.869 243.391L143.869 249.107Z" fill="#2F2E41"/>
<path d="M127.237 244.832H122.945L120.904 227.818L127.237 227.818L127.237 244.832Z" fill="#FFB6B6"/>
<path d="M128.331 249.107L114.494 249.107V248.927C114.495 247.459 115.062 246.051 116.072 245.012C117.082 243.974 118.452 243.391 119.88 243.391H119.88L128.331 243.391L128.331 249.107Z" fill="#2F2E41"/>
<path d="M146.379 147.576C146.379 147.576 157.169 146.688 153.716 166.209C150.263 185.73 143.111 239.128 143.111 239.128L136.627 240.044L132.796 168.812L129.898 240.044L121.651 239.128L113.577 162.66C113.577 162.66 110.984 156.512 113.575 152.265C116.166 148.019 146.379 147.576 146.379 147.576Z" fill="#2F2E41"/>
<path d="M139.473 99.2177L142.469 97.568C142.469 97.568 149.85 96.9209 152.862 105.833L160.85 118.236L173.799 106.701L179.41 110.694L163.091 130.713L156.306 131.604L141.631 112.084L139.473 99.2177Z" fill="#3F3D56"/>
<path d="M128.602 63.2229C116.294 63.2229 112.849 77.1211 112.849 84.9618C112.849 92.8025 119.902 91.6166 128.602 91.6166C132.337 91.6166 135.766 91.8333 138.466 91.4627L139.764 88.2032L140.809 90.904C143.025 90.067 144.356 88.3656 144.356 84.9618C144.356 77.1211 141.335 63.2229 128.602 63.2229Z" fill="#2F2E41"/>
<path d="M128.55 91.6035C134.404 91.6035 139.15 86.7249 139.15 80.707C139.15 74.689 134.404 69.8104 128.55 69.8104C122.695 69.8104 117.949 74.689 117.949 80.707C117.949 86.7249 122.695 91.6035 128.55 91.6035Z" fill="#FFB6B6"/>
<path d="M116.302 79.638H120.494L122.344 74.3141L122.714 79.638H124.718L125.797 76.5324L126.013 79.638H140.903C140.903 76.5787 139.721 73.6448 137.616 71.4815C135.512 69.3183 132.658 68.103 129.681 68.103H127.523C124.547 68.103 121.693 69.3183 119.588 71.4815C117.484 73.6448 116.302 76.5787 116.302 79.638Z" fill="#2F2E41"/>
<path d="M187.178 87.6563H171.896V102.865H187.178V87.6563Z" fill="#F7EFC5"/>
<path d="M149.733 143.561C148.105 143.583 143.203 113.681 143.203 113.681L142.469 97.568L137.112 97.3829V97.0207C137.112 96.2934 136.831 95.5959 136.331 95.0816C135.83 94.5674 135.152 94.2785 134.444 94.2784H124.242C123.564 94.2788 122.912 94.5445 122.418 95.0215C121.924 95.4985 121.626 96.151 121.583 96.8463L117.382 96.7011L110.107 120.46C110.107 120.46 116.811 142.537 113.575 152.265C113.575 152.265 145.099 155.048 151.134 148.872C151.134 148.872 151.36 143.54 149.733 143.561Z" fill="#3F3D56"/>
<path d="M119.188 99.6614L117.382 96.7011C117.382 96.7011 111.508 95.2083 109.089 99.2094C106.671 103.211 99.5624 124.89 99.5624 124.89L106.9 127.552L115.226 115.553L119.188 99.6614Z" fill="#3F3D56"/>
<path d="M137.544 115.163H122.261V130.371H137.544V115.163Z" fill="#F7EFC5"/>
<path d="M110.535 120.66L105.219 120.081C104.883 120.817 104.714 121.623 104.726 122.436C104.738 123.249 104.929 124.048 105.286 124.774C105.642 125.5 106.155 126.133 106.785 126.625C107.414 127.117 108.145 127.456 108.921 127.615L129.958 131.931L127.764 124.984L110.535 120.66Z" fill="#FFB6B6"/>
<path d="M130.022 132.011C132.406 132.011 134.338 130.024 134.338 127.574C134.338 125.124 132.406 123.138 130.022 123.138C127.638 123.138 125.706 125.124 125.706 127.574C125.706 130.024 127.638 132.011 130.022 132.011Z" fill="#FFB6B6"/>
<path d="M124.634 132.146L108.606 128.381C107.445 128.105 106.373 127.525 105.493 126.698C104.613 125.871 103.957 124.825 103.586 123.66L102.938 121.607L107.098 118.243L126.154 123.718L124.634 132.146Z" fill="#3F3D56"/>
<path d="M214.698 250H50.2557C50.1413 250 50.0315 249.953 49.9505 249.87C49.8696 249.787 49.8241 249.674 49.8241 249.556C49.8241 249.439 49.8696 249.326 49.9505 249.243C50.0315 249.159 50.1413 249.113 50.2557 249.113H214.698C214.812 249.113 214.922 249.159 215.003 249.243C215.084 249.326 215.129 249.439 215.129 249.556C215.129 249.674 215.084 249.787 215.003 249.87C214.922 249.953 214.812 250 214.698 250Z" fill="#CACACA"/>
</g>
<defs>
<clipPath id="clip0_69_6167">
<rect width="250" height="250" fill="white"/>
</clipPath>
</defs>
</svg>
