<svg width="265" height="221" viewBox="0 0 265 221" fill="none" xmlns="http://www.w3.org/2000/svg">
<g clip-path="url(#clip0_203_234)">
<path d="M241.219 201.75C236.139 207.527 230.318 212.515 223.928 216.568C223.782 216.663 223.633 216.753 223.483 216.846L213.138 207.12C213.247 207.013 213.367 206.893 213.497 206.76C221.205 198.986 259.471 144.627 262.021 131.39C261.845 132.493 264.322 175.74 241.219 201.75Z" fill="#6C63FF"/>
<path d="M225.924 218.444C225.729 218.494 225.53 218.54 225.33 218.582L217.569 211.286C217.721 211.23 217.898 211.163 218.101 211.089C221.431 209.836 231.349 206.055 241.219 201.749C251.824 197.12 262.379 191.889 264.648 188.539C264.162 189.317 249.162 212.925 225.924 218.444Z" fill="#6C63FF"/>
<path d="M241.076 57.8793H239.971V25.7178C239.971 23.2734 239.517 20.8529 238.637 18.5945C237.756 16.3361 236.465 14.2841 234.838 12.5556C233.211 10.8272 231.279 9.45604 229.153 8.52059C227.027 7.58514 224.748 7.10367 222.447 7.10367H158.299C155.997 7.10366 153.718 7.58513 151.592 8.52057C149.466 9.45601 147.534 10.8271 145.907 12.5556C144.28 14.2841 142.989 16.3361 142.108 18.5945C141.228 20.8528 140.774 23.2733 140.774 25.7178V202.158C140.774 204.602 141.228 207.023 142.108 209.281C142.989 211.54 144.28 213.592 145.907 215.32C147.534 217.049 149.466 218.42 151.592 219.355C153.718 220.291 155.997 220.772 158.298 220.772H222.446C224.748 220.772 227.027 220.291 229.153 219.355C231.279 218.42 233.211 217.049 234.838 215.32C236.465 213.592 237.756 211.54 238.637 209.281C239.517 207.023 239.971 204.602 239.971 202.158V80.7723H241.076V57.8793Z" fill="#3F3D56"/>
<path d="M236.24 25.8457V202.029C236.24 203.855 235.902 205.662 235.244 207.349C234.586 209.035 233.622 210.568 232.406 211.858C231.191 213.149 229.748 214.172 228.16 214.871C226.572 215.569 224.87 215.928 223.151 215.927H158.695C156.976 215.927 155.275 215.568 153.687 214.869C152.1 214.171 150.657 213.147 149.442 211.857C148.227 210.566 147.264 209.034 146.606 207.348C145.949 205.661 145.61 203.854 145.61 202.029V25.8457C145.61 24.0206 145.949 22.2133 146.606 20.527C147.264 18.8408 148.227 17.3086 149.442 16.018C150.657 14.7275 152.1 13.7038 153.687 13.0054C155.275 12.307 156.976 11.9476 158.695 11.9477H166.517C166.133 12.9506 165.987 14.0383 166.091 15.1151C166.196 16.192 166.548 17.2251 167.117 18.1235C167.686 19.0219 168.453 19.7581 169.353 20.2674C170.252 20.7767 171.256 21.0434 172.275 21.0441H209.023C210.043 21.0452 211.048 20.7796 211.948 20.2708C212.848 19.762 213.617 19.0256 214.186 18.1267C214.755 17.2278 215.107 16.1939 215.211 15.1163C215.315 14.0387 215.167 12.9505 214.782 11.9477H223.151C224.87 11.9471 226.572 12.3061 228.16 13.0042C229.748 13.7023 231.191 14.726 232.406 16.0166C233.622 17.3072 234.586 18.8395 235.244 20.526C235.902 22.2125 236.24 24.0202 236.24 25.8457Z" fill="white"/>
<path d="M216.19 117.4H159.534C158.542 117.399 157.591 116.98 156.889 116.234C156.187 115.489 155.793 114.478 155.792 113.424V111.445C155.793 110.391 156.187 109.381 156.889 108.635C157.591 107.89 158.542 107.471 159.534 107.469H216.19C217.182 107.471 218.134 107.89 218.835 108.635C219.537 109.381 219.932 110.391 219.933 111.445V113.424C219.932 114.478 219.537 115.489 218.835 116.234C218.134 116.98 217.182 117.399 216.19 117.4Z" fill="#F0F0F0"/>
<path d="M216.19 134.459H159.534C158.542 134.458 157.591 134.038 156.889 133.293C156.187 132.548 155.793 131.537 155.792 130.483V128.504C155.793 127.45 156.187 126.44 156.889 125.694C157.591 124.949 158.542 124.53 159.534 124.528H216.19C217.182 124.53 218.134 124.949 218.835 125.694C219.537 126.44 219.932 127.45 219.933 128.504V130.483C219.932 131.537 219.537 132.548 218.835 133.293C218.134 134.038 217.182 134.458 216.19 134.459Z" fill="#F0F0F0"/>
<path d="M219.024 113.585H162.369C161.327 113.584 160.328 113.143 159.591 112.361C158.854 111.578 158.44 110.517 158.438 109.41V107.431C158.44 106.324 158.854 105.263 159.591 104.481C160.328 103.698 161.327 103.258 162.369 103.257H219.024C220.066 103.258 221.065 103.698 221.802 104.481C222.539 105.263 222.953 106.324 222.954 107.431V109.41C222.953 110.517 222.539 111.578 221.802 112.361C221.065 113.143 220.066 113.584 219.024 113.585ZM162.369 104.052C161.525 104.053 160.716 104.409 160.12 105.043C159.524 105.676 159.188 106.535 159.187 107.431V109.41C159.188 110.306 159.524 111.165 160.12 111.799C160.716 112.432 161.525 112.789 162.369 112.79H219.024C219.868 112.789 220.676 112.432 221.273 111.799C221.869 111.165 222.205 110.306 222.206 109.41V107.431C222.205 106.535 221.869 105.676 221.273 105.043C220.676 104.409 219.868 104.053 219.024 104.052H162.369Z" fill="#3F3D56"/>
<path d="M219.024 130.644H162.369C161.327 130.642 160.328 130.202 159.591 129.42C158.854 128.637 158.44 127.576 158.438 126.469V124.49C158.44 123.383 158.854 122.322 159.591 121.54C160.328 120.757 161.327 120.317 162.369 120.316H219.024C220.066 120.317 221.065 120.757 221.802 121.54C222.539 122.322 222.953 123.383 222.954 124.49V126.469C222.953 127.576 222.539 128.637 221.802 129.42C221.065 130.202 220.066 130.642 219.024 130.644ZM162.369 121.111C161.525 121.112 160.716 121.468 160.12 122.102C159.524 122.735 159.188 123.594 159.187 124.49V126.469C159.188 127.365 159.524 128.224 160.12 128.858C160.716 129.491 161.525 129.848 162.369 129.849H219.024C219.868 129.848 220.676 129.491 221.273 128.858C221.869 128.224 222.205 127.365 222.206 126.469V124.49C222.205 123.594 221.869 122.735 221.273 122.102C220.676 121.468 219.868 121.112 219.024 121.111H162.369Z" fill="#3F3D56"/>
<path d="M236.24 25.8457V64.168C230.508 65.77 224.505 65.9538 218.695 64.7053C212.885 63.4567 207.422 60.8091 202.727 56.9661C198.031 53.1231 194.228 48.1872 191.61 42.538C188.992 36.8889 187.629 30.6771 187.626 24.3807C187.626 23.2568 187.669 22.1446 187.754 21.0441H209.023C210.043 21.0452 211.048 20.7796 211.948 20.2708C212.848 19.762 213.617 19.0256 214.186 18.1267C214.755 17.2278 215.107 16.1939 215.211 15.1163C215.315 14.0387 215.167 12.9505 214.782 11.9477H223.151C224.87 11.9471 226.572 12.3061 228.16 13.0042C229.748 13.7023 231.191 14.726 232.406 16.0166C233.622 17.3072 234.586 18.8395 235.244 20.526C235.902 22.2125 236.24 24.0202 236.24 25.8457Z" fill="#F0F0F0"/>
<path d="M178.179 213.534C178.179 214.341 178.151 215.139 178.089 215.927H158.695C156.976 215.927 155.275 215.568 153.687 214.869C152.1 214.171 150.657 213.147 149.442 211.857C148.227 210.566 147.264 209.034 146.606 207.348C145.949 205.661 145.61 203.854 145.61 202.029V183.184C149.676 182.622 153.807 182.988 157.729 184.255C161.651 185.523 165.274 187.664 168.356 190.536C171.438 193.408 173.908 196.944 175.602 200.91C177.295 204.876 178.174 209.179 178.179 213.534H178.179Z" fill="#6C63FF"/>
<path d="M21.7545 180.468C22.2994 180.722 22.9172 180.737 23.4723 180.508C24.0274 180.28 24.4745 179.826 24.7155 179.248L42.1873 137.187C42.5872 136.224 42.7094 135.158 42.5384 134.121C42.3674 133.085 41.911 132.126 41.2268 131.365C40.5426 130.604 39.6613 130.076 38.6945 129.847C37.7277 129.619 36.7188 129.7 35.7953 130.08H35.7953C34.7283 130.513 33.8355 131.325 33.2687 132.378C33.1786 132.545 33.0968 132.716 33.0238 132.892L15.552 174.953C15.4329 175.24 15.3682 175.549 15.3614 175.862C15.3547 176.175 15.4061 176.487 15.5127 176.779C15.6193 177.071 15.7791 177.338 15.9828 177.564C16.1865 177.791 16.4303 177.972 16.7001 178.099L21.7545 180.468Z" fill="#FFB6B6"/>
<path d="M41.47 154.455L24.1882 150.376L28.4657 138.356C29.1943 135.418 30.8902 132.855 33.2455 131.132C35.6008 129.408 38.4597 128.638 41.3036 128.962L41.4701 128.982L41.47 154.455Z" fill="#2F2E41"/>
<path d="M76.3766 181.069C75.8683 181.068 75.3711 180.911 74.9452 180.616C74.5193 180.322 74.1829 179.902 73.9766 179.409L56.5049 137.347C55.9493 136.009 55.8976 134.495 56.3606 133.118C56.8235 131.74 57.7659 130.604 58.9938 129.942C60.2217 129.28 61.6418 129.143 62.9618 129.559C64.2819 129.976 65.4015 130.914 66.0904 132.18V132.18C66.1872 132.359 66.275 132.543 66.3534 132.732L83.8251 174.793C84.1056 175.468 84.122 176.234 83.8708 176.922C83.6197 177.611 83.1214 178.165 82.4856 178.463L77.26 180.912L77.2573 180.905C76.9748 181.014 76.6769 181.069 76.3766 181.069Z" fill="#FFB6B6"/>
<path d="M52.2085 166.626C51.6131 166.626 51.0423 166.878 50.6213 167.325C50.2002 167.772 49.9634 168.379 49.9628 169.011V217.919C49.9634 218.551 50.2002 219.157 50.6213 219.605C51.0423 220.052 51.6131 220.303 52.2085 220.304H57.7329C58.3283 220.303 58.8992 220.052 59.3202 219.605C59.7412 219.157 59.978 218.551 59.9787 217.919V169.011C59.978 168.379 59.7412 167.772 59.3202 167.325C58.8992 166.878 58.3283 166.626 57.7329 166.626H52.2085Z" fill="#FFB6B6"/>
<path d="M41.282 166.626C40.6866 166.626 40.1158 166.878 39.6948 167.325C39.2737 167.772 39.0369 168.379 39.0363 169.011V217.919C39.0369 218.551 39.2737 219.157 39.6948 219.605C40.1158 220.052 40.6866 220.303 41.282 220.304H46.8065C47.4019 220.303 47.9727 220.052 48.3938 219.605C48.8148 219.157 49.0516 218.551 49.0523 217.919V169.011C49.0516 168.379 48.8148 167.772 48.3938 167.325C47.9727 166.878 47.4019 166.626 46.8065 166.626H41.282Z" fill="#FFB6B6"/>
<path d="M49.3424 115.386C59.885 115.386 68.4314 106.308 68.4314 95.1099C68.4314 83.9116 59.885 74.8335 49.3424 74.8335C38.7998 74.8335 30.2534 83.9116 30.2534 95.1099C30.2534 106.308 38.7998 115.386 49.3424 115.386Z" fill="#FFB6B6"/>
<path d="M55.6949 103.622C56.9323 103.585 58.4723 103.54 59.6587 102.619C60.0119 102.334 60.3022 101.97 60.5091 101.553C60.716 101.135 60.8346 100.675 60.8564 100.205C60.8779 99.8699 60.8262 99.5346 60.7054 99.2247C60.5846 98.9148 60.398 98.6388 60.1601 98.4182C59.5405 97.862 58.6356 97.7315 57.6605 98.0359L58.6708 90.1935L57.9292 90.0856L56.7414 99.3054L57.3608 99.0035C58.0788 98.6537 59.0644 98.4757 59.6769 99.0254C59.8273 99.1692 59.9445 99.3478 60.0193 99.5475C60.0941 99.7471 60.1246 99.9624 60.1083 100.177C60.0902 100.527 60.0012 100.869 59.8474 101.18C59.6936 101.49 59.4786 101.762 59.2171 101.977C58.2938 102.693 57.0663 102.786 55.6741 102.827L55.6949 103.622Z" fill="#2F2E41"/>
<path d="M66.3704 90.8699H62.3386V91.665H66.3704V90.8699Z" fill="#2F2E41"/>
<path d="M53.6443 90.8699H49.6125V91.665H53.6443V90.8699Z" fill="#2F2E41"/>
<path d="M68.2568 181.316L61.3863 128.041C61.3126 127.47 61.0466 126.946 60.6376 126.567C60.2285 126.188 59.704 125.979 59.1612 125.979H53.9752C53.9968 125.848 54.0081 125.715 54.0088 125.582V123.594C54.0088 122.961 53.7722 122.354 53.351 121.907C52.9299 121.46 52.3587 121.208 51.7631 121.208H47.2715C46.6759 121.208 46.1047 121.46 45.6836 121.907C45.2624 122.354 45.0258 122.961 45.0258 123.594V125.582C45.0266 125.715 45.0378 125.848 45.0594 125.979H39.8734C39.3306 125.979 38.8061 126.188 38.397 126.567C37.988 126.946 37.722 127.47 37.6483 128.041L30.7777 181.316C30.7342 181.654 30.7592 181.997 30.8511 182.323C30.943 182.65 31.0996 182.951 31.3104 183.208C31.5212 183.465 31.7813 183.67 32.0732 183.811C32.3651 183.952 32.682 184.025 33.0027 184.025H66.0319C66.3526 184.025 66.6695 183.952 66.9614 183.811C67.2533 183.67 67.5134 183.465 67.7242 183.208C67.935 182.951 68.0916 182.65 68.1835 182.323C68.2753 181.997 68.3004 181.654 68.2568 181.316Z" fill="#2F2E41"/>
<path d="M57.5646 154.455V128.982L57.7311 128.962C60.5784 128.639 63.4405 129.411 65.7973 131.139C68.1542 132.866 69.8494 135.434 70.5751 138.377L74.8463 150.376L57.5646 154.455Z" fill="#2F2E41"/>
<path d="M48.3811 116.019L35.1777 110.575C33.0187 109.685 30.8476 108.822 28.7 107.901C27.7801 107.561 26.9327 107.03 26.2067 106.341C25.5745 105.63 25.1437 104.744 24.9636 103.785C24.5056 101.729 24.5884 99.4815 24.6211 97.3834C24.6464 95.0881 24.8243 92.7976 25.1533 90.5289C25.7298 86.2656 27.0839 82.1628 29.1396 78.4503C32.8424 71.997 39.222 67.1418 46.5603 67.5293C49.9576 67.7087 53.3745 69.0036 55.8987 71.4709C56.162 71.8051 56.4574 72.1092 56.7802 72.3783C57.0045 72.4677 57.2486 72.4851 57.4822 72.4284C57.7903 72.4073 58.0985 72.3913 58.4071 72.3802C59.4776 72.3322 60.5501 72.38 61.6131 72.523C63.5503 72.7453 65.3863 73.5551 66.902 74.8557C68.1634 76.0084 69.1898 77.6355 69.2954 79.4437C69.3464 80.2738 69.2172 81.1053 68.9177 81.8739C68.6183 82.6425 68.1566 83.3278 67.5683 83.8769C65.9931 85.2871 63.7456 84.7915 61.8561 84.6851L54.934 84.2956L51.4268 84.0982C50.7046 84.0576 50.7067 85.2504 51.4268 85.2909L60.7485 85.8155C62.2465 85.8998 63.7904 86.1064 65.2896 86.011C66.4416 85.9556 67.5415 85.4856 68.4087 84.6782C69.2006 83.9054 69.7906 82.9278 70.121 81.8408C70.4514 80.7537 70.5109 79.5943 70.2939 78.4755C69.8133 76.0354 68.1036 74.0168 66.0993 72.816C63.3721 71.182 60.1151 71.0255 57.0635 71.267L57.4605 71.4417C54.0087 67.5064 48.7213 65.8449 43.7576 66.4263C38.5166 67.0403 33.8552 70.146 30.506 74.3928C26.7719 79.1277 24.737 85.0318 23.946 91.1029C23.5343 94.3807 23.3988 97.691 23.541 100.994C23.5351 102.451 23.7698 103.898 24.2343 105.269C24.7642 106.603 25.7225 107.694 26.9386 108.349C28.3328 109.063 29.7662 109.689 31.2309 110.221L36.0953 112.227L45.6504 116.166L48.0826 117.169C48.7567 117.447 49.0487 116.294 48.3811 116.019Z" fill="#2F2E41"/>
<path d="M27.6211 75.4869C26.4737 75.4869 25.352 75.1255 24.398 74.4483C23.4439 73.7712 22.7003 72.8088 22.2612 71.6827C21.8221 70.5567 21.7072 69.3176 21.9311 68.1222C22.1549 66.9268 22.7075 65.8288 23.5188 64.967C24.3302 64.1051 25.3639 63.5182 26.4893 63.2804C27.6147 63.0426 28.7812 63.1647 29.8413 63.6311C30.9014 64.0975 31.8075 64.8874 32.4449 65.9008C33.0824 66.9142 33.4227 68.1056 33.4227 69.3245C33.421 70.9583 32.8092 72.5247 31.7215 73.6799C30.6339 74.8352 29.1593 75.4851 27.6211 75.4869ZM27.6211 64.3548C26.6958 64.3548 25.7912 64.6462 25.0218 65.1923C24.2524 65.7384 23.6527 66.5145 23.2986 67.4226C22.9445 68.3307 22.8518 69.33 23.0324 70.294C23.2129 71.258 23.6585 72.1436 24.3128 72.8386C24.9671 73.5336 25.8008 74.0069 26.7084 74.1987C27.6159 74.3904 28.5567 74.292 29.4116 73.9159C30.2665 73.5397 30.9972 72.9028 31.5113 72.0855C32.0254 71.2682 32.2998 70.3074 32.2998 69.3245C32.2984 68.0069 31.805 66.7437 30.9279 65.812C30.0508 64.8803 28.8616 64.3562 27.6211 64.3548Z" fill="#2F2E41"/>
<path d="M124.602 113.676L112.045 103.475L102.441 116.813L114.998 127.014L124.602 113.676Z" fill="#6C63FF"/>
<path d="M53.6345 22.6092C55.6186 22.6075 57.5754 23.0994 59.3483 24.0454C61.1213 24.9913 62.661 26.3652 63.8443 28.0568L71.1766 17.8734L49.1761 0L32.3495 23.3692L41.8316 31.0726C42.7806 28.5728 44.4113 26.4314 46.5144 24.9233C48.6175 23.4152 51.097 22.6094 53.6345 22.6092Z" fill="#6C63FF"/>
<path d="M264.626 221H0.374294C0.275025 221 0.179822 220.958 0.109628 220.884C0.0394341 220.809 0 220.708 0 220.602C0 220.497 0.0394341 220.396 0.109628 220.321C0.179822 220.247 0.275025 220.205 0.374294 220.205H264.626C264.725 220.205 264.82 220.247 264.89 220.321C264.961 220.396 265 220.497 265 220.602C265 220.708 264.961 220.809 264.89 220.884C264.82 220.958 264.725 221 264.626 221Z" fill="#3F3D56"/>
<path d="M200.13 155.03H173.233C172.24 155.029 171.289 154.609 170.587 153.864C169.886 153.119 169.491 152.108 169.49 151.054V149.075C169.491 148.021 169.886 147.01 170.587 146.265C171.289 145.52 172.24 145.1 173.233 145.099H200.13C201.123 145.1 202.074 145.52 202.776 146.265C203.477 147.01 203.872 148.021 203.873 149.075V151.054C203.872 152.108 203.477 153.119 202.776 153.864C202.074 154.609 201.123 155.029 200.13 155.03Z" fill="#6C63FF"/>
<path d="M202.964 151.215H176.067C175.025 151.214 174.026 150.773 173.289 149.991C172.552 149.208 172.138 148.147 172.137 147.04V145.061C172.138 143.955 172.552 142.893 173.289 142.111C174.026 141.328 175.025 140.888 176.067 140.887H202.964C204.006 140.888 205.005 141.328 205.742 142.111C206.479 142.893 206.893 143.955 206.894 145.061V147.04C206.893 148.147 206.479 149.208 205.742 149.991C205.005 150.773 204.006 151.214 202.964 151.215ZM176.067 141.682C175.223 141.683 174.415 142.039 173.818 142.673C173.222 143.306 172.886 144.165 172.885 145.061V147.04C172.886 147.936 173.222 148.795 173.818 149.429C174.415 150.062 175.223 150.419 176.067 150.42H202.964C203.808 150.419 204.616 150.062 205.213 149.429C205.809 148.795 206.145 147.936 206.146 147.04V145.061C206.145 144.165 205.809 143.306 205.213 142.673C204.616 142.039 203.808 141.683 202.964 141.682H176.067Z" fill="#3F3D56"/>
</g>
<defs>
<clipPath id="clip0_203_234">
<rect width="265" height="221" fill="white"/>
</clipPath>
</defs>
</svg>
